<svg xmlns="http://www.w3.org/2000/svg" xmlns:xlink="http://www.w3.org/1999/xlink" viewBox="0 0 791.34 791.34"><defs><style>.cls-1{fill:url(#未命名的渐变_32);}.cls-2{fill:#fff;}</style><linearGradient id="未命名的渐变_32" x1="395.67" x2="395.67" y2="791.34" gradientUnits="userSpaceOnUse"><stop offset="0" stop-color="#21c6f3"/><stop offset="1" stop-color="#217bf3"/></linearGradient></defs><g id="图层_2" data-name="图层 2"><g id="图层_1-2" data-name="图层 1"><rect class="cls-1" width="791.34" height="791.34"/><path d="M484.92,664.26a21,21,0,0,1,5.56-8,12.53,12.53,0,0,1,8.36-2.82q6.18,0,9.48,4a9.8,9.8,0,0,1,2.5,6.41q0,5.61-7.05,11.6a15.3,15.3,0,0,1,7.17,5.31,13.75,13.75,0,0,1,2.43,8.12,17.11,17.11,0,0,1-4.25,11.57q-5.53,6.36-16.05,6.37-5.19,0-7.07-1.29a3.53,3.53,0,0,1-1.88-2.77,2.58,2.58,0,0,1,.89-1.93,3,3,0,0,1,2.15-.84,6.62,6.62,0,0,1,1.93.3,23.35,23.35,0,0,1,2.92,1.39,19,19,0,0,0,3.15,1.42,10.41,10.41,0,0,0,3,.42,9,9,0,0,0,6.73-3,9.91,9.91,0,0,0,2.86-7.09,13.57,13.57,0,0,0-1.33-5.84,10.18,10.18,0,0,0-2.16-3.23,15.65,15.65,0,0,0-4.47-2.74,14.35,14.35,0,0,0-5.81-1.24h-1.21v-1.14a15.57,15.57,0,0,0,6-2.16,10.8,10.8,0,0,0,5.75-9.78,8.48,8.48,0,0,0-2.45-6.32,8.36,8.36,0,0,0-6.09-2.41q-5.88,0-9.82,6.3Z"/><path d="M546.78,702a17.58,17.58,0,0,1-5,3.81,12,12,0,0,1-5.23,1.16,13,13,0,0,1-9.94-4.76q-4.25-4.76-4.25-12.23a22.12,22.12,0,0,1,4.71-13.68,14.53,14.53,0,0,1,12.09-6.2,10.46,10.46,0,0,1,7.59,2.92v-6.41a52.19,52.19,0,0,0-.29-7.32,3.11,3.11,0,0,0-.89-1.85,2.31,2.31,0,0,0-1.51-.5,8.15,8.15,0,0,0-2.62.61l-.49-1.33L551.33,652H553v40.17a53.88,53.88,0,0,0,.28,7.45,3.28,3.28,0,0,0,.91,1.88,2.22,2.22,0,0,0,1.46.53,8.24,8.24,0,0,0,2.73-.64l.42,1.32L548.52,707h-1.74Zm0-2.65V681.44a12.05,12.05,0,0,0-1.37-4.7,7.84,7.84,0,0,0-3-3.2,7.31,7.31,0,0,0-3.66-1.08,7.76,7.76,0,0,0-6,3q-3.45,3.94-3.45,11.53t3.34,11.74q3.33,4.08,7.43,4.08Q543.55,702.8,546.78,699.35Z"/><path d="M614.21,686.94v5.39h-6.9v13.58h-6.26V692.33H579.28v-4.86l23.86-34.05h4.17v33.52Zm-13.16,0V661.42l-18,25.52Z"/><path d="M641.79,670.14V682h-1.25q-1.45-5.58-3.7-7.59a8.33,8.33,0,0,0-5.75-2,6.34,6.34,0,0,0-4.28,1.4,4.08,4.08,0,0,0-1.64,3.11,5.63,5.63,0,0,0,1.22,3.64,13.31,13.31,0,0,0,4.78,3.3l5.53,2.7q7.71,3.75,7.7,9.9a9.35,9.35,0,0,1-3.58,7.64,12.44,12.44,0,0,1-8,2.9,27.49,27.49,0,0,1-7.28-1.14,7.57,7.57,0,0,0-2-.38,1.52,1.52,0,0,0-1.37,1h-1.25V694h1.25a14.12,14.12,0,0,0,4.06,8,9.83,9.83,0,0,0,6.71,2.69,6,6,0,0,0,4.27-1.53,4.89,4.89,0,0,0,1.65-3.7,5.87,5.87,0,0,0-1.84-4.4,32.39,32.39,0,0,0-7.34-4.52c-3.66-1.82-6.07-3.46-7.2-4.93a8.52,8.52,0,0,1-1.71-5.46,9.66,9.66,0,0,1,2.94-7.17,10.4,10.4,0,0,1,7.6-2.88,17.92,17.92,0,0,1,5,.87,11.72,11.72,0,0,0,2.58.57,1.51,1.51,0,0,0,1-.26,3.73,3.73,0,0,0,.8-1.18Z"/><path d="M574.85,664.31l-1.6,4.4H559.74v-.62a61.7,61.7,0,0,0,8.39-8.88,11.25,11.25,0,0,0,2.43-6.3,5,5,0,0,0-1.33-3.58,4.26,4.26,0,0,0-3.19-1.4,5,5,0,0,0-3,1,5.72,5.72,0,0,0-2,2.89h-.62a7.8,7.8,0,0,1,2.17-4.79,6,6,0,0,1,4.36-1.67,6.45,6.45,0,0,1,4.66,1.79,5.66,5.66,0,0,1,1.86,4.22,8.18,8.18,0,0,1-.81,3.48,22.9,22.9,0,0,1-4,5.79c-2.8,3.06-4.56,4.9-5.25,5.53h6a16.51,16.51,0,0,0,2.56-.13,3.33,3.33,0,0,0,1.33-.55,3.72,3.72,0,0,0,1-1.17Z"/><path d="M663.49,664.31l-1.61,4.4H648.37v-.62a61.32,61.32,0,0,0,8.4-8.88,11.25,11.25,0,0,0,2.43-6.3,5,5,0,0,0-1.34-3.58,4.26,4.26,0,0,0-3.19-1.4,5,5,0,0,0-3,1,5.77,5.77,0,0,0-2,2.89H649A7.86,7.86,0,0,1,651.2,647a6.05,6.05,0,0,1,4.37-1.67,6.45,6.45,0,0,1,4.65,1.79,5.66,5.66,0,0,1,1.86,4.22,8.18,8.18,0,0,1-.81,3.48,22.9,22.9,0,0,1-4,5.79q-4.2,4.59-5.25,5.53h6a16.6,16.6,0,0,0,2.56-.13,3.23,3.23,0,0,0,1.32-.55,3.6,3.6,0,0,0,1-1.17Z"/><path class="cls-2" d="M489,660.37a20.86,20.86,0,0,1,5.55-8,12.58,12.58,0,0,1,8.37-2.82q6.18,0,9.48,4a9.8,9.8,0,0,1,2.5,6.41q0,5.61-7,11.6a15.22,15.22,0,0,1,7.16,5.31,13.75,13.75,0,0,1,2.43,8.12,17.11,17.11,0,0,1-4.25,11.57q-5.54,6.36-16,6.37-5.19,0-7.07-1.29a3.53,3.53,0,0,1-1.88-2.77,2.58,2.58,0,0,1,.89-1.93,3,3,0,0,1,2.14-.84,6.34,6.34,0,0,1,1.94.31,21.31,21.31,0,0,1,2.92,1.38,17.85,17.85,0,0,0,3.15,1.42,10.34,10.34,0,0,0,3,.42,9,9,0,0,0,6.73-3,9.91,9.91,0,0,0,2.87-7.09,13.6,13.6,0,0,0-1.33-5.84,10.35,10.35,0,0,0-2.16-3.22,15.51,15.51,0,0,0-4.48-2.75,14.48,14.48,0,0,0-5.8-1.24h-1.21v-1.13a15.82,15.82,0,0,0,6-2.17,10.77,10.77,0,0,0,5.74-9.78,8.48,8.48,0,0,0-2.44-6.32,8.35,8.35,0,0,0-6.09-2.4q-5.88,0-9.82,6.29Z"/><path class="cls-2" d="M550.89,698.11a17.72,17.72,0,0,1-5,3.81,12.06,12.06,0,0,1-5.24,1.16,13,13,0,0,1-9.93-4.76q-4.26-4.76-4.25-12.23a22.13,22.13,0,0,1,4.7-13.67,14.54,14.54,0,0,1,12.1-6.21,10.43,10.43,0,0,1,7.59,2.93v-6.41a52,52,0,0,0-.29-7.32,3.23,3.23,0,0,0-.89-1.86,2.34,2.34,0,0,0-1.52-.5,8.15,8.15,0,0,0-2.62.61l-.49-1.33,10.36-4.24h1.7v40.16a53.16,53.16,0,0,0,.29,7.45,3.28,3.28,0,0,0,.91,1.88,2.14,2.14,0,0,0,1.46.53,8.24,8.24,0,0,0,2.73-.64l.42,1.32-10.32,4.29h-1.74Zm0-2.65v-17.9a12.27,12.27,0,0,0-1.37-4.71,7.86,7.86,0,0,0-3-3.2,7.31,7.31,0,0,0-3.66-1.08,7.77,7.77,0,0,0-6,3q-3.45,3.95-3.45,11.53t3.34,11.74q3.33,4.08,7.43,4.08Q547.66,698.91,550.89,695.46Z"/><path class="cls-2" d="M618.32,683.05v5.39h-6.9V702h-6.26V688.44H583.39v-4.85l23.85-34.06h4.18v33.52Zm-13.16,0V657.53l-18,25.52Z"/><path class="cls-2" d="M645.89,666.25v11.84h-1.25q-1.44-5.58-3.7-7.59a8.3,8.3,0,0,0-5.74-2,6.38,6.38,0,0,0-4.29,1.4,4.08,4.08,0,0,0-1.63,3.11,5.67,5.67,0,0,0,1.21,3.65,13.76,13.76,0,0,0,4.78,3.3l5.54,2.69q7.7,3.75,7.7,9.9a9.34,9.34,0,0,1-3.58,7.64,12.47,12.47,0,0,1-8,2.9,27.55,27.55,0,0,1-7.28-1.14,7.5,7.5,0,0,0-2-.38,1.51,1.51,0,0,0-1.36,1H625v-12.4h1.25a14.12,14.12,0,0,0,4.06,8,9.74,9.74,0,0,0,6.71,2.69,6,6,0,0,0,4.27-1.53,4.89,4.89,0,0,0,1.65-3.7,5.9,5.9,0,0,0-1.84-4.4,32.32,32.32,0,0,0-7.34-4.51q-5.51-2.73-7.21-4.93a8.57,8.57,0,0,1-1.7-5.47,9.61,9.61,0,0,1,2.93-7.16,10.39,10.39,0,0,1,7.61-2.89,17.67,17.67,0,0,1,5,.88,12.12,12.12,0,0,0,2.58.56,1.46,1.46,0,0,0,.94-.26,3.57,3.57,0,0,0,.8-1.18Z"/><path class="cls-2" d="M579,661.42l-1.61,4.41h-13.5v-.63a60.67,60.67,0,0,0,8.39-8.88,11.25,11.25,0,0,0,2.43-6.3,5,5,0,0,0-1.33-3.58,4.28,4.28,0,0,0-3.2-1.4,5,5,0,0,0-3,1,5.77,5.77,0,0,0-2,2.89h-.62a7.8,7.8,0,0,1,2.17-4.79,6.05,6.05,0,0,1,4.36-1.67,6.41,6.41,0,0,1,4.65,1.79,5.67,5.67,0,0,1,1.87,4.22,8.18,8.18,0,0,1-.81,3.48,23.23,23.23,0,0,1-4.06,5.79q-4.2,4.59-5.25,5.54h6a16.16,16.16,0,0,0,2.56-.14,3.23,3.23,0,0,0,1.32-.55,3.49,3.49,0,0,0,1-1.17Z"/><path class="cls-2" d="M667.59,661.42l-1.6,4.41H652.48v-.63a60.67,60.67,0,0,0,8.39-8.88,11.25,11.25,0,0,0,2.43-6.3,5,5,0,0,0-1.33-3.58,4.26,4.26,0,0,0-3.19-1.4,5,5,0,0,0-3,1,5.72,5.72,0,0,0-2,2.89h-.62a7.8,7.8,0,0,1,2.17-4.79,6.07,6.07,0,0,1,4.36-1.67,6.41,6.41,0,0,1,4.65,1.79,5.64,5.64,0,0,1,1.87,4.22,8.18,8.18,0,0,1-.81,3.48,22.9,22.9,0,0,1-4,5.79c-2.8,3.06-4.56,4.91-5.25,5.54h6a16.16,16.16,0,0,0,2.56-.14,3.33,3.33,0,0,0,1.33-.55,3.72,3.72,0,0,0,1-1.17Z"/><path d="M679.67,115.79l-5.44,14.94h-45.8v-2.12q20.21-18.44,28.45-30.11t8.25-21.36A16.89,16.89,0,0,0,660.6,65a14.4,14.4,0,0,0-10.82-4.75,16.91,16.91,0,0,0-10.27,3.35,19.37,19.37,0,0,0-6.73,9.82h-2.12q1.43-10.59,7.36-16.26a20.56,20.56,0,0,1,14.8-5.67,21.87,21.87,0,0,1,15.77,6.07,19.19,19.19,0,0,1,6.33,14.31,27.77,27.77,0,0,1-2.75,11.8q-4.23,9.27-13.74,19.64-14.26,15.57-17.81,18.78h20.27a56.09,56.09,0,0,0,8.68-.46,11.45,11.45,0,0,0,4.49-1.86,12.23,12.23,0,0,0,3.49-4Z"/><path d="M738.3,115.79l-5.44,14.94h-45.8v-2.12q20.21-18.44,28.45-30.11t8.25-21.36A16.93,16.93,0,0,0,719.24,65a14.44,14.44,0,0,0-10.83-4.75,16.91,16.91,0,0,0-10.27,3.35,19.37,19.37,0,0,0-6.73,9.82h-2.12q1.43-10.59,7.36-16.26a20.56,20.56,0,0,1,14.8-5.67,21.87,21.87,0,0,1,15.77,6.07,19.19,19.19,0,0,1,6.33,14.31,27.77,27.77,0,0,1-2.75,11.8q-4.23,9.27-13.74,19.64-14.26,15.57-17.81,18.78h20.27a56.09,56.09,0,0,0,8.68-.46,11.45,11.45,0,0,0,4.49-1.86,12.23,12.23,0,0,0,3.49-4Z"/><path class="cls-2" d="M688.67,111.79l-5.44,14.94h-45.8v-2.12q20.21-18.44,28.46-30.11t8.24-21.36A16.93,16.93,0,0,0,669.61,61a14.43,14.43,0,0,0-10.82-4.75,16.92,16.92,0,0,0-10.28,3.35,19.37,19.37,0,0,0-6.73,9.82h-2.12Q641.1,58.83,647,53.16a20.56,20.56,0,0,1,14.8-5.67,21.89,21.89,0,0,1,15.78,6.07,19.21,19.21,0,0,1,6.32,14.31,27.63,27.63,0,0,1-2.75,11.8q-4.23,9.27-13.74,19.64-14.25,15.57-17.8,18.78h20.26a56,56,0,0,0,8.68-.46,11.39,11.39,0,0,0,4.49-1.86,12.37,12.37,0,0,0,3.5-4Z"/><path class="cls-2" d="M747.3,111.79l-5.43,14.94H696.06v-2.12q20.21-18.44,28.46-30.11t8.24-21.36A16.93,16.93,0,0,0,728.24,61a14.41,14.41,0,0,0-10.82-4.75,16.92,16.92,0,0,0-10.28,3.35,19.37,19.37,0,0,0-6.73,9.82h-2.12q1.44-10.59,7.36-16.26a20.56,20.56,0,0,1,14.8-5.67,21.89,21.89,0,0,1,15.78,6.07,19.21,19.21,0,0,1,6.32,14.31,27.63,27.63,0,0,1-2.75,11.8q-4.23,9.27-13.74,19.64-14.25,15.57-17.8,18.78h20.26a56,56,0,0,0,8.68-.46,11.39,11.39,0,0,0,4.49-1.86,12.37,12.37,0,0,0,3.5-4Z"/><path d="M441.16,613.81l-7.43-16.18v12.84a4,4,0,0,0,.38,2.22,2.14,2.14,0,0,0,1.66.59h.68v.53h-6.69v-.53h.68a1.93,1.93,0,0,0,1.73-.74,4.27,4.27,0,0,0,.31-2.07V597.91a4.38,4.38,0,0,0-.28-1.84,1.59,1.59,0,0,0-.73-.69,4,4,0,0,0-1.71-.28v-.52h5.45l7,15,6.87-15h5.44v.52h-.67a2,2,0,0,0-1.74.74,4.27,4.27,0,0,0-.31,2.07v12.56a3.9,3.9,0,0,0,.39,2.22,2.14,2.14,0,0,0,1.66.59h.67v.53h-8.17v-.53H447a1.9,1.9,0,0,0,1.73-.74,4.23,4.23,0,0,0,.32-2.07V597.63l-7.42,16.18Z"/><path d="M459.81,600.44v2.92c1.08-2,2.2-2.92,3.34-2.92a1.8,1.8,0,0,1,1.29.47A1.46,1.46,0,0,1,465,602a1.33,1.33,0,0,1-.36.94,1.2,1.2,0,0,1-.88.38,1.87,1.87,0,0,1-1.12-.49,1.79,1.79,0,0,0-.91-.49.81.81,0,0,0-.55.28,6.71,6.71,0,0,0-1.32,1.92v6.22a3.84,3.84,0,0,0,.27,1.63,1.44,1.44,0,0,0,.65.64,2.86,2.86,0,0,0,1.35.26v.51h-6.65v-.51a2.72,2.72,0,0,0,1.47-.32,1.21,1.21,0,0,0,.5-.72,8,8,0,0,0,.07-1.37v-5a21.44,21.44,0,0,0-.09-2.7,1.12,1.12,0,0,0-.34-.63,1,1,0,0,0-.62-.2,2.8,2.8,0,0,0-1,.21l-.15-.51,3.93-1.58Z"/><path class="cls-2" d="M443.07,612.34l-7.43-16.18V609a4,4,0,0,0,.38,2.21,2.09,2.09,0,0,0,1.66.6h.68v.52h-6.69v-.52h.68a2,2,0,0,0,1.73-.74,4.3,4.3,0,0,0,.31-2.07V596.45a4.4,4.4,0,0,0-.28-1.85,1.69,1.69,0,0,0-.73-.69,4,4,0,0,0-1.71-.27v-.53h5.44l7,15,6.86-15h5.45v.53h-.67a2,2,0,0,0-1.74.74,4.23,4.23,0,0,0-.32,2.07V609a3.84,3.84,0,0,0,.4,2.21,2.09,2.09,0,0,0,1.66.6h.67v.52h-8.17v-.52h.68a1.94,1.94,0,0,0,1.73-.74A4.3,4.3,0,0,0,451,609V596.16l-7.41,16.18Z"/><path class="cls-2" d="M461.71,599v2.92q1.64-2.92,3.35-2.92a1.84,1.84,0,0,1,1.29.47,1.48,1.48,0,0,1,.51,1.1,1.3,1.3,0,0,1-.37.94,1.19,1.19,0,0,1-.88.38,1.84,1.84,0,0,1-1.11-.49,1.89,1.89,0,0,0-.92-.49.85.85,0,0,0-.55.29,6.9,6.9,0,0,0-1.32,1.91v6.23a3.87,3.87,0,0,0,.27,1.63,1.52,1.52,0,0,0,.65.63,2.91,2.91,0,0,0,1.35.26v.51h-6.65v-.51a2.77,2.77,0,0,0,1.48-.31,1.2,1.2,0,0,0,.49-.73,7,7,0,0,0,.07-1.37v-5a21.54,21.54,0,0,0-.09-2.71,1.07,1.07,0,0,0-.34-.63,1,1,0,0,0-.62-.2,2.88,2.88,0,0,0-1,.22l-.14-.51,3.93-1.59Z"/><path d="M448.77,682.29l.44,6.54h-.44a8.23,8.23,0,0,0-2.51-4.23,6.11,6.11,0,0,0-3.91-1.29,6.34,6.34,0,0,0-3.46,1,6.43,6.43,0,0,0-2.43,3.1,13.82,13.82,0,0,0-.89,5.29,11.15,11.15,0,0,0,.84,4.52,6.2,6.2,0,0,0,2.51,2.94,7.25,7.25,0,0,0,3.84,1,6.66,6.66,0,0,0,3.3-.8,10.87,10.87,0,0,0,3.15-3.19l.44.29a10,10,0,0,1-3.38,3.75,8.46,8.46,0,0,1-4.57,1.19,8.68,8.68,0,0,1-7.41-3.54,10.17,10.17,0,0,1-2-6.21,11,11,0,0,1,1.29-5.29,9.35,9.35,0,0,1,3.55-3.74,9.62,9.62,0,0,1,4.94-1.32,9,9,0,0,1,4.11,1,2.2,2.2,0,0,0,.85.31.94.94,0,0,0,.67-.27,2.2,2.2,0,0,0,.52-1.06Z"/><path d="M456.64,690v8.53a4.12,4.12,0,0,0,.4,2.3,1.71,1.71,0,0,0,1.4.62h1.18V702h-7.76v-.52h.58a2,2,0,0,0,1-.28,1.48,1.48,0,0,0,.64-.76,6.4,6.4,0,0,0,.18-1.88V690h-2.52v-1h2.52v-.85a7.85,7.85,0,0,1,.62-3.29,5.16,5.16,0,0,1,1.91-2.18,5.25,5.25,0,0,1,2.89-.83,4.32,4.32,0,0,1,2.73,1,1.81,1.81,0,0,1,.83,1.43,1.16,1.16,0,0,1-.37.8,1.11,1.11,0,0,1-.8.37,1.23,1.23,0,0,1-.68-.23,3.61,3.61,0,0,1-.89-1,3.54,3.54,0,0,0-1-1,1.79,1.79,0,0,0-1-.27,1.77,1.77,0,0,0-1.11.35,1.93,1.93,0,0,0-.65,1.08,20.3,20.3,0,0,0-.2,3.76V689H460v1Z"/><path class="cls-2" d="M449.84,680.42l.44,6.53h-.44a8.18,8.18,0,0,0-2.51-4.22,6.09,6.09,0,0,0-3.91-1.29,6.36,6.36,0,0,0-3.46,1,6.43,6.43,0,0,0-2.43,3.1,13.76,13.76,0,0,0-.89,5.28,11.24,11.24,0,0,0,.84,4.53,6.3,6.3,0,0,0,2.52,2.93,7.24,7.24,0,0,0,3.83,1,6.62,6.62,0,0,0,3.31-.8,10.8,10.8,0,0,0,3.14-3.18l.44.28a10.08,10.08,0,0,1-3.37,3.76,8.49,8.49,0,0,1-4.58,1.19,8.67,8.67,0,0,1-7.4-3.54,10.11,10.11,0,0,1-2-6.21,11,11,0,0,1,1.29-5.29,9.41,9.41,0,0,1,3.55-3.74,9.65,9.65,0,0,1,4.94-1.32,9.12,9.12,0,0,1,4.12,1,2.32,2.32,0,0,0,.85.31.93.93,0,0,0,.66-.27,2.26,2.26,0,0,0,.53-1.06Z"/><path class="cls-2" d="M457.71,688.12v8.53a4.22,4.22,0,0,0,.4,2.3,1.76,1.76,0,0,0,1.4.62h1.18v.51h-7.75v-.51h.58a1.94,1.94,0,0,0,1-.28,1.52,1.52,0,0,0,.65-.77,6.38,6.38,0,0,0,.17-1.87v-8.53h-2.52v-1h2.52v-.85A7.75,7.75,0,0,1,456,683a5.06,5.06,0,0,1,1.91-2.17,5.11,5.11,0,0,1,2.88-.83,4.4,4.4,0,0,1,2.74,1,1.81,1.81,0,0,1,.82,1.43,1.14,1.14,0,0,1-.37.81,1.08,1.08,0,0,1-.79.37,1.32,1.32,0,0,1-.69-.23,3.77,3.77,0,0,1-.89-1,3.53,3.53,0,0,0-1-1,1.83,1.83,0,0,0-1-.27,1.75,1.75,0,0,0-1.11.35,1.94,1.94,0,0,0-.65,1.07,20.52,20.52,0,0,0-.2,3.77v.93h3.35v1Z"/><path d="M516,600v4.92h-6.32V617.3H504V604.88h-19.9v-4.44L505.9,569.3h3.81V600Zm-12,0V576.62L487.49,600Z"/><path d="M525.63,570.27h25.21v1.32l-15.67,46.68h-3.89l14.05-42.34H532.39a12.19,12.19,0,0,0-5.58.93,11.71,11.71,0,0,0-4.68,4.93l-1-.38Z"/><path d="M562.88,610.57a3.81,3.81,0,1,1-2.73,1.11A3.76,3.76,0,0,1,562.88,610.57Z"/><path d="M585.38,593.61q-5.58-4.58-7.19-7.35a11.27,11.27,0,0,1-1.62-5.76,10.45,10.45,0,0,1,3.54-7.89,15,15,0,0,1,18.55-.22,9.2,9.2,0,0,1,3.47,7,9.47,9.47,0,0,1-1.87,5.37q-1.87,2.75-7.8,6.45,6.1,4.72,8.08,7.42a12.34,12.34,0,0,1,2.63,7.46,11.17,11.17,0,0,1-3.78,8.48,13.94,13.94,0,0,1-9.91,3.52q-6.71,0-10.44-4.2a10.37,10.37,0,0,1-.89-13.54A30.52,30.52,0,0,1,585.38,593.61Zm1.63,1.32a16.15,16.15,0,0,0-4.26,5.29,13.94,13.94,0,0,0-1.39,6.19,10.23,10.23,0,0,0,2.45,7.16,8,8,0,0,0,6.22,2.69,8.41,8.41,0,0,0,6-2.12,6.78,6.78,0,0,0,2.25-5.13,7.9,7.9,0,0,0-1.31-4.47Q594.5,600.85,587,594.93Zm3.82-5q4.15-3.75,5.27-5.91a10.63,10.63,0,0,0,1.11-4.91,7.7,7.7,0,0,0-2.05-5.7,7.48,7.48,0,0,0-5.58-2.07,8.18,8.18,0,0,0-5.76,2.05,6.32,6.32,0,0,0-2.22,4.79,7.89,7.89,0,0,0,.92,3.6,12.85,12.85,0,0,0,2.62,3.43Z"/><path d="M614.41,570.27h25.21v1.32L624,618.27h-3.89l14.05-42.34H621.17a12.19,12.19,0,0,0-5.58.93,11.65,11.65,0,0,0-4.68,4.93l-1-.38Z"/><path class="cls-2" d="M520.51,595.73v4.93h-6.32v12.41h-5.72V600.66h-19.9v-4.44l21.81-31.14h3.81v30.65Zm-12,0V572.4L492,595.73Z"/><path class="cls-2" d="M530.11,566.05h25.21v1.32L539.65,614h-3.89l14-42.34H536.87q-3.92,0-5.58.94a11.62,11.62,0,0,0-4.68,4.92l-1-.38Z"/><path class="cls-2" d="M567.36,606.35a3.7,3.7,0,0,1,2.74,1.12,3.77,3.77,0,0,1,1.1,2.73,3.86,3.86,0,1,1-3.84-3.85Z"/><path class="cls-2" d="M589.86,589.39q-5.58-4.57-7.19-7.35a11.27,11.27,0,0,1-1.62-5.76,10.45,10.45,0,0,1,3.54-7.89,15,15,0,0,1,18.55-.22,9.22,9.22,0,0,1,3.47,7,9.52,9.52,0,0,1-1.87,5.37q-1.87,2.74-7.8,6.45,6.09,4.71,8.08,7.42a12.32,12.32,0,0,1,2.63,7.46,11.19,11.19,0,0,1-3.78,8.48,14,14,0,0,1-9.92,3.52q-6.69,0-10.43-4.2a10.37,10.37,0,0,1-.89-13.54A30.12,30.12,0,0,1,589.86,589.39Zm1.63,1.32a16.12,16.12,0,0,0-4.26,5.28,13.94,13.94,0,0,0-1.39,6.19,10.25,10.25,0,0,0,2.44,7.17,8.05,8.05,0,0,0,6.23,2.68,8.42,8.42,0,0,0,6-2.11,6.78,6.78,0,0,0,2.25-5.13,7.89,7.89,0,0,0-1.32-4.48Q599,596.64,591.49,590.71Zm3.82-5q4.16-3.75,5.27-5.92a10.58,10.58,0,0,0,1.11-4.9,7.78,7.78,0,0,0-2.05-5.71,7.51,7.51,0,0,0-5.58-2.06,8.14,8.14,0,0,0-5.76,2,6.31,6.31,0,0,0-2.22,4.78,7.93,7.93,0,0,0,.92,3.61,12.85,12.85,0,0,0,2.62,3.43Z"/><path class="cls-2" d="M618.89,566.05H644.1v1.32L628.42,614h-3.88l14-42.34H625.65q-3.92,0-5.58.94a11.59,11.59,0,0,0-4.69,4.92l-1-.38Z"/><path d="M63.55,488.8V442.23H283V488.8H201.16V709.37H145.33V488.8Z"/><path d="M346.21,483.19A30.06,30.06,0,0,1,325,474.91,26.23,26.23,0,0,1,316.08,455q0-11.47,8.87-19.76a31.33,31.33,0,0,1,42.46,0,26.73,26.73,0,0,1,0,39.65A29.85,29.85,0,0,1,346.21,483.19Zm-28,226.18V509h55.57V709.37Z"/><path class="cls-2" d="M85.59,470.8V424.23H305V470.8H223.2V691.37H167.38V470.8Z"/><path class="cls-2" d="M368.25,465.19A30.06,30.06,0,0,1,347,456.91,26.27,26.27,0,0,1,338.12,437q0-11.47,8.87-19.76a31.33,31.33,0,0,1,42.46,0,26.73,26.73,0,0,1,0,39.65A29.85,29.85,0,0,1,368.25,465.19Zm-28,226.18V491h55.56V691.37Z"/></g></g></svg>