<svg xmlns="http://www.w3.org/2000/svg" viewBox="0 0 1125.6 325.39"><defs><style>.cls-1{fill:#fff;}</style></defs><g id="图层_2" data-name="图层 2"><g id="图层_1-2" data-name="图层 1"><path class="cls-1" d="M8.8,283.68,97.44,50h20.69l88.32,233.66H183.31l-25.42-68.6H56.54l-24.93,68.6Zm54.91-87.34h87.34L112.27,90.6a56.53,56.53,0,0,1-2.45-8q-1-4.23-2.28-9h-.65c-.76,3.37-1.55,6.46-2.36,9.29s-1.61,5.27-2.37,7.33Z" transform="translate(-8.8 -36.66)"/><path class="cls-1" d="M324.74,130a51.63,51.63,0,0,0-7.17-2,39.51,39.51,0,0,0-7.33-.65q-21.35,0-34.14,20.12t-12.79,53.37v82.77H243.76V112.76h19.55v36.49H264q5.7-18.9,18.24-29.16T312,109.82a66.84,66.84,0,0,1,8.15.49,46.18,46.18,0,0,1,7.66,1.63Z" transform="translate(-8.8 -36.66)"/><path class="cls-1" d="M478.07,273.74a88,88,0,0,1-49.21,14.18q-35.36,0-57.35-23.38t-22-63q0-41.22,23.71-67.13t62.16-25.91a92,92,0,0,1,21.92,2.61,94.36,94.36,0,0,1,21.75,8.47l-8.15,15.32A73.18,73.18,0,0,0,453.06,128a81.72,81.72,0,0,0-18.66-2q-29.82,0-47.17,20.62t-17.35,53.2q0,32.91,16.62,51.73t43.67,18.82a72.59,72.59,0,0,0,19.39-2.61,73.82,73.82,0,0,0,19.55-9Z" transform="translate(-8.8 -36.66)"/><path class="cls-1" d="M519,283.68v-247h19.71v247Z" transform="translate(-8.8 -36.66)"/><path class="cls-1" d="M605.33,74.46a14.3,14.3,0,0,1-10.84-4.56,15.11,15.11,0,0,1-4.32-10.75A14.77,14.77,0,0,1,605.33,44a15.77,15.77,0,0,1,11.24,4.32A14.12,14.12,0,0,1,621.13,59a14.9,14.9,0,0,1-4.56,10.92A15.28,15.28,0,0,1,605.33,74.46Zm9.94,209.22H595.55V112.76h19.72Z" transform="translate(-8.8 -36.66)"/><path class="cls-1" d="M814.38,271.79q0,45.29-21.75,67.78T730.3,362.06a131.42,131.42,0,0,1-31-3.43,129.13,129.13,0,0,1-28.51-10.75l7.82-15.64a105.76,105.76,0,0,0,52.14,12.54q29.34,0,46.6-16.86t17.28-52.55V253.7H794q-9.76,16.95-25.09,25.58t-35.36,8.64q-31.6,0-51.41-22.73t-19.79-63.14q0-41.22,21.51-67.38t56.7-26.15q18.24,0,31.61,7.49T794,138.5h.66V112.76h19.71Zm-19.71-61.6V179.4a53.47,53.47,0,0,0-14.75-37.8q-14.74-15.81-37.72-15.81-27.21,0-43.43,20t-16.21,54.83q0,34.88,15.07,52.39t39.84,17.51q25.92,0,41.55-17.35T794.67,210.19Z" transform="translate(-8.8 -36.66)"/><path class="cls-1" d="M1006.65,283.68H986.94v-101q0-29.17-10.51-43t-32.84-13.85q-21.18,0-36.82,16.54T891.13,188.2v95.48H871.41v-247h19.72V142.57h.65q9.93-17.1,24.36-25.58t33.32-8.47q28.35,0,42.77,17.76t14.42,51.65Z" transform="translate(-8.8 -36.66)"/><path class="cls-1" d="M1134.4,280.75a48.58,48.58,0,0,1-12.55,4.72,67.69,67.69,0,0,1-14.83,1.47q-17.93,0-28.18-10.92t-10.27-31.93V130h-30V112.76h30V71.69L1088.29,65v47.75h44.48V130h-44.48V241.48q0,15,5.62,21.75t16,6.76a38.15,38.15,0,0,0,10.34-1.3,33.49,33.49,0,0,0,8.4-3.58Z" transform="translate(-8.8 -36.66)"/></g></g></svg>