<svg xmlns="http://www.w3.org/2000/svg" xmlns:xlink="http://www.w3.org/1999/xlink" viewBox="0 0 1000 1000"><defs><style>.cls-1{fill:url(#未命名的渐变_78);}.cls-2,.cls-3{fill-rule:evenodd;}.cls-3,.cls-4{fill:#fff;}</style><linearGradient id="未命名的渐变_78" x1="500" x2="500" y2="1000" gradientUnits="userSpaceOnUse"><stop offset="0.29" stop-color="#ffe816"/><stop offset="0.86" stop-color="#ffb526"/></linearGradient></defs><title>bad-design</title><rect class="cls-1" width="1000" height="1000"/><path class="cls-2" d="M925,864.22a44.2,44.2,0,0,1-1.63,4.83h27.07a45.14,45.14,0,0,0,.5-4.83Zm-6.78,14.27a45.41,45.41,0,0,0,2.93-4.72h28.29a46.57,46.57,0,0,1-1.56,4.72Zm-3.84,4.73a45.63,45.63,0,0,1-33.53,14.65c-1.08,0-2.15,0-3.21-.11a45.38,45.38,0,0,0,68.07-14.54Zm11.67-23.73H951a45.46,45.46,0,0,0-40.48-42.83,46.21,46.21,0,0,1,15.59,42.83Z"/><path class="cls-3" d="M929.06,859.37a44.42,44.42,0,0,1-1.64,4.84H954.5a45.33,45.33,0,0,0,.5-4.84Zm-6.79,14.28a46.57,46.57,0,0,0,2.94-4.72h28.28a44.15,44.15,0,0,1-1.55,4.72Zm-3.83,4.72A45.62,45.62,0,0,1,884.9,893q-1.62,0-3.21-.12a45.37,45.37,0,0,0,68.08-14.54Zm11.67-23.72H955a45.48,45.48,0,0,0-40.48-42.83A46,46,0,0,1,930.74,847,47.38,47.38,0,0,1,930.11,854.65Z"/><path d="M191.18,467.66a28.21,28.21,0,0,0-3.88-12.54,31,31,0,0,0-8.5-9.1,40.58,40.58,0,0,0-12.54-5.82,58.11,58.11,0,0,0-16-2.09,60.45,60.45,0,0,0-16.57,2.09,36.65,36.65,0,0,0-12.39,6,27.51,27.51,0,0,0-7.76,8.95,23.92,23.92,0,0,0-2.69,11.35,20.76,20.76,0,0,0,3.29,11.79,29.63,29.63,0,0,0,8.51,8.36,56.07,56.07,0,0,0,11.79,5.82,102.75,102.75,0,0,0,13.43,3.88l20.3,5.07a161.78,161.78,0,0,1,23.73,7.77,79.17,79.17,0,0,1,20.45,12.23,57,57,0,0,1,14.33,17.92q5.37,10.44,5.37,24.77a59.49,59.49,0,0,1-5.67,26.12,58.77,58.77,0,0,1-16.12,20.3q-10.46,8.5-25.82,13.14a120.78,120.78,0,0,1-34.78,4.62,121.42,121.42,0,0,1-34.33-4.48,75.78,75.78,0,0,1-26.12-13.13,60.59,60.59,0,0,1-17-21.2,70.59,70.59,0,0,1-6.72-28.65H104a32.28,32.28,0,0,0,14,25.37,43,43,0,0,0,14,6.27,68.43,68.43,0,0,0,17.31,2.09,64.18,64.18,0,0,0,17.47-2.24A45.75,45.75,0,0,0,180.59,586a28.54,28.54,0,0,0,8.95-9.7,25.48,25.48,0,0,0,3.14-12.54,21,21,0,0,0-2.84-11.19,26.57,26.57,0,0,0-7.91-8.06,58.42,58.42,0,0,0-12.24-6.12,131.64,131.64,0,0,0-16.12-4.78l-24.48-6.56a121.34,121.34,0,0,1-24.18-8.51A70.61,70.61,0,0,1,86.7,506.17a50.73,50.73,0,0,1-11.49-16.42,51.89,51.89,0,0,1-4-20.89,57,57,0,0,1,6-26.12,59.07,59.07,0,0,1,16.72-20.15,80.49,80.49,0,0,1,25.37-13A104.55,104.55,0,0,1,150.89,405a102.77,102.77,0,0,1,31.64,4.63A75.48,75.48,0,0,1,207,422.44a60,60,0,0,1,16,19.7,58.51,58.51,0,0,1,6.12,25.52Z"/><path class="cls-4" d="M211.08,455.72a28.17,28.17,0,0,0-3.88-12.53,30.91,30.91,0,0,0-8.51-9.11,40.36,40.36,0,0,0-12.54-5.82,58.06,58.06,0,0,0-16-2.09,60.37,60.37,0,0,0-16.56,2.09,36.84,36.84,0,0,0-12.39,6,27.33,27.33,0,0,0-7.76,9,23.85,23.85,0,0,0-2.69,11.34,20.74,20.74,0,0,0,3.28,11.79,29.76,29.76,0,0,0,8.51,8.36,56.31,56.31,0,0,0,11.79,5.82,101.8,101.8,0,0,0,13.44,3.88l20.29,5.08a162.26,162.26,0,0,1,23.74,7.76,78.86,78.86,0,0,1,20.44,12.24,56.87,56.87,0,0,1,14.33,17.91Q252,537.83,252,552.14a59.46,59.46,0,0,1-5.68,26.12,58.74,58.74,0,0,1-16.11,20.3q-10.45,8.51-25.83,13.14a120.76,120.76,0,0,1-34.77,4.62,121.8,121.8,0,0,1-34.33-4.47,75.79,75.79,0,0,1-26.12-13.14,60.7,60.7,0,0,1-17-21.19,70.48,70.48,0,0,1-6.71-28.66h38.5a32.24,32.24,0,0,0,14,25.37,43,43,0,0,0,14,6.27,68.57,68.57,0,0,0,17.32,2.09,63.72,63.72,0,0,0,17.46-2.24,45.75,45.75,0,0,0,13.73-6.27,28.48,28.48,0,0,0,9-9.7,25.41,25.41,0,0,0,3.13-12.53,21.06,21.06,0,0,0-2.83-11.2,26.69,26.69,0,0,0-7.91-8.06,59.16,59.16,0,0,0-12.24-6.12,130.48,130.48,0,0,0-16.12-4.77L149,515.13a120.89,120.89,0,0,1-24.18-8.51,70.44,70.44,0,0,1-18.21-12.39,50.32,50.32,0,0,1-11.49-16.42,51.72,51.72,0,0,1-4-20.89,56.84,56.84,0,0,1,6-26.12,59.15,59.15,0,0,1,16.71-20.15,80.65,80.65,0,0,1,25.38-13A104.53,104.53,0,0,1,170.78,393a102.68,102.68,0,0,1,31.64,4.62A75.37,75.37,0,0,1,226.9,410.5a60,60,0,0,1,16,19.7A58.51,58.51,0,0,1,249,455.72Z"/><path d="M267,408H408.2V440.8H306.41v58.8h94.33v33.14H306.41v59.1H409.1V625H267Z"/><path class="cls-4" d="M286.9,396H428.1v32.84H326.3v58.8h94.33V520.8H326.3v59.11H429V613H286.9Z"/><path d="M434.17,625l76.42-217H559l76.72,217H593.58l-17.92-53.44H493.87L476,625ZM564.92,539.9l-29.26-87.46h-1.79L504.62,539.9Z"/><path class="cls-4" d="M454.07,613l76.42-217h48.35l76.72,217H613.47l-17.91-53.43H513.77L495.86,613ZM584.81,528,555.56,440.5h-1.79L524.51,528Z"/><path d="M57,697.1H230.14v32.83H163V914.12H124.17V729.93H57Z"/><path class="cls-4" d="M76.9,685.16H250V718H182.87V902.18H144.06V718H76.9Z"/><path d="M280.89,728.14a23,23,0,0,1-8.81-1.64,22.19,22.19,0,0,1-11.79-11,18.81,18.81,0,0,1-1.79-8.21,19.08,19.08,0,0,1,1.79-8.06,21.47,21.47,0,0,1,4.78-6.72,22.2,22.2,0,0,1,7-4.48,23.22,23.22,0,0,1,8.81-1.64,22.59,22.59,0,0,1,15.52,6.12,21.79,21.79,0,0,1,4.78,6.72,19.08,19.08,0,0,1,1.79,8.06,18.81,18.81,0,0,1-1.79,8.21,22.33,22.33,0,0,1-4.78,6.56,22.59,22.59,0,0,1-15.52,6.12Zm-19.41,23H300v163H261.48Z"/><path class="cls-4" d="M300.78,716.2a23,23,0,0,1-8.8-1.64,22,22,0,0,1-11.79-11,18.67,18.67,0,0,1-1.8-8.21,18.94,18.94,0,0,1,1.8-8.06,21.84,21.84,0,0,1,4.77-6.72,22.36,22.36,0,0,1,7-4.48,23.17,23.17,0,0,1,8.8-1.64,22.64,22.64,0,0,1,15.53,6.12,22,22,0,0,1,4.77,6.72,18.93,18.93,0,0,1,1.79,8.06,18.67,18.67,0,0,1-1.79,8.21,22.45,22.45,0,0,1-20.3,12.68Zm-19.4,23h38.51v163H281.38Z"/><path d="M340.89,914.12v-217h74.92q24.48,0,43.74,7.31a86.3,86.3,0,0,1,32.53,21.34,95.43,95.43,0,0,1,20.45,34.18q7.17,20.16,7.17,45.53T512.53,851a93.28,93.28,0,0,1-20.74,34.18,90.06,90.06,0,0,1-33.14,21.49q-19.56,7.47-44.33,7.47Zm71.64-34q34,0,51.2-18.66t17.16-56q0-37.32-17-55.82t-50.16-18.51H380.29v149Z"/><path class="cls-4" d="M360.78,902.18v-217h74.93q24.48,0,43.73,7.31A86.36,86.36,0,0,1,512,713.82,95.54,95.54,0,0,1,532.43,748q7.16,20.14,7.16,45.52T532.43,839a93.22,93.22,0,0,1-20.75,34.18,90.17,90.17,0,0,1-33.13,21.5q-19.56,7.46-44.33,7.46Zm71.65-34q34,0,51.19-18.66t17.17-56q0-37.31-17-55.82t-50.15-18.51H400.19v149Z"/><path d="M557,697.1h141.2v32.83H596.42v58.81h94.33v33.14H596.42V881H699.1v33.14H557Z"/><path class="cls-4" d="M576.91,685.16H718.1V718H616.31v58.8h94.33v33.14H616.31V869H719v33.14H576.91Z"/></svg>