<?xml version="1.0" encoding="UTF-8" standalone="no"?>
<svg
   xmlns:dc="http://purl.org/dc/elements/1.1/"
   xmlns:cc="http://creativecommons.org/ns#"
   xmlns:rdf="http://www.w3.org/1999/02/22-rdf-syntax-ns#"
   xmlns:svg="http://www.w3.org/2000/svg"
   xmlns="http://www.w3.org/2000/svg"
   xmlns:xlink="http://www.w3.org/1999/xlink"
   xmlns:sodipodi="http://sodipodi.sourceforge.net/DTD/sodipodi-0.dtd"
   xmlns:inkscape="http://www.inkscape.org/namespaces/inkscape"
   width="280.07001mm"
   height="280.07001mm"
   viewBox="0 0 280.07001 280.07001"
   version="1.1"
   id="svg8"
   inkscape:version="1.0 (4035a4fb49, 2020-05-01)"
   sodipodi:docname="Intel Core i9 2020 logo.svg">
   <defs
      id="defs2">
      <style>
         svg {filter: drop-shadow(0px 2px 4px #00000050)}
      </style>
      <linearGradient
         id="linearGradient1671"
         inkscape:collect="always">
         <stop
            id="stop1667"
            offset="0"
            style="stop-color:#ffffff;stop-opacity:1" />
         <stop
            id="stop1669"
            offset="1"
            style="stop-color:#b6cae6;stop-opacity:1" />
      </linearGradient>
      <linearGradient
         id="linearGradient1665"
         inkscape:collect="always">
         <stop
            id="stop1659"
            offset="0"
            style="stop-color:#123787;stop-opacity:1" />
         <stop
            style="stop-color:#2443af;stop-opacity:1"
            offset="0.42966413"
            id="stop1661" />
         <stop
            id="stop1663"
            offset="1"
            style="stop-color:#123787;stop-opacity:1" />
      </linearGradient>
      <linearGradient
         inkscape:collect="always"
         id="linearGradient1280">
         <stop
            style="stop-color:#ff5700;stop-opacity:1"
            offset="0"
            id="stop1276" />
         <stop
            id="stop1293"
            offset="0.5"
            style="stop-color:#9500d4;stop-opacity:0.98431373" />
         <stop
            style="stop-color:#1500e8;stop-opacity:0.969697"
            offset="1"
            id="stop1278" />
      </linearGradient>
      <linearGradient
         inkscape:collect="always"
         xlink:href="#linearGradient1280"
         id="linearGradient1290"
         x1="87.855469"
         y1="569.66211"
         x2="87.855469"
         y2="405.37692"
         gradientUnits="userSpaceOnUse"
         gradientTransform="matrix(0.26458333,0,0,0.26458333,-62.339641,-55.916643)" />
      <filter
         style="color-interpolation-filters:sRGB"
         inkscape:label="Drop Shadow"
         id="filter5169">
         <feFlood
            flood-opacity="0.498039"
            flood-color="rgb(0,0,0)"
            result="flood"
            id="feFlood5159" />
         <feComposite
            in="flood"
            in2="SourceGraphic"
            operator="in"
            result="composite1"
            id="feComposite5161" />
         <feGaussianBlur
            in="composite1"
            stdDeviation="0.5"
            result="blur"
            id="feGaussianBlur5163" />
         <feOffset
            dx="0"
            dy="1.6"
            result="offset"
            id="feOffset5165" />
         <feComposite
            in="SourceGraphic"
            in2="offset"
            operator="over"
            result="composite2"
            id="feComposite5167" />
      </filter>
      <filter
         style="color-interpolation-filters:sRGB"
         inkscape:label="Blur"
         id="filter5291">
         <feGaussianBlur
            stdDeviation="2 2"
            result="blur"
            id="feGaussianBlur5289" />
      </filter>
      <filter
         style="color-interpolation-filters:sRGB"
         inkscape:label="Drop Shadow"
         id="filter5169-6">
         <feFlood
            flood-opacity="0.498039"
            flood-color="rgb(0,0,0)"
            result="flood"
            id="feFlood5159-2" />
         <feComposite
            in="flood"
            in2="SourceGraphic"
            operator="in"
            result="composite1"
            id="feComposite5161-9" />
         <feGaussianBlur
            in="composite1"
            stdDeviation="0.5"
            result="blur"
            id="feGaussianBlur5163-4" />
         <feOffset
            dx="0"
            dy="1.6"
            result="offset"
            id="feOffset5165-3" />
         <feComposite
            in="SourceGraphic"
            in2="offset"
            operator="over"
            result="composite2"
            id="feComposite5167-7" />
      </filter>
      <filter
         style="color-interpolation-filters:sRGB"
         inkscape:label="Blur"
         id="filter5291-4">
         <feGaussianBlur
            stdDeviation="2 2"
            result="blur"
            id="feGaussianBlur5289-3" />
      </filter>
      <style
         id="style63">
         .cls-1{fill:none;}.cls-2{isolation:isolate;}.cls-3{clip-path:url(#clip-path);}.cls-4{clip-path:url(#clip-path-3);}.cls-5{fill:url(#linear-gradient);}.cls-6{opacity:0.3;mix-blend-mode:multiply;}.cls-7{fill:url(#linear-gradient-2);}.cls-8{fill:#00a9ea;}.cls-9{fill:#fff;}.cls-10{clip-path:url(#clip-path-8);}.cls-11{fill:url(#linear-gradient-3);}</style>
      <clipPath
         id="clip-path"
         transform="translate(108 108)">
         <rect
            class="cls-1"
            width="216"
            height="216"
            id="rect65" />
      </clipPath>
      <clipPath
         id="clip-path-3"
         transform="translate(108 108)">
         <rect
            class="cls-1"
            width="216"
            height="216"
            id="rect68" />
      </clipPath>
      <linearGradient
         id="linear-gradient"
         x1="78.27"
         y1="77.33"
         x2="79.03"
         y2="77.33"
         gradientTransform="matrix(0,296.41,296.41,0,-22814.43,-23167.54)"
         gradientUnits="userSpaceOnUse">
         <stop
            offset="0"
            stop-color="#268bd5"
            id="stop71" />
         <stop
            offset="0"
            stop-color="#268bd5"
            id="stop73" />
         <stop
            offset="1"
            stop-color="#00a9ea"
            id="stop75" />
      </linearGradient>
      <linearGradient
         id="linear-gradient-2"
         x1="78.23"
         y1="77.49"
         x2="78.99"
         y2="77.49"
         gradientTransform="matrix(0,394.54,394.54,0,-30465.8,-30905.18)"
         gradientUnits="userSpaceOnUse">
         <stop
            offset="0"
            stop-color="#00003f"
            id="stop78" />
         <stop
            offset="0.45"
            stop-color="#fff"
            id="stop80" />
         <stop
            offset="0.55"
            stop-color="#dedcdc"
            id="stop82" />
         <stop
            offset="1"
            stop-color="#00003f"
            id="stop84" />
      </linearGradient>
      <clipPath
         id="clip-path-8"
         transform="translate(108 108)">
         <path
            class="cls-1"
            d="M118.73,93.88h14.19a6.6,6.6,0,0,1,0,13.19H118.73Zm-6.3-5.73v40.14h6.3V112.81h12.76l8.6,15.48H147l-9.18-16.06s8-2.86,8-11.75c0-6.88-5.45-12.33-12.9-12.33ZM21.62,108.22c0,11.47,9.18,20.64,21.22,20.64a21.41,21.41,0,0,0,16.63-8l-4-4a16,16,0,0,1-12.61,6.31,14.91,14.91,0,0,1,0-29.82,15.29,15.29,0,0,1,12.33,6l4-4a20.68,20.68,0,0,0-16.34-7.74c-12,0-21.22,9.17-21.22,20.64m48,0a14.91,14.91,0,1,1,14.91,14.91,14.8,14.8,0,0,1-14.91-14.91m-6.31,0c0,11.47,9.18,20.64,21.22,20.64s21.22-9.17,21.22-20.64S96.56,87.58,84.52,87.58,63.3,96.75,63.3,108.22M173.2,93.31a14.78,14.78,0,0,1,14.66,12.17H158.54A14.78,14.78,0,0,1,173.2,93.31M152,108.22c0,11.47,9.18,20.64,21.22,20.64,8.84,0,14.37-3.46,18.11-7.88l-4.88-3.74c-3.45,4.31-7.79,6-13.23,6a14.87,14.87,0,0,1-14.63-12.13h35.65a22.7,22.7,0,0,0,.2-2.88c0-11.47-9.18-20.64-21.22-20.64S152,96.75,152,108.22"
            id="path87" />
      </clipPath>
      <linearGradient
         id="linear-gradient-3"
         x1="77.18"
         y1="78.66"
         x2="77.94"
         y2="78.66"
         gradientTransform="matrix(0,-168.08,-168.08,0,13437.91,13295.87)"
         gradientUnits="userSpaceOnUse">
         <stop
            offset="0"
            stop-color="#00a9ea"
            id="stop90" />
         <stop
            offset="1"
            stop-color="#fff"
            id="stop92" />
      </linearGradient>
      <linearGradient
         gradientUnits="userSpaceOnUse"
         gradientTransform="matrix(0,-44.471166,-44.471166,0,3685.2028,3571.3569)"
         y2="78.660004"
         x2="77.940002"
         y1="78.660004"
         x1="77.18"
         id="linear-gradient-3-6">
         <stop
            id="stop90-8"
            stop-color="#00a9ea"
            offset="0" />
         <stop
            id="stop92-1"
            stop-color="#fff"
            offset="1" />
      </linearGradient>
      <filter
         id="filter5169-0"
         inkscape:label="Drop Shadow"
         style="color-interpolation-filters:sRGB">
         <feFlood
            id="feFlood5159-4"
            result="flood"
            flood-color="rgb(0,0,0)"
            flood-opacity="0.498039" />
         <feComposite
            id="feComposite5161-94"
            result="composite1"
            operator="in"
            in2="SourceGraphic"
            in="flood" />
         <feGaussianBlur
            id="feGaussianBlur5163-9"
            result="blur"
            stdDeviation="0.5"
            in="composite1" />
         <feOffset
            id="feOffset5165-2"
            result="offset"
            dy="1.6"
            dx="0" />
         <feComposite
            id="feComposite5167-8"
            result="composite2"
            operator="over"
            in2="offset"
            in="SourceGraphic" />
      </filter>
      <filter
         id="filter5291-9"
         inkscape:label="Blur"
         style="color-interpolation-filters:sRGB">
         <feGaussianBlur
            id="feGaussianBlur5289-1"
            result="blur"
            stdDeviation="2 2" />
      </filter>
      <filter
         id="filter5169-6-8"
         inkscape:label="Drop Shadow"
         style="color-interpolation-filters:sRGB">
         <feFlood
            id="feFlood5159-2-9"
            result="flood"
            flood-color="rgb(0,0,0)"
            flood-opacity="0.498039" />
         <feComposite
            id="feComposite5161-9-6"
            result="composite1"
            operator="in"
            in2="SourceGraphic"
            in="flood" />
         <feGaussianBlur
            id="feGaussianBlur5163-4-5"
            result="blur"
            stdDeviation="0.5"
            in="composite1" />
         <feOffset
            id="feOffset5165-3-3"
            result="offset"
            dy="1.6"
            dx="0" />
         <feComposite
            id="feComposite5167-7-9"
            result="composite2"
            operator="over"
            in2="offset"
            in="SourceGraphic" />
      </filter>
      <filter
         id="filter5291-4-3"
         inkscape:label="Blur"
         style="color-interpolation-filters:sRGB">
         <feGaussianBlur
            id="feGaussianBlur5289-3-3"
            result="blur"
            stdDeviation="2 2" />
      </filter>
      <filter
         style="color-interpolation-filters:sRGB"
         inkscape:label="Drop Shadow"
         id="filter5169-2">
         <feFlood
            flood-opacity="0.498039"
            flood-color="rgb(0,0,0)"
            result="flood"
            id="feFlood5159-48" />
         <feComposite
            in="flood"
            in2="SourceGraphic"
            operator="in"
            result="composite1"
            id="feComposite5161-93" />
         <feGaussianBlur
            in="composite1"
            stdDeviation="0.5"
            result="blur"
            id="feGaussianBlur5163-3" />
         <feOffset
            dx="0"
            dy="1.6"
            result="offset"
            id="feOffset5165-9" />
         <feComposite
            in="SourceGraphic"
            in2="offset"
            operator="over"
            result="composite2"
            id="feComposite5167-0" />
      </filter>
      <filter
         style="color-interpolation-filters:sRGB"
         inkscape:label="Blur"
         id="filter5291-2">
         <feGaussianBlur
            stdDeviation="2 2"
            result="blur"
            id="feGaussianBlur5289-0" />
      </filter>
      <filter
         style="color-interpolation-filters:sRGB"
         inkscape:label="Drop Shadow"
         id="filter5169-6-3">
         <feFlood
            flood-opacity="0.498039"
            flood-color="rgb(0,0,0)"
            result="flood"
            id="feFlood5159-2-0" />
         <feComposite
            in="flood"
            in2="SourceGraphic"
            operator="in"
            result="composite1"
            id="feComposite5161-9-9" />
         <feGaussianBlur
            in="composite1"
            stdDeviation="0.5"
            result="blur"
            id="feGaussianBlur5163-4-8" />
         <feOffset
            dx="0"
            dy="1.6"
            result="offset"
            id="feOffset5165-3-9" />
         <feComposite
            in="SourceGraphic"
            in2="offset"
            operator="over"
            result="composite2"
            id="feComposite5167-7-5" />
      </filter>
      <filter
         style="color-interpolation-filters:sRGB"
         inkscape:label="Blur"
         id="filter5291-4-4">
         <feGaussianBlur
            stdDeviation="2 2"
            result="blur"
            id="feGaussianBlur5289-3-7" />
      </filter>
      <linearGradient
         inkscape:collect="always"
         id="linearGradient939">
         <stop
            style="stop-color:#ffffff;stop-opacity:1"
            offset="0"
            id="stop935" />
         <stop
            style="stop-color:#afd5f4;stop-opacity:1"
            offset="1"
            id="stop937" />
      </linearGradient>
      <linearGradient
         y2="-1049.5558"
         x2="545.05865"
         y1="-1107.0771"
         x1="545.05865"
         gradientTransform="matrix(0.99853106,0,0,0.93730359,-435.02647,1154.1875)"
         gradientUnits="userSpaceOnUse"
         id="linearGradient6112"
         xlink:href="#linearGradient1671"
         inkscape:collect="always" />
      <linearGradient
         y2="-1049.5558"
         x2="545.05865"
         y1="-1107.0771"
         x1="545.05865"
         gradientTransform="matrix(0.96505455,0,0,0.9560358,-417.25981,1173.8624)"
         gradientUnits="userSpaceOnUse"
         id="linearGradient6110"
         xlink:href="#linearGradient939"
         inkscape:collect="always" />
      <linearGradient
         y2="-1049.5558"
         x2="545.05865"
         y1="-1107.0771"
         x1="545.05865"
         gradientTransform="matrix(0.97047295,0,0,0.93730359,-423.01973,1154.1875)"
         gradientUnits="userSpaceOnUse"
         id="linearGradient6108"
         xlink:href="#linearGradient939"
         inkscape:collect="always" />
      <filter
         id="filter5169-1"
         inkscape:label="Drop Shadow"
         style="color-interpolation-filters:sRGB">
         <feFlood
            id="feFlood5159-5"
            result="flood"
            flood-color="rgb(0,0,0)"
            flood-opacity="0.498039" />
         <feComposite
            id="feComposite5161-8"
            result="composite1"
            operator="in"
            in2="SourceGraphic"
            in="flood" />
         <feGaussianBlur
            id="feGaussianBlur5163-6"
            result="blur"
            stdDeviation="0.5"
            in="composite1" />
         <feOffset
            id="feOffset5165-5"
            result="offset"
            dy="1.6"
            dx="0" />
         <feComposite
            id="feComposite5167-6"
            result="composite2"
            operator="over"
            in2="offset"
            in="SourceGraphic" />
      </filter>
      <filter
         id="filter5291-3"
         inkscape:label="Blur"
         style="color-interpolation-filters:sRGB">
         <feGaussianBlur
            id="feGaussianBlur5289-34"
            result="blur"
            stdDeviation="2 2" />
      </filter>
      <filter
         id="filter5169-6-0"
         inkscape:label="Drop Shadow"
         style="color-interpolation-filters:sRGB">
         <feFlood
            id="feFlood5159-2-7"
            result="flood"
            flood-color="rgb(0,0,0)"
            flood-opacity="0.498039" />
         <feComposite
            id="feComposite5161-9-7"
            result="composite1"
            operator="in"
            in2="SourceGraphic"
            in="flood" />
         <feGaussianBlur
            id="feGaussianBlur5163-4-6"
            result="blur"
            stdDeviation="0.5"
            in="composite1" />
         <feOffset
            id="feOffset5165-3-0"
            result="offset"
            dy="1.6"
            dx="0" />
         <feComposite
            id="feComposite5167-7-54"
            result="composite2"
            operator="over"
            in2="offset"
            in="SourceGraphic" />
      </filter>
      <filter
         id="filter5291-4-41"
         inkscape:label="Blur"
         style="color-interpolation-filters:sRGB">
         <feGaussianBlur
            id="feGaussianBlur5289-3-0"
            result="blur"
            stdDeviation="2 2" />
      </filter>
      <linearGradient
         gradientTransform="matrix(0.2645748,0,0,0.2645748,73.973807,33.760724)"
         gradientUnits="userSpaceOnUse"
         y2="945.57788"
         x2="650.95929"
         y1="-112.95508"
         x1="-407.57227"
         id="linearGradient1145"
         xlink:href="#linearGradient1665"
         inkscape:collect="always" />
      <linearGradient
         y2="945.57788"
         x2="650.95929"
         y1="-112.95508"
         x1="-407.57227"
         gradientTransform="matrix(0.2645748,0,0,0.2645748,73.973807,33.760724)"
         gradientUnits="userSpaceOnUse"
         id="linearGradient804"
         xlink:href="#linearGradient1665"
         inkscape:collect="always" />
      <linearGradient
         y2="-1049.5558"
         x2="545.05865"
         y1="-1107.0771"
         x1="545.05865"
         gradientTransform="matrix(0.97047295,0,0,0.93730359,-423.01973,1154.1875)"
         gradientUnits="userSpaceOnUse"
         id="linearGradient806"
         xlink:href="#linearGradient939"
         inkscape:collect="always" />
      <filter
         style="color-interpolation-filters:sRGB"
         inkscape:label="Drop Shadow"
         id="filter5169-67">
         <feFlood
            flood-opacity="0.498039"
            flood-color="rgb(0,0,0)"
            result="flood"
            id="feFlood5159-9" />
         <feComposite
            in="flood"
            in2="SourceGraphic"
            operator="in"
            result="composite1"
            id="feComposite5161-2" />
         <feGaussianBlur
            in="composite1"
            stdDeviation="0.5"
            result="blur"
            id="feGaussianBlur5163-5" />
         <feOffset
            dx="0"
            dy="1.6"
            result="offset"
            id="feOffset5165-6" />
         <feComposite
            in="SourceGraphic"
            in2="offset"
            operator="over"
            result="composite2"
            id="feComposite5167-5" />
      </filter>
      <filter
         style="color-interpolation-filters:sRGB"
         inkscape:label="Blur"
         id="filter5291-91">
         <feGaussianBlur
            stdDeviation="2 2"
            result="blur"
            id="feGaussianBlur5289-8" />
      </filter>
      <filter
         style="color-interpolation-filters:sRGB"
         inkscape:label="Drop Shadow"
         id="filter5169-6-9">
         <feFlood
            flood-opacity="0.498039"
            flood-color="rgb(0,0,0)"
            result="flood"
            id="feFlood5159-2-76" />
         <feComposite
            in="flood"
            in2="SourceGraphic"
            operator="in"
            result="composite1"
            id="feComposite5161-9-3" />
         <feGaussianBlur
            in="composite1"
            stdDeviation="0.5"
            result="blur"
            id="feGaussianBlur5163-4-1" />
         <feOffset
            dx="0"
            dy="1.6"
            result="offset"
            id="feOffset5165-3-4" />
         <feComposite
            in="SourceGraphic"
            in2="offset"
            operator="over"
            result="composite2"
            id="feComposite5167-7-3" />
      </filter>
      <filter
         style="color-interpolation-filters:sRGB"
         inkscape:label="Blur"
         id="filter5291-4-35">
         <feGaussianBlur
            stdDeviation="2 2"
            result="blur"
            id="feGaussianBlur5289-3-6" />
      </filter>
      <style
         id="style63-7">
         .cls-1{fill:none;}.cls-2{isolation:isolate;}.cls-3{clip-path:url(#clip-path);}.cls-4{clip-path:url(#clip-path-3);}.cls-5{fill:url(#linear-gradient);}.cls-6{opacity:0.3;mix-blend-mode:multiply;}.cls-7{fill:url(#linear-gradient-2);}.cls-8{fill:#00a9ea;}.cls-9{fill:#fff;}.cls-10{clip-path:url(#clip-path-8);}.cls-11{fill:url(#linear-gradient-3);}</style>
      <clipPath
         id="clip-path-82"
         transform="translate(108 108)">
         <rect
            class="cls-1"
            width="216"
            height="216"
            id="rect65-1" />
      </clipPath>
      <clipPath
         id="clip-path-3-9"
         transform="translate(108 108)">
         <rect
            class="cls-1"
            width="216"
            height="216"
            id="rect68-1" />
      </clipPath>
      <linearGradient
         id="linear-gradient-4"
         x1="78.27"
         y1="77.33"
         x2="79.03"
         y2="77.33"
         gradientTransform="matrix(0,296.41,296.41,0,-22814.43,-23167.54)"
         gradientUnits="userSpaceOnUse">
         <stop
            offset="0"
            stop-color="#268bd5"
            id="stop71-5" />
         <stop
            offset="0"
            stop-color="#268bd5"
            id="stop73-3" />
         <stop
            offset="1"
            stop-color="#00a9ea"
            id="stop75-9" />
      </linearGradient>
      <linearGradient
         id="linear-gradient-2-8"
         x1="78.23"
         y1="77.49"
         x2="78.99"
         y2="77.49"
         gradientTransform="matrix(0,394.54,394.54,0,-30465.8,-30905.18)"
         gradientUnits="userSpaceOnUse">
         <stop
            offset="0"
            stop-color="#00003f"
            id="stop78-0" />
         <stop
            offset="0.45"
            stop-color="#fff"
            id="stop80-1" />
         <stop
            offset="0.55"
            stop-color="#dedcdc"
            id="stop82-2" />
         <stop
            offset="1"
            stop-color="#00003f"
            id="stop84-9" />
      </linearGradient>
      <clipPath
         id="clip-path-8-8"
         transform="translate(108 108)">
         <path
            class="cls-1"
            d="M118.73,93.88h14.19a6.6,6.6,0,0,1,0,13.19H118.73Zm-6.3-5.73v40.14h6.3V112.81h12.76l8.6,15.48H147l-9.18-16.06s8-2.86,8-11.75c0-6.88-5.45-12.33-12.9-12.33ZM21.62,108.22c0,11.47,9.18,20.64,21.22,20.64a21.41,21.41,0,0,0,16.63-8l-4-4a16,16,0,0,1-12.61,6.31,14.91,14.91,0,0,1,0-29.82,15.29,15.29,0,0,1,12.33,6l4-4a20.68,20.68,0,0,0-16.34-7.74c-12,0-21.22,9.17-21.22,20.64m48,0a14.91,14.91,0,1,1,14.91,14.91,14.8,14.8,0,0,1-14.91-14.91m-6.31,0c0,11.47,9.18,20.64,21.22,20.64s21.22-9.17,21.22-20.64S96.56,87.58,84.52,87.58,63.3,96.75,63.3,108.22M173.2,93.31a14.78,14.78,0,0,1,14.66,12.17H158.54A14.78,14.78,0,0,1,173.2,93.31M152,108.22c0,11.47,9.18,20.64,21.22,20.64,8.84,0,14.37-3.46,18.11-7.88l-4.88-3.74c-3.45,4.31-7.79,6-13.23,6a14.87,14.87,0,0,1-14.63-12.13h35.65a22.7,22.7,0,0,0,.2-2.88c0-11.47-9.18-20.64-21.22-20.64S152,96.75,152,108.22"
            id="path87-2" />
      </clipPath>
      <filter
         id="filter5169-0-4"
         inkscape:label="Drop Shadow"
         style="color-interpolation-filters:sRGB">
         <feFlood
            id="feFlood5159-4-2"
            result="flood"
            flood-color="rgb(0,0,0)"
            flood-opacity="0.498039" />
         <feComposite
            id="feComposite5161-94-9"
            result="composite1"
            operator="in"
            in2="SourceGraphic"
            in="flood" />
         <feGaussianBlur
            id="feGaussianBlur5163-9-1"
            result="blur"
            stdDeviation="0.5"
            in="composite1" />
         <feOffset
            id="feOffset5165-2-8"
            result="offset"
            dy="1.6"
            dx="0" />
         <feComposite
            id="feComposite5167-8-9"
            result="composite2"
            operator="over"
            in2="offset"
            in="SourceGraphic" />
      </filter>
      <filter
         id="filter5291-9-9"
         inkscape:label="Blur"
         style="color-interpolation-filters:sRGB">
         <feGaussianBlur
            id="feGaussianBlur5289-1-3"
            result="blur"
            stdDeviation="2 2" />
      </filter>
      <filter
         id="filter5169-6-8-5"
         inkscape:label="Drop Shadow"
         style="color-interpolation-filters:sRGB">
         <feFlood
            id="feFlood5159-2-9-0"
            result="flood"
            flood-color="rgb(0,0,0)"
            flood-opacity="0.498039" />
         <feComposite
            id="feComposite5161-9-6-7"
            result="composite1"
            operator="in"
            in2="SourceGraphic"
            in="flood" />
         <feGaussianBlur
            id="feGaussianBlur5163-4-5-0"
            result="blur"
            stdDeviation="0.5"
            in="composite1" />
         <feOffset
            id="feOffset5165-3-3-5"
            result="offset"
            dy="1.6"
            dx="0" />
         <feComposite
            id="feComposite5167-7-9-9"
            result="composite2"
            operator="over"
            in2="offset"
            in="SourceGraphic" />
      </filter>
      <filter
         id="filter5291-4-3-2"
         inkscape:label="Blur"
         style="color-interpolation-filters:sRGB">
         <feGaussianBlur
            id="feGaussianBlur5289-3-3-6"
            result="blur"
            stdDeviation="2 2" />
      </filter>
      <filter
         style="color-interpolation-filters:sRGB"
         inkscape:label="Drop Shadow"
         id="filter5169-2-3">
         <feFlood
            flood-opacity="0.498039"
            flood-color="rgb(0,0,0)"
            result="flood"
            id="feFlood5159-48-3" />
         <feComposite
            in="flood"
            in2="SourceGraphic"
            operator="in"
            result="composite1"
            id="feComposite5161-93-7" />
         <feGaussianBlur
            in="composite1"
            stdDeviation="0.5"
            result="blur"
            id="feGaussianBlur5163-3-8" />
         <feOffset
            dx="0"
            dy="1.6"
            result="offset"
            id="feOffset5165-9-7" />
         <feComposite
            in="SourceGraphic"
            in2="offset"
            operator="over"
            result="composite2"
            id="feComposite5167-0-3" />
      </filter>
      <filter
         style="color-interpolation-filters:sRGB"
         inkscape:label="Blur"
         id="filter5291-2-9">
         <feGaussianBlur
            stdDeviation="2 2"
            result="blur"
            id="feGaussianBlur5289-0-4" />
      </filter>
      <filter
         style="color-interpolation-filters:sRGB"
         inkscape:label="Drop Shadow"
         id="filter5169-6-3-5">
         <feFlood
            flood-opacity="0.498039"
            flood-color="rgb(0,0,0)"
            result="flood"
            id="feFlood5159-2-0-3" />
         <feComposite
            in="flood"
            in2="SourceGraphic"
            operator="in"
            result="composite1"
            id="feComposite5161-9-9-5" />
         <feGaussianBlur
            in="composite1"
            stdDeviation="0.5"
            result="blur"
            id="feGaussianBlur5163-4-8-6" />
         <feOffset
            dx="0"
            dy="1.6"
            result="offset"
            id="feOffset5165-3-9-7" />
         <feComposite
            in="SourceGraphic"
            in2="offset"
            operator="over"
            result="composite2"
            id="feComposite5167-7-5-7" />
      </filter>
      <filter
         style="color-interpolation-filters:sRGB"
         inkscape:label="Blur"
         id="filter5291-4-4-4">
         <feGaussianBlur
            stdDeviation="2 2"
            result="blur"
            id="feGaussianBlur5289-3-7-9" />
      </filter>
   </defs>
   <sodipodi:namedview
      id="base"
      pagecolor="#ffffff"
      bordercolor="#666666"
      borderopacity="1.0"
      inkscape:pageopacity="0.0"
      inkscape:pageshadow="2"
      inkscape:zoom="0.29698485"
      inkscape:cx="607.13383"
      inkscape:cy="725.29441"
      inkscape:document-units="mm"
      inkscape:current-layer="layer1"
      showgrid="false"
      fit-margin-top="0"
      fit-margin-left="0"
      fit-margin-right="0"
      fit-margin-bottom="0"
      inkscape:window-width="1366"
      inkscape:window-height="705"
      inkscape:window-x="-8"
      inkscape:window-y="-8"
      inkscape:window-maximized="1"
      inkscape:document-rotation="0"
      showguides="false" />
   <metadata
      id="metadata5">
      <rdf:RDF>
         <cc:Work
            rdf:about="">
            <dc:format>image/svg+xml</dc:format>
            <dc:type
               rdf:resource="http://purl.org/dc/dcmitype/StillImage" />
            <dc:title></dc:title>
         </cc:Work>
      </rdf:RDF>
   </metadata>
   <g
      inkscape:label="Layer 1"
      inkscape:groupmode="layer"
      id="layer1"
      transform="translate(33.859552,-3.8756701)">
      <g
         id="g1966">
         <path
            inkscape:connector-curvature="0"
            id="rect1140"
            d="M -33.859545,3.8756571 H 246.21046 V 283.94567 H -33.859545 Z"
            style="fill:#1c57bb;fill-opacity:1;stroke:none;stroke-width:6.6;stroke-linecap:round;stroke-linejoin:round;stroke-miterlimit:4;stroke-dasharray:none;stroke-opacity:1;paint-order:normal" />
         <path
            inkscape:connector-curvature="0"
            id="path1149"
            d="M -33.859545,3.8756571 V 219.38682 H 181.6511 V 3.8756571 Z"
            style="fill:url(#linearGradient804);fill-opacity:1;stroke:none;stroke-width:11.9287;stroke-linecap:round;stroke-linejoin:round;stroke-miterlimit:4;stroke-dasharray:none;stroke-opacity:1;paint-order:normal" />
         <path
            inkscape:connector-curvature="0"
            id="rect4"
            d="m -2.5789744,28.91538 h 6.87288 v 6.872886 h -6.87288 z"
            style="fill:#ffffff;fill-opacity:1;stroke-width:0.244587" />
         <path
            inkscape:connector-curvature="0"
            id="path1090"
            d="M 4.1227056,64.72287 V 39.946239 h -6.53047 v 24.752173 h 6.53047 z"
            style="fill:#ffffff;stroke-width:0.244587" />
         <path
            inkscape:connector-curvature="0"
            id="path1088"
            d="m 47.365626,64.967457 v -6.06575 c -0.95389,0 -1.76102,-0.04892 -2.34803,-0.146752 -0.68484,-0.09783 -1.19848,-0.342421 -1.5409,-0.684843 -0.34242,-0.342421 -0.56255,-0.831594 -0.68484,-1.491979 -0.0978,-0.611466 -0.14675,-1.418602 -0.14675,-2.396949 v -8.63391 h 4.72052 v -5.601035 h -4.72052 v -9.636714 h -6.53047 V 54.25456 c 0,2.030069 0.17121,3.742176 0.51364,5.111862 0.34242,1.345226 0.92942,2.445867 1.73656,3.277462 0.80714,0.831594 1.88332,1.418602 3.17963,1.785482 1.32077,0.36688 2.98395,0.538091 4.96511,0.538091 z"
            style="fill:#ffffff;stroke-width:0.244587" />
         <path
            inkscape:connector-curvature="0"
            id="path1086"
            d="M 84.738476,64.72287 V 28.401748 h -6.53047 V 64.72287 Z"
            style="fill:#ffffff;stroke-width:0.244587" />
         <path
            inkscape:connector-curvature="0"
            id="path1084"
            d="m 29.828766,42.392106 c -1.80995,-1.956693 -4.35365,-2.93504 -7.58219,-2.93504 -1.56536,0 -3.00842,0.317963 -4.28027,0.953889 -1.29631,0.635925 -2.37249,1.516437 -3.253,2.641536 l -0.34242,0.464714 V 43.101408 39.946239 H 7.9382556 V 64.698412 H 14.419796 V 51.515189 52.42016 c 0,-0.146751 0,-0.293504 0,-0.440255 0.0734,-2.323574 0.63593,-4.035681 1.71211,-5.136321 1.14956,-1.174016 2.5437,-1.761024 4.13352,-1.761024 1.88331,0 3.32638,0.587008 4.28026,1.712106 0.92943,1.125099 1.41861,2.714913 1.41861,4.744982 v 0 0.07338 c 0,0 0,0 0,0 v 0 13.085388 h 6.57938 v -14.03928 c 0.0245,-3.522048 -0.90497,-6.310337 -2.71491,-8.26703 z"
            style="fill:#ffffff;stroke-width:0.244587" />
         <path
            inkscape:connector-curvature="0"
            d="m 55.436986,50.023211 c 0,-1.809942 2.07899,-4.96511 6.55492,-4.989569 4.47594,0 6.57939,3.155169 6.57939,4.96511 z m 19.39572,2.274656 c 0,-1.785482 -0.31796,-3.448672 -0.92942,-5.014027 -0.63593,-1.540896 -1.51644,-2.910582 -2.61708,-4.084598 -1.1251,-1.174016 -2.47033,-2.078987 -4.03568,-2.73937 -1.56536,-0.660384 -3.30192,-0.978347 -5.18524,-0.978347 -1.78548,0 -3.47313,0.342422 -5.03849,1.002805 -1.56535,0.684843 -2.93504,1.589814 -4.08459,2.739371 -1.14956,1.149557 -2.07899,2.519243 -2.73937,4.084597 -0.68485,1.565355 -1.00281,3.253003 -1.00281,5.038486 0,1.785483 0.31796,3.473131 0.95389,5.038486 0.63592,1.565354 1.54089,2.93504 2.66599,4.084598 1.1251,1.149557 2.51925,2.078986 4.13352,2.73937 1.61427,0.684843 3.39975,1.027264 5.30753,1.027264 5.52766,0 8.95187,-2.519243 11.0064,-4.867275 l -4.69606,-3.570966 c -0.97835,1.174016 -3.32638,2.76383 -6.26142,2.76383 -1.8344,0 -3.35084,-0.415798 -4.5004,-1.271851 -1.14956,-0.831594 -1.93223,-2.005611 -2.34803,-3.448672 l -0.0734,-0.220127 h 19.44464 z"
            style="fill:#ffffff;stroke-width:0.244587"
            id="path1080" />
         <path
            inkscape:connector-curvature="0"
            d="m 95.109756,62.487625 c -0.14727,0.36832 -0.36831,0.699808 -0.62615,0.957632 -0.25782,0.257825 -0.5893,0.478817 -0.95762,0.626146 -0.36833,0.147328 -0.73664,0.220991 -1.17863,0.220991 -0.40515,0 -0.81031,-0.07366 -1.17863,-0.220991 -0.36831,-0.147329 -0.6998,-0.368321 -0.95763,-0.626146 -0.25782,-0.257824 -0.47881,-0.589312 -0.62615,-0.957632 -0.14727,-0.368322 -0.22099,-0.736642 -0.22099,-1.178627 0,-0.405152 0.0736,-0.810304 0.22099,-1.178625 0.14728,-0.36832 0.36833,-0.699809 0.62615,-0.957633 0.25783,-0.257824 0.58932,-0.478817 0.95763,-0.626145 0.36832,-0.147328 0.73665,-0.220992 1.17863,-0.220992 0.40516,0 0.8103,0.07366 1.17863,0.220992 0.36832,0.147328 0.6998,0.368321 0.95762,0.626145 0.25784,0.257824 0.47883,0.589313 0.62615,0.957633 0.14728,0.368321 0.22099,0.736641 0.22099,1.178625 0,0.441985 -0.0736,0.810305 -0.22099,1.178627 z m 0.58932,-2.578245 c -0.18416,-0.441984 -0.44198,-0.810304 -0.77347,-1.141792 -0.3315,-0.331488 -0.69982,-0.589314 -1.1418,-0.773473 -0.44198,-0.184161 -0.92081,-0.294657 -1.39962,-0.294657 -0.51565,0 -0.95764,0.110496 -1.39962,0.294657 -0.44198,0.184159 -0.8103,0.441985 -1.14179,0.773473 -0.33149,0.331488 -0.58932,0.699808 -0.77347,1.141792 -0.18416,0.441985 -0.29466,0.920802 -0.29466,1.399618 0,0.51565 0.11053,0.957634 0.29466,1.399619 0.18415,0.441984 0.44198,0.810304 0.77347,1.141793 0.33149,0.331489 0.69981,0.589313 1.14179,0.773474 0.44198,0.184159 0.92081,0.294655 1.39962,0.294655 0.51565,0 0.95764,-0.110496 1.39962,-0.294655 0.44198,-0.184161 0.8103,-0.441985 1.1418,-0.773474 0.33149,-0.331489 0.58931,-0.699809 0.77347,-1.141793 0.18415,-0.441985 0.29465,-0.920802 0.29465,-1.399619 0,-0.478816 -0.11053,-0.957633 -0.29465,-1.399618 z"
            style="fill:#ffffff;stroke-width:0.36832"
            id="path1076" />
         <path
            inkscape:connector-curvature="0"
            d="m 92.642006,61.014343 c -0.11053,0 -0.22098,0 -0.36832,0 h -0.55248 v -1.178627 h 0.55248 c 0.11053,0 0.221,0 0.36832,0 0.11054,0 0.22099,0.03683 0.3315,0.07367 0.11053,0.03683 0.18415,0.110496 0.22099,0.184161 0.0736,0.07366 0.0736,0.184159 0.0736,0.331488 0,0.147329 -0.0369,0.257825 -0.0736,0.331488 -0.0736,0.07366 -0.14728,0.147329 -0.22099,0.184161 -0.11054,0.03683 -0.22099,0.07366 -0.3315,0.07366 z m 0.40516,0.626144 c 0.29466,-0.03683 0.51565,-0.147328 0.69981,-0.331489 0.18415,-0.184159 0.29465,-0.441984 0.29465,-0.810304 0,-0.405153 -0.11053,-0.699809 -0.36832,-0.920802 -0.22099,-0.220991 -0.62614,-0.331488 -1.10496,-0.331488 h -1.62061 v 4.162021 h 0.77347 v -1.694274 h 0.55248 l 1.03131,1.694274 h 0.8103 z"
            style="fill:#ffffff;stroke-width:0.36832"
            id="path6" />
         <path
            inkscape:connector-curvature="0"
            id="rect1134"
            d="m 181.65265,219.38785 v 64.5578 h 64.55781 v -64.5578 z"
            style="fill:url(#linearGradient1145);fill-opacity:1.0;stroke:none;stroke-width:11.9287;stroke-linecap:round;stroke-linejoin:round;stroke-miterlimit:4;stroke-dasharray:none;stroke-opacity:1;paint-order:normal" />
         <path
            d="m 197.74153,235.54892 h 6.49116 v 6.94316 h -6.49116 z m 0,11.34528 h 6.49116 v 20.95754 h -6.49116 z"
            style="fill:#ffffff;fill-rule:evenodd;stroke-width:0"
            id="rect73-5" />
         <path
            id="rect73-5-1"
            style="fill:#ffffff;fill-rule:evenodd;stroke-width:0"
            d="m 220.1264,234.81035 c -6.33755,0 -11.57087,5.10989 -11.57087,11.37708 -1e-5,6.18931 5.10472,11.24604 11.33575,11.37088 l -5.60431,10.29343 h 7.40833 l 8.73177,-16.11219 v 0 c 0.94893,-1.64713 1.26968,-3.53222 1.26968,-5.55212 0,-6.26719 -5.2328,-11.37708 -11.57035,-11.37708 z m 0,5.78104 c 3.22199,0 5.73867,2.48879 5.73867,5.59604 0,3.10726 -2.51668,5.59552 -5.73867,5.59552 -3.22199,0 -5.73918,-2.48826 -5.73918,-5.59552 0,-3.10725 2.51719,-5.59604 5.73918,-5.59604 z"
            sodipodi:nodetypes="sscccccsssssss" />
         <g
            id="g110"
            transform="translate(6.8481446e-6,-1.2998734e-5)">
            <path
               inkscape:connector-curvature="0"
               id="path1096"
               style="font-style:normal;font-variant:normal;font-weight:normal;font-stretch:normal;font-size:6.00061px;line-height:1.25;font-family:'TT Norms';-inkscape-font-specification:'TT Norms';letter-spacing:0px;word-spacing:0px;fill:#ffffff;fill-opacity:1;stroke:none;stroke-width:0.150015"
               d="m 214.57691,118.16589 v 0.42192 h 1.32142 v 3.77968 h 0.44829 v -3.77968 h 1.32142 v -0.42192 z" />
            <path
               inkscape:connector-curvature="0"
               id="path1098"
               style="font-style:normal;font-variant:normal;font-weight:normal;font-stretch:normal;font-size:6.00061px;line-height:1.25;font-family:'TT Norms';-inkscape-font-specification:'TT Norms';letter-spacing:0px;word-spacing:0px;fill:#ffffff;fill-opacity:1;stroke:none;stroke-width:0.150015"
               d="m 222.2271,118.9482 v 3.41929 h 0.44828 v -4.2016 h -0.38968 l -1.74041,2.28246 -1.74041,-2.28246 h -0.38969 v 4.2016 h 0.45121 v -3.41929 l 1.67889,2.218 z" />
         </g>
         <path
            d="m 4.5177956,144.2791 q 0,7.8974 4.95113,13.1865 5.0261504,5.2891 12.5278704,5.2891 4.95113,0 8.85202,-2.2461 3.90089,-2.3184 6.67653,-6.8105 l 7.12662,4.1297 q -3.30074,6.0862 -9.37714,9.56391 -6.00137,3.4778 -13.5781,3.4778 -11.7777004,0 -19.3544204,-7.46271 -7.50173,-7.4627 -7.50173,-18.9828 0,-11.3027 7.87681,-18.9103 7.8768004,-7.68 19.6544904,-7.68 7.57674,0 13.20302,3.3329 5.7013,3.2604 8.92705,9.4189 l -7.4267,4.4921 q -2.77564,-4.7095 -6.37646,-6.8831 -3.52581,-2.246 -8.55196,-2.246 -7.65175,0 -12.6779004,5.2166 -4.95113,5.2166 -4.95113,13.114 z"
            style="font-style:normal;font-variant:normal;font-weight:500;font-stretch:normal;font-size:73.724px;line-height:1.25;font-family:'IntelOneALT Display';-inkscape-font-specification:'IntelOneALT Display Medium';letter-spacing:0px;word-spacing:0px;fill:url(#linearGradient806);fill-opacity:1;stroke:none;stroke-width:1.8431"
            id="path6097"
            inkscape:connector-curvature="0" />
         <path
            d="m 48.466126,144.424 q 0,-11.3027 7.80179,-18.9103 7.80178,-7.68 19.50445,-7.68 11.70268,0 19.42945,7.6076 7.726774,7.5351 7.726774,18.8378 0,11.3027 -7.801794,18.9827 -7.80178,7.60771 -19.42944,7.60771 -11.70268,0 -19.50447,-7.53521 -7.72676,-7.6076 -7.72676,-18.9103 z m 9.67722,-0.1449 q 0,7.8974 5.02615,13.1865 5.02615,5.2891 12.60287,5.2891 7.50173,0 12.45285,-5.2167 4.95114,-5.2166 4.95114,-13.114 0,-7.8249 -5.02615,-13.1141 -5.02615,-5.3614 -12.45285,-5.3614 -7.57674,0 -12.60289,5.2166 -4.95112,5.2166 -4.95112,13.114 z"
            style="font-style:normal;font-variant:normal;font-weight:500;font-stretch:normal;font-size:73.724px;line-height:1.25;font-family:'IntelOneALT Display';-inkscape-font-specification:'IntelOneALT Display Medium';letter-spacing:0px;word-spacing:0px;fill:url(#linearGradient6108);fill-opacity:1;stroke:none;stroke-width:1.8431"
            id="path6099"
            inkscape:connector-curvature="0" />
         <path
            d="m 143.50694,148.5005 13.80068,21.20971 H 146.04329 L 133.65996,150.0524 h -12.01032 v 19.65781 h -9.47399 V 117.9794 h 24.09525 q 9.3994,0 14.54667,4.1384 5.14729,4.0645 5.14729,11.5287 0,5.6164 -3.28233,9.4592 -3.20772,3.8429 -9.17559,5.3948 z m 2.76014,-14.5584 q 0,-3.7691 -2.61094,-5.7644 -2.61094,-2.0692 -7.53444,-2.0692 h -14.47206 v 15.8888 h 14.09908 q 4.92349,0 7.68363,-2.1432 2.83473,-2.1431 2.83473,-5.912 z"
            style="font-style:normal;font-variant:normal;font-weight:500;font-stretch:normal;font-size:73.724px;line-height:1.25;font-family:'IntelOneALT Display';-inkscape-font-specification:'IntelOneALT Display Medium';letter-spacing:0px;word-spacing:0px;fill:url(#linearGradient6110);fill-opacity:1;stroke:none;stroke-width:1.85622"
            id="path6101"
            inkscape:connector-curvature="0" />
         <path
            d="m 192.24468,162.6097 q 5.01708,0 9.10794,-1.8113 4.16805,-1.8837 8.25891,-5.9411 l 5.71177,5.9411 q -4.78554,4.99931 -10.80604,7.53511 -5.94333,2.536 -12.96726,2.536 -12.27259,0 -20.14556,-7.39031 -7.79578,-7.4627 -7.79578,-19.0552 0,-11.2302 7.79578,-18.9103 7.79579,-7.68 19.52807,-7.68 11.96384,0 19.37369,7.3178 7.40988,7.2453 7.40988,18.8378 0,1.0144 -0.15438,2.0287 -0.0772,0.9418 -0.30875,2.1011 H 173.8744 q 1.15778,6.5933 6.17488,10.5782 5.09428,3.9124 12.1954,3.9124 z M 191.0097,125.876 q -6.56082,0 -11.26916,3.985 -4.70836,3.9124 -5.86614,10.5056 h 33.73029 q -0.92622,-6.8106 -5.32583,-10.6506 -4.39961,-3.84 -11.26916,-3.84 z"
            style="font-style:normal;font-variant:normal;font-weight:500;font-stretch:normal;font-size:73.724px;line-height:1.25;font-family:'IntelOneALT Display';-inkscape-font-specification:'IntelOneALT Display Medium';letter-spacing:0px;word-spacing:0px;fill:url(#linearGradient6112);fill-opacity:1;stroke:none;stroke-width:1.86955"
            id="path6103"
            inkscape:connector-curvature="0" />
      </g>
   </g>
   <style
      type="text/css"
      id="style2">
      .st0{fill:#00C7FD;}
      .st1{fill:#FFFFFF;}
</style>
   <style
      id="style2-9"
      type="text/css">
      .st0{fill:#00C7FD;}
      .st1{fill:#FFFFFF;}
</style>
   <style
      type="text/css"
      id="style2-3">
      .st0{fill:#00C7FD;}
      .st1{fill:#FFFFFF;}
</style>
   <style
      id="style2-90"
      type="text/css">
      .st0{fill:#00C7FD;}
      .st1{fill:#FFFFFF;}
</style>
   <style
      type="text/css"
      id="style2-7">
      .st0{fill:#00C7FD;}
      .st1{fill:#FFFFFF;}
</style>
   <style
      id="style2-9-0"
      type="text/css">
      .st0{fill:#00C7FD;}
      .st1{fill:#FFFFFF;}
</style>
   <style
      type="text/css"
      id="style2-3-8">
      .st0{fill:#00C7FD;}
      .st1{fill:#FFFFFF;}
</style>
</svg>