<svg xmlns="http://www.w3.org/2000/svg" viewBox="0 0 338.67 338.67"><defs><style>.cls-1{fill:none;}.cls-2{fill:#3d3d3d;}.cls-3{fill:#797979;}.cls-4{fill:#b5b5b5;}.cls-5{fill:#f2f2f2;}</style></defs><g id="图层_2" data-name="图层 2"><g id="图层_1-2" data-name="图层 1"><rect class="cls-1" width="338.67" height="338.67"/><path d="M83.61,239.83l-49.78-5.07L66,137.26l50.2,5.11q21.18,2.16,34.55,9.55t18,19.14q4.65,11.74-.36,26.93a55.39,55.39,0,0,1-16.91,25.34q-11.88,10.11-29.2,14.39T83.61,239.83ZM69.36,220.12,88.21,222a71.17,71.17,0,0,0,23.26-1,36.18,36.18,0,0,0,16.93-8.75q6.82-6.42,10.43-17.32t1.27-18.13q-2.29-7.32-10.21-11.47t-21.07-5.49L89.89,158Z"/><path d="M177,231.63l5.37-16.23,79.8-58.16,20.16,2.06-7.42,22.47L263,180.55l-50.37,36.84-.25.77,83.31,8.49-5.46,16.52Zm61.75,24L246,233.55l2.93-7.14,22.53-68.22L299.31,161l-32.2,97.5Z"/><path class="cls-2" d="M69.36,206.85l18.85,1.92a71.17,71.17,0,0,0,23.26-1A36.18,36.18,0,0,0,128.4,199q6.82-6.42,10.43-17.32t1.27-18.13q-2.29-7.32-10.21-11.47t-21.07-5.49l-18.93-1.93Zm14.25,19.71-49.78-5.07L66,124l50.2,5.11q21.18,2.16,34.55,9.55t18,19.14q4.65,11.75-.36,26.93a55.34,55.34,0,0,1-16.91,25.34q-11.88,10.11-29.2,14.39T83.61,226.56Z"/><path class="cls-2" d="M238.72,242.37,246,220.28l2.93-7.13,22.53-68.22,27.84,2.83-32.2,97.5Zm-61.75-24,5.37-16.23L262.14,144,282.3,146l-7.42,22.47L263,167.28l-50.37,36.85-.25.76,83.31,8.49-5.46,16.52Z"/><path class="cls-3" d="M69.36,193.58l18.85,1.92a70.9,70.9,0,0,0,23.26-1,36.18,36.18,0,0,0,16.93-8.75q6.82-6.42,10.43-17.32t1.27-18.13q-2.29-7.32-10.21-11.47t-21.07-5.49l-18.93-1.93Zm14.25,19.71-49.78-5.07L66,110.72l50.2,5.12q21.18,2.16,34.55,9.55t18,19.13q4.65,11.74-.36,26.93a55.34,55.34,0,0,1-16.91,25.34q-11.88,10.11-29.2,14.4T83.61,213.29Z"/><path class="cls-3" d="M238.72,229.1,246,207l2.93-7.13,22.53-68.22,27.84,2.83L267.11,232Zm-61.75-24,5.37-16.23,79.8-58.15,20.16,2-7.42,22.47L263,154l-50.37,36.84-.25.76,83.31,8.49-5.46,16.52Z"/><path class="cls-4" d="M69.36,180.31l18.85,1.93a71.15,71.15,0,0,0,23.26-1,36.18,36.18,0,0,0,16.93-8.75q6.82-6.42,10.43-17.32T140.1,137q-2.29-7.31-10.21-11.47t-21.07-5.49l-18.93-1.93ZM83.61,200,33.83,195,66,97.45l50.2,5.12q21.18,2.16,34.55,9.55t18,19.13q4.65,11.75-.36,26.93a55.34,55.34,0,0,1-16.91,25.34q-11.88,10.11-29.2,14.4T83.61,200Z"/><path class="cls-4" d="M238.72,215.83,246,193.74l2.93-7.13,22.53-68.22,27.84,2.83-32.2,97.5Zm-61.75-24,5.37-16.23,79.8-58.15,20.16,2L274.88,142,263,140.75l-50.37,36.84-.25.76,83.31,8.49-5.46,16.52Z"/><path class="cls-5" d="M83.61,186.75l-49.78-5.07L66,84.18l50.2,5.12q21.18,2.16,34.55,9.55t18,19.13q4.65,11.74-.36,26.93a55.34,55.34,0,0,1-16.91,25.34q-11.88,10.11-29.2,14.4T83.61,186.75ZM69.36,167,88.21,169a71.45,71.45,0,0,0,23.26-1,36.19,36.19,0,0,0,16.93-8.76q6.82-6.42,10.43-17.32t1.27-18.12q-2.29-7.32-10.21-11.48t-21.07-5.49l-18.93-1.93Z"/><path class="cls-5" d="M177,178.55l5.37-16.23,79.8-58.15,20.16,2-7.42,22.47L263,127.48l-50.37,36.84-.25.76,83.31,8.49-5.46,16.52Zm61.75,24L246,180.47l2.93-7.13,22.53-68.22L299.31,108l-32.2,97.49Z"/></g></g></svg>