<svg xmlns="http://www.w3.org/2000/svg" viewBox="0 0 1000 1000"><defs><style>.cls-1{fill:#191313;fill-rule:evenodd;}</style></defs><title>github</title><path class="cls-1" d="M500,170.67c-186.45,0-337.65,151.18-337.65,337.69,0,149.17,96.75,275.73,230.94,320.39,16.88,3.09,23-7.33,23-16.28,0-8-.29-29.25-.45-57.43-93.93,20.41-113.75-45.26-113.75-45.26-15.35-39-37.49-49.4-37.49-49.4-30.66-21,2.32-20.52,2.32-20.52,33.89,2.39,51.72,34.8,51.72,34.8,30.12,51.6,79,36.7,98.27,28.05,3.07-21.82,11.79-36.7,21.44-45.14-75-8.52-153.81-37.49-153.81-166.88,0-36.87,13.16-67,34.76-90.61-3.47-8.54-15.06-42.88,3.31-89.36,0,0,28.35-9.08,92.85,34.61a319.94,319.94,0,0,1,169.07,0c64.47-43.69,92.77-34.61,92.77-34.61,18.42,46.48,6.83,80.82,3.36,89.36,21.64,23.6,34.71,53.74,34.71,90.61,0,129.71-78.95,158.26-154.17,166.62,12.12,10.42,22.92,31,22.92,62.53,0,45.14-.41,81.56-.41,92.63,0,9,6.08,19.54,23.21,16.24C741,784,837.67,657.49,837.67,508.36,837.67,321.85,686.47,170.67,500,170.67Z"/></svg>