<svg width="1000" height="1000" viewBox="0 0 1000 1000" fill="none" xmlns="http://www.w3.org/2000/svg">
<path fill-rule="evenodd" clip-rule="evenodd" d="M606.579 521.465C601.988 538.003 596.503 554.166 590.18 569.9H861.443C863.949 554.013 865.635 537.853 866.458 521.465H606.579ZM538.559 664.517C549.271 649.398 559.098 633.603 567.965 617.208H851.374C847.027 633.35 841.817 649.137 835.797 664.517H538.559ZM500.122 711.825C416.291 802.152 296.8 858.633 164.18 858.633C153.362 858.633 142.631 858.257 132 857.518C209.211 917.972 306.406 954 412.001 954C586.248 954 737.62 855.898 814.071 711.825H500.122ZM617.065 474.156H866.418C854.782 249.922 681.356 68.5712 460.844 45C560.291 129.637 623.419 256.024 623.419 397.226C623.419 423.437 621.244 449.138 617.065 474.156Z" fill="url(#paint0_linear)"/>
<defs>
<linearGradient id="paint0_linear" x1="498.831" y1="45" x2="498.831" y2="953.79" gradientUnits="userSpaceOnUse">
<stop offset="0.292491" stop-color="#FFE816"/>
<stop offset="0.857292" stop-color="#FFB526"/>
</linearGradient>
</defs>
</svg>
