<svg xmlns="http://www.w3.org/2000/svg" xmlns:xlink="http://www.w3.org/1999/xlink"
    viewBox="0 0 820 288.25">
    <defs>
        <style>
            .cls-1{fill:url(#未命名的渐变_32);}.cls-2{fill:url(#未命名的渐变_32-2);}.cls-3{fill:url(#未命名的渐变_32-3);}.cls-4{fill:url(#未命名的渐变_32-4);}.cls-5{fill:url(#未命名的渐变_32-5);}svg {filter: drop-shadow(0px 2px 4px #00000050)}</style>
        <linearGradient id="未命名的渐变_32" x1="74.44" y1="48.91" x2="74.44" y2="48.97"
            gradientUnits="userSpaceOnUse">
            <stop offset="0" stop-color="#21c6f3" />
            <stop offset="1" stop-color="#217bf3" />
        </linearGradient>
        <linearGradient id="未命名的渐变_32-2" x1="87.28" y1="0" x2="87.28" y2="240.38"
            xlink:href="#未命名的渐变_32" />
        <linearGradient id="未命名的渐变_32-3" x1="382.5" y1="0" x2="382.5" y2="288.25"
            xlink:href="#未命名的渐变_32" />
        <linearGradient id="未命名的渐变_32-4" x1="619.46" y1="0" x2="619.46" y2="279.96"
            xlink:href="#未命名的渐变_32" />
        <linearGradient id="未命名的渐变_32-5" x1="768.1" y1="0" x2="768.1" y2="230.55"
            xlink:href="#未命名的渐变_32" />
    </defs>
    <g id="图层_2" data-name="图层 2">
        <g id="图层_1-2" data-name="图层 1">
            <path class="cls-1" d="M71.26,49h6.37c-1.1,0-2.2-.06-3.32-.06S72.25,48.93,71.26,49Z" />
            <path class="cls-2"
                d="M66.86,53.84q6.27-5.52,20.66-6c1,0,2-.06,3-.06s2.22,0,3.32.06h41.82L174.56,0H87.28V.05a134.87,134.87,0,0,0-29,3.74A77.57,77.57,0,0,0,31.12,16,60.07,60.07,0,0,0,12.52,38Q5.59,51.71,5.6,71.79q0,16.78,4.44,28.48a55.36,55.36,0,0,0,13,20.09,84,84,0,0,0,21.41,14.81,249.76,249.76,0,0,0,30,12.35q9.54,3.3,17.78,6.59a154.28,154.28,0,0,1,14.49,6.58,44.48,44.48,0,0,1,9.88,6.75q3.63,3.47,3.63,7.41a11,11,0,0,1-3,7.58,24.33,24.33,0,0,1-7.9,5.6,46.51,46.51,0,0,1-11,3.45A66.15,66.15,0,0,1,86,192.63a120.87,120.87,0,0,1-16-1,73.14,73.14,0,0,1-14.49-3.46,123.91,123.91,0,0,1-14.66-6.26q-7.58-3.78-16.8-9.05L0,214.37A138.76,138.76,0,0,0,40.35,234q21.57,6.42,47.59,6.42a135.85,135.85,0,0,0,34.25-4.11,76.9,76.9,0,0,0,27.34-12.85,61.68,61.68,0,0,0,18.28-22.55q6.75-13.83,6.75-33.26,0-18.11-5.1-29.8a51.72,51.72,0,0,0-14.17-19.27A80,80,0,0,0,134.21,106q-12-4.94-25.85-9.55-9.23-3.28-18.12-6.26A103.82,103.82,0,0,1,74.76,83.8a43.45,43.45,0,0,1-10.7-7.57,13.25,13.25,0,0,1-4.12-9.71Q59.94,59.94,66.86,53.84Z" />
            <polygon class="cls-3"
                points="503.61 0 444.66 0 443.01 0 355.92 0 328.51 0 194.86 0 158.3 47.72 194.86 47.72 194.86 238.59 349.33 238.59 365.8 190.87 254.14 190.87 254.14 143.15 303.22 143.15 319.69 95.44 254.14 95.44 254.14 47.72 328.51 47.72 328.51 47.72 426.79 47.72 361 237.38 421.27 237.38 473.64 85.8 498.67 155.32 462.12 202.12 515.47 202.12 536.55 261.12 606.7 288.25 503.61 0" />
            <polygon class="cls-4"
                points="701.09 0 701.09 0 573.79 0 521.45 0 537.23 46.11 615.29 46.11 615.29 279.96 674.57 253.61 674.57 46.11 717.48 46.11 701.09 0" />
            <polygon class="cls-5"
                points="760.72 0 716.19 0 732 46.11 760.72 46.11 760.72 230.55 820 230.55 820 0 760.72 0" />
        </g>
    </g>
</svg>