<svg fill="#fff" xmlns="http://www.w3.org/2000/svg" viewBox="0 0 163.34 21.89"><path d="M1183,1796.55c17.3-3.46,34.78-6.56,52.47-6.73a135.63,135.63,0,0,1,25.22,2,107.17,107.17,0,0,1,12.52,3c3.39,1,9.41,2.09,11.46,5.14q2.8,1.59-1.17,3a16.88,16.88,0,0,1-4.19.66,25.28,25.28,0,0,1-5.95-.5c-3.42-.67-14.06-2.61-7.92-7.39,2.49-1.93,7.61-2.35,10.64-3a117.76,117.76,0,0,1,14.13-1.87,370.15,370.15,0,0,1,51.7-.29c2.57.15,2.56-3.85,0-4-19-1.13-38.32-1.36-57.23.82-7.26.83-16.88,1.63-23.12,5.79-4.09,2.72-3.62,7.36.25,10,5.23,3.55,13.44,5,19.63,4.23,4.6-.61,11.16-2.85,7.8-8.48s-12.73-7.51-18.5-9.06a125.71,125.71,0,0,0-26-3.94c-21.13-1.07-42.14,2.56-62.78,6.69-2.52.51-1.45,4.36,1.06,3.86Z" transform="translate(-1180.54 -1785.81)"/></svg>