<svg fill="#fff" xmlns="http://www.w3.org/2000/svg" viewBox="0 0 257.25 18.88"><path d="M1265.55,1883.93c6.62,13.42,22.71,16.11,36.08,13.18,8.92-1.94,17.16-6,25.68-9.15s19.27-6.58,28.16-2.68c4,1.74,7.08,4.86,10.93,6.81a22.3,22.3,0,0,0,10.65,2.31c8.76-.16,17.26-3.73,25.79-5.38a56.61,56.61,0,0,1,30.33,2.18c8.11,2.76,15.37,4.16,23.81,2,10-2.56,19.4-6.62,29.6-8.52,11.24-2.09,22.64-2.07,33.55,1.59,2.44.82,3.49-3,1.06-3.86-16-5.35-32.85-3.09-48.68,1.6-9.41,2.79-19,7.86-29.07,6-8.07-1.47-15.33-5.45-23.6-6.17-8.85-.78-17.75,1-26.3,3.18-9.52,2.42-19,5.76-27.94-.08-6.46-4.2-11.58-7.53-19.59-7.32-8.28.21-16.23,3-23.85,6-15.94,6.33-42.81,17.21-53.15-3.77-1.14-2.3-4.59-.28-3.46,2Z" transform="translate(-1265.33 -1879.3)"/></svg>