<svg xmlns="http://www.w3.org/2000/svg" xmlns:xlink="http://www.w3.org/1999/xlink" viewBox="0 0 820 270"><defs><style>.cls-1{fill:#585757;}.cls-2{fill:url(#未命名的渐变_8);}.cls-3{fill:url(#未命名的渐变_8-2);}.cls-4{fill:url(#未命名的渐变_8-3);}.cls-5{fill:url(#未命名的渐变_8-4);}</style><linearGradient id="未命名的渐变_8" x1="117.93" y1="179.75" x2="117.93" y2="167.32" gradientUnits="userSpaceOnUse"><stop offset="0" stop-color="#fe5f56"/><stop offset="0.8" stop-color="#fe694a"/><stop offset="1" stop-color="#ff753b"/></linearGradient><linearGradient id="未命名的渐变_8-2" x1="117.93" y1="135" x2="117.93" y2="58.24" xlink:href="#未命名的渐变_8"/><linearGradient id="未命名的渐变_8-3" x1="117.93" y1="211.76" x2="117.93" y2="189.7" xlink:href="#未命名的渐变_8"/><linearGradient id="未命名的渐变_8-4" x1="117.93" y1="157.38" x2="117.93" y2="144.95" xlink:href="#未命名的渐变_8"/></defs><title>sunrise-banner</title><path class="cls-1" d="M257.33,150.1c1.72,10.08,10.73,11.47,16.95,11.47,5.9,0,14.91-1.71,14.91-9.54,0-16.31-45.59-5.79-45.59-34.43,0-15.77,14.81-23.17,28.64-23.17,16,0,30.68,7,30.68,24.67l-16.3-2.36c-2-8.9-9.87-9.23-15.13-9.23s-11.58,2.26-11.58,8.69c0,5.69,3.65,7,22.85,11.59,5.68,1.39,22.73,4.93,22.73,22.31,0,14.05-10.94,24.56-31.85,24.56-17.16,0-32.61-8.37-32.61-27.24Z"/><path class="cls-1" d="M393.2,144.79c0,20.7-12.23,30.78-32.72,30.78-20.7,0-32.6-9.87-32.6-30.78V97.16h16.84v47.63c0,8.36,2.14,16.62,15.76,16.62,12,0,15.88-5.15,15.88-16.62V97.16H393.2Z"/><path class="cls-1" d="M430.27,120v53H415.58V96.09h19.31l34.21,47.84V96.09h14.27V173H469.1Z"/><path class="cls-1" d="M549.4,144.47l21.46,28.42h-20.6L531,145.32H522.7v27.57h-17V96.2h34.54c19.3,0,26.71,12.12,26.71,24.56,0,10.41-5.47,20.92-18.24,23.71Zm-26.7-35.19v23.07h13.08c8.05,0,14.7-1.83,14.7-11.59,0-10-6.65-11.48-14.7-11.48Z"/><path class="cls-1" d="M593.24,96.25h16.84v76.59H593.24Z"/><path class="cls-1" d="M648.76,150.1c1.72,10.08,10.73,11.47,17,11.47,5.9,0,14.91-1.71,14.91-9.54,0-16.31-45.59-5.79-45.59-34.43,0-15.77,14.81-23.17,28.64-23.17,16,0,30.68,7,30.68,24.67l-16.3-2.36c-2-8.9-9.87-9.23-15.13-9.23s-11.58,2.26-11.58,8.69c0,5.69,3.65,7,22.85,11.59,5.68,1.39,22.73,4.93,22.73,22.31,0,14.05-10.94,24.56-31.85,24.56-17.16,0-32.61-8.37-32.61-27.24Z"/><path class="cls-1" d="M735.61,142.48v16.31h43.23v14.15H719.31V96.14h55.88V110.3H735.61v17.27h35v14.91Z"/><path class="cls-2" d="M55.58,179.75h124.7a76.3,76.3,0,0,0,7.28-12.43H48.3A76.3,76.3,0,0,0,55.58,179.75Z"/><path class="cls-3" d="M117.93,58.24A76.76,76.76,0,0,0,41.16,135H194.69A76.76,76.76,0,0,0,117.93,58.24Z"/><path class="cls-4" d="M117.93,211.76a76.49,76.49,0,0,0,53.84-22.06H64.09A76.49,76.49,0,0,0,117.93,211.76Z"/><path class="cls-5" d="M44.49,157.38H191.37A76.49,76.49,0,0,0,194,145H41.83A76.49,76.49,0,0,0,44.49,157.38Z"/></svg>