<svg viewBox="0 0 239 227" fill="none" xmlns="http://www.w3.org/2000/svg">
<path d="M78.9063 39.8731L77.7561 41.578C79.5056 43.292 81.3462 45.305 83.1949 47.5679C85.0669 49.867 86.9471 52.416 88.7291 55.1299C90.5047 57.8734 92.1756 60.8114 93.6122 63.8226C95.0424 66.8634 96.2383 69.9775 97.034 73.0667C97.6509 73.3868 98.2211 73.6347 98.8041 73.8234C99.3872 74.012 99.9533 74.1349 100.502 74.1921C101.052 74.2493 101.584 74.2408 102.099 74.1665C102.615 74.0923 103.107 73.9819 103.582 73.8059C106.095 72.8624 107.945 70.3787 108.719 67.1028C109.499 63.7973 109.197 59.7293 107.387 55.7063C105.601 51.7194 102.413 47.8626 97.5316 44.9101C92.8394 42.0917 86.6449 40.1572 78.9063 39.8731ZM122.607 31.3049C123.315 41.2629 123.602 51.0053 123.534 60.5155C123.443 69.9896 122.979 79.1657 122.143 88.0438C121.297 96.8266 120.092 105.252 118.504 113.284C116.941 121.198 115.026 128.725 112.801 135.812C107.801 130.817 103.177 125.531 98.9043 119.919C94.7783 114.493 90.9444 108.727 87.4688 102.605C84.0504 96.6506 80.9541 90.3626 78.0968 83.6921C75.3031 77.1595 72.808 70.2575 70.5287 62.9368L68.5598 65.3947C70.7863 73.8208 73.2051 81.7922 75.8461 89.3155C78.5507 96.9767 81.4646 104.249 84.6239 111.109C87.8703 118.143 91.3557 124.795 95.1695 131.084C99.064 137.576 103.287 143.705 107.842 149.597C105.515 155.141 102.961 160.295 100.232 165.102C97.5295 169.789 94.6528 174.129 91.6021 178.12C88.6069 182 85.4738 185.508 82.1966 188.674C78.9982 191.765 75.662 194.485 72.2348 196.905L73.775 199.008C77.6783 197.125 81.497 194.914 85.1586 192.42C88.965 189.834 92.6208 186.936 96.1324 183.696C99.7591 180.357 103.205 176.699 106.484 172.664C109.841 168.553 113.031 164.065 115.988 159.215C119.915 163.543 124.097 167.708 128.548 171.777C133.13 175.968 138.024 180.009 143.249 183.967C148.64 188.023 154.42 192.008 160.633 195.87C167.065 199.873 174.006 203.831 181.468 207.686C182.2 205.176 183.275 202.959 184.698 201.003C186.121 199.047 187.85 197.406 189.862 196.043C191.904 194.687 194.258 193.616 196.912 192.889C199.566 192.162 202.526 191.75 205.743 191.735L206.356 189.2C196.887 185.964 188.042 182.586 179.797 179.027C171.921 175.641 164.543 172.116 157.64 168.414C151.016 164.866 144.801 161.159 139.031 157.269C133.444 153.542 128.183 149.608 123.295 145.537C126.657 138.386 129.645 130.658 132.217 122.405C134.851 114.011 137.045 105.055 138.804 95.6637C140.594 86.1242 141.926 76.1127 142.815 65.6949C143.694 55.1817 144.147 44.328 144.109 33.1505C145.254 32.6232 146.262 32.0044 147.127 31.3236C147.992 30.6428 148.745 29.9065 149.325 29.1017C149.899 28.3266 150.361 27.4959 150.666 26.6626C150.972 25.8292 151.122 24.9931 151.141 24.1904L122.607 31.3049ZM51.6483 88.9634L48.6164 97.1785L34.6847 102.282L36.0861 106.03L47.7232 102.011L57.4866 165.966C57.6173 166.801 57.6844 167.498 57.6451 168.11C57.5994 168.751 57.4771 169.314 57.2229 169.911C56.975 170.477 56.5951 171.077 56.0469 171.734C55.4987 172.391 54.8185 173.081 53.9144 173.939L63.7159 190.588C63.9823 190.366 64.2746 190.026 64.5434 189.65C64.8187 189.245 65.0472 188.767 65.2951 188.2C65.5131 187.627 65.7143 186.988 65.8687 186.277C66.0231 185.566 66.1308 184.783 66.1619 183.921C68.3269 179.985 70.4025 176.03 72.3694 172.145C74.379 168.206 76.2437 164.361 77.9739 160.703C79.7404 157.022 81.3426 153.523 82.8016 150.396C84.2671 147.239 85.5361 144.412 86.5702 142.092L85.138 140.354C83.5039 142.419 81.8529 144.419 80.2744 146.372C78.7023 148.296 77.1431 150.16 75.6329 151.942C74.1526 153.73 72.6916 155.429 71.3094 157.053C69.9273 158.676 68.5942 160.218 67.3103 161.676L57.8749 101.671C58.4183 101.324 58.9022 100.963 59.32 100.62C59.7378 100.276 60.096 99.9194 60.3882 99.5795C60.6805 99.2396 60.9429 98.8932 61.169 98.57C61.3952 98.2468 61.5618 97.9107 61.722 97.6042L51.6483 88.9634ZM35.9368 62.7478L35.1489 64.2211C36.2693 65.24 37.4936 66.4987 38.7518 67.8889C40.0036 69.3086 41.319 70.8663 42.5724 72.5657C43.8259 74.265 45.0472 76.1125 46.1066 77.987C47.1894 79.8975 48.1337 81.871 48.8332 83.8224C49.2013 83.9954 49.5524 84.1027 49.9035 84.2099C50.2611 84.2876 50.5953 84.3291 50.9295 84.3706C51.2701 84.3825 51.5873 84.3584 51.911 84.3045C52.2347 84.2507 52.5351 84.1608 52.812 84.0348C54.6293 83.2814 55.9268 81.3293 56.4607 78.8701C57.0012 76.3812 56.778 73.3853 55.5348 70.6333C54.3213 67.8877 52.1174 65.3925 48.7687 63.8587C45.5457 62.3212 41.297 61.7709 35.9368 62.7478Z" fill="#808080"/>
<path d="M69.9674 37.9322L68.8172 39.637C70.5666 41.351 72.4072 43.364 74.2559 45.627C76.128 47.9261 78.0082 50.4751 79.7901 53.189C81.5657 55.9325 83.2366 58.8705 84.6732 61.8817C86.1034 64.9225 87.2993 68.0366 88.095 71.1258C88.7119 71.4459 89.2821 71.6938 89.8651 71.8824C90.4482 72.0711 91.0143 72.194 91.5635 72.2512C92.1127 72.3084 92.645 72.2999 93.1603 72.2256C93.6756 72.1514 94.1676 72.041 94.6427 71.8649C97.1564 70.9215 99.0061 68.4377 99.7798 65.1618C100.56 61.8563 100.258 57.7883 98.4479 53.7654C96.6615 49.7785 93.4741 45.9217 88.5926 42.9692C83.8706 40.1444 77.7059 38.2163 69.9674 37.9322ZM113.668 29.364C114.376 39.322 114.663 49.0644 114.595 58.5746C114.504 68.0487 114.04 77.2248 113.205 86.1029C112.358 94.8857 111.153 103.311 109.565 111.343C108.002 119.257 106.087 126.784 103.862 133.871C98.8624 128.876 94.238 123.59 89.9653 117.978C85.8393 112.552 82.0055 106.786 78.5299 100.664C75.1115 94.7097 72.0151 88.4217 69.1578 81.7512C66.3641 75.2186 63.8691 68.3165 61.5897 60.9959L59.6208 63.4538C61.8473 71.8799 64.2662 79.8513 66.9071 87.3746C69.6117 95.0358 72.5256 102.308 75.6849 109.168C78.9313 116.202 82.4167 122.854 86.2306 129.143C90.125 135.635 94.3479 141.764 98.9032 147.656C96.576 153.2 94.0217 158.355 91.2933 163.161C88.5906 167.848 85.7139 172.188 82.6631 176.179C79.6679 180.059 76.5349 183.567 73.2576 186.733C70.0592 189.824 66.7231 192.544 63.2958 194.964L64.8361 197.067C68.7394 195.184 72.558 192.973 76.2196 190.479C80.0261 187.893 83.6819 184.995 87.1934 181.755C90.8201 178.416 94.2663 174.758 97.545 170.723C100.902 166.612 104.063 162.117 107.049 157.274C110.976 161.602 115.158 165.767 119.609 169.836C124.191 174.027 129.085 178.068 134.31 182.026C139.701 186.082 145.481 190.067 151.694 193.93C158.126 197.932 165.067 201.89 172.529 205.745C173.261 203.235 174.336 201.018 175.759 199.062C177.182 197.106 178.911 195.465 180.923 194.102C182.965 192.746 185.319 191.675 187.973 190.948C190.627 190.221 193.587 189.809 196.804 189.794L197.417 187.259C187.948 184.024 179.103 180.645 170.858 177.086C162.982 173.701 155.604 170.175 148.701 166.473C142.077 162.925 135.862 159.218 130.092 155.328C124.505 151.601 119.244 147.667 114.356 143.596C117.718 136.445 120.706 128.717 123.278 120.464C125.912 112.07 128.106 103.114 129.865 93.7228C131.655 84.1833 132.987 74.1718 133.876 63.754C134.755 53.2408 135.208 42.3871 135.17 31.2095C136.315 30.6823 137.323 30.0635 138.188 29.3827C139.053 28.7019 139.806 27.9656 140.386 27.1608C140.96 26.3857 141.422 25.555 141.727 24.7217C142.033 23.8883 142.183 23.0522 142.202 22.2495L113.668 29.364ZM42.7093 87.0225L39.6775 95.2376L25.7457 100.341L27.1471 104.09L38.7842 100.07L48.5477 164.025C48.6784 164.86 48.7454 165.557 48.7061 166.169C48.6604 166.81 48.5382 167.373 48.2839 167.97C48.036 168.536 47.6561 169.136 47.1079 169.793C46.5598 170.45 45.8795 171.14 44.9755 171.998L54.7471 188.64C55.0136 188.419 55.3058 188.079 55.5746 187.703C55.8499 187.297 56.0785 186.819 56.3263 186.253C56.5444 185.68 56.7455 185.041 56.8999 184.33C57.0543 183.619 57.162 182.835 57.1931 181.973C59.3581 178.038 61.4337 174.083 63.4007 170.197C65.4102 166.259 67.2749 162.413 69.0051 158.755C70.7716 155.075 72.3738 151.575 73.8329 148.448C75.2983 145.292 76.5674 142.465 77.6015 140.145L76.1692 138.407C74.5352 140.472 72.8842 142.471 71.3056 144.425C69.7335 146.348 68.1743 148.212 66.6642 149.994C65.1838 151.783 63.7228 153.482 62.3406 155.106C60.9585 156.729 59.6254 158.27 58.3415 159.729L48.8763 99.7171C49.4197 99.3697 49.9036 99.0094 50.3214 98.6657C50.7392 98.3221 51.0975 97.9655 51.3897 97.6256C51.6819 97.2857 51.9443 96.9394 52.1705 96.6162C52.3967 96.293 52.5633 95.9568 52.7234 95.6503L42.7093 87.0225ZM26.9978 60.8069L26.2099 62.2802C27.3303 63.2991 28.5546 64.5578 29.8128 65.9479C31.0646 67.3677 32.38 68.9254 33.6335 70.6247C34.8869 72.3241 36.1082 74.1716 37.1676 76.046C38.2504 77.9566 39.1948 79.9301 39.8943 81.8815C40.2623 82.0545 40.6134 82.1617 40.9646 82.269C41.3221 82.3466 41.6563 82.3882 41.9905 82.4297C42.3311 82.4416 42.6484 82.4174 42.9721 82.3636C43.2958 82.3098 43.5961 82.2199 43.8731 82.0939C45.6903 81.3405 46.9878 79.3883 47.5218 76.9291C48.0622 74.4403 47.8391 71.4444 46.5958 68.6924C45.3823 65.9468 43.1784 63.4516 39.8298 61.9178C36.6067 60.3802 32.3581 59.83 26.9978 60.8069Z" fill="#333333"/>
</svg>
