<svg viewBox="0 0 750 349" fill="none" xmlns="http://www.w3.org/2000/svg">
<path d="M388.187 0H190.039V346.023H388.187V0Z" fill="white"/>
<path d="M304.082 123.388C302.409 125.275 299.644 127.381 294.806 128.434V267.286C294.369 269.391 279.164 276.361 267.341 276.361H262.285V259.699H183.928V265.798C183.928 269.573 170.832 277.16 157.118 277.16H152.061V103.567L186.074 116.854H199.17C200.843 104.62 202.117 88.829 202.553 77.6482L247.334 84.7995C246.715 87.5221 244.605 89.4461 239.512 89.6639C231.691 97.6865 220.523 108.432 209.101 116.854H259.993L274.98 100.191L304.082 123.388ZM183.928 122.771V161.323H262.285V122.771H183.928ZM183.928 167.24V207.28H262.285V167.24H183.928ZM262.285 253.818V213.161H183.928V253.818H262.285Z" fill="#333333"/>
<path d="M398.081 182.196C453.811 214.032 425.11 262.058 402.301 237.192C402.519 234.252 402.738 231.275 402.738 228.335C390.078 235.304 373.818 243.508 355.229 251.713C353.555 254.254 351.627 255.923 349.299 256.976L333.475 219.695C333.475 219.695 340.241 218.424 342.351 216.537C351.227 207.28 363.268 175.008 366.651 155.841H335.803L334.13 149.924H402.774L416.925 130.975C416.925 130.975 432.967 143.825 442.462 152.465C441.843 154.788 439.515 155.841 436.532 155.841H372.981L406.121 165.969C405.284 168.075 403.174 169.962 399.354 170.18C388.15 187.242 368.725 208.514 352.464 221.183C365.123 220.13 382.876 218.461 402.083 216.537C401.028 204.739 398.481 193.159 395.753 183.031L398.081 182.196ZM344.025 109.92L342.351 104.003H391.133L405.284 85.0536C405.284 85.0536 421.326 97.9042 430.821 106.544C430.202 108.867 428.093 109.92 424.891 109.92H344.025ZM537.443 137.727C535.769 139.614 533.005 141.103 528.167 141.938C526.275 227.899 523.11 253.818 510.633 265.616C502.812 272.985 493.317 276.143 480.658 276.143C480.658 266.669 480.039 260.134 477.493 256.323C474.328 251.894 469.454 248.736 461.232 246.63L461.451 244.089C467.78 244.706 477.275 245.142 481.713 245.142C484.878 245.142 486.769 244.307 488.697 242.601C495.863 236.284 498.192 205.719 499.901 136.819H478.584C476.911 201.508 467.598 247.465 401.937 277.777L400.046 275.054C442.061 239.443 448.391 195.809 449.046 136.819H427.292L425.401 130.902H449.046C449.046 114.24 448.828 96.5611 448.828 77.394L487.242 80.7701C486.624 84.1461 484.296 86.0337 479.203 86.8687C478.984 102.478 478.984 116.999 478.766 130.902H497.573L512.779 115.728L537.443 137.727Z" fill="#333333"/>
<path d="M611.143 143.208C610.307 145.096 608.597 146.584 604.377 147.419V272.186C603.941 273.675 590.663 277.886 580.295 277.886H574.802V169.962C566.581 177.767 557.923 184.519 548.392 190.617L546.283 188.948C564.217 162.411 582.187 119.612 590.19 77.9021L632.424 90.9705C631.587 93.6931 628.823 95.6171 623.766 95.3993C617 112.062 609.179 126.582 600.521 139.433L611.143 143.208ZM738.246 239.914C746.685 243.69 749.013 247.284 749.013 252.547C749.013 266.051 737.627 271.932 697.685 271.932H675.713C650.576 271.932 641.518 266.886 641.518 244.343V207.897C630.532 213.596 618.928 218.642 606.669 223.071L604.996 220.747C617.655 212.725 629.914 203.032 641.518 192.723V82.2945L678.696 86.0699C678.478 89.0103 676.368 91.3335 671.093 92.1685V163.174C687.354 145.059 700.668 126.727 709.326 111.118L742.065 135.149C740.574 137.037 738.064 138.307 733.189 136.819C717.547 154.098 696.666 173.265 671.093 190.327V235.014C671.093 240.713 673.821 242.383 681.242 242.383H700.668C706.779 242.383 712.054 242.165 715.437 241.947C718.384 241.73 720.712 240.895 722.603 238.354C725.987 233.489 730.425 220.639 735.263 205.065H737.373L738.246 239.914Z" fill="#333333"/>
<path d="M99.7872 0H0.986328V349H99.7872V0Z" fill="#333333"/>
</svg>
