<svg viewBox="0 0 232 199" fill="none" xmlns="http://www.w3.org/2000/svg">
<path d="M65.5776 23.3166C63.8025 25.8437 61.4916 28.6741 58.7117 31.6729C55.8649 34.7391 52.4822 38.0075 48.6976 41.3432C44.8125 44.7464 40.492 48.2169 35.8701 51.5527C31.0807 54.9895 25.9899 58.2916 20.6981 61.2567L22.6072 62.9751C29.1382 60.8524 35.4347 58.4263 41.3293 55.8319C47.0899 53.3048 52.4487 50.6092 57.3385 47.9137C62.0944 45.2518 66.4149 42.5899 70.166 39.9954C73.8501 37.4683 77.0319 35.0086 79.6443 32.6837C79.8787 32.7174 80.1132 32.7511 80.3476 32.7511C80.5821 32.7848 80.783 32.7848 80.984 32.8185C81.1849 32.8185 81.3859 32.8522 81.5868 32.8522C81.7878 32.8522 81.9552 32.8522 82.1227 32.8522C82.6921 32.8522 83.1945 32.8185 83.6298 32.7511C84.0652 32.6837 84.4337 32.5826 84.7686 32.4479C85.1035 32.3131 85.3714 32.1446 85.6059 31.9761C85.8403 31.774 86.0413 31.5718 86.2087 31.3359L65.5776 23.3166ZM132.997 25.5068L131.859 26.5176C135.241 27.9328 138.892 29.6175 142.609 31.5044C146.361 33.425 150.145 35.5141 153.829 37.7379C157.547 39.9954 161.097 42.354 164.346 44.7127C167.595 47.105 170.508 49.5647 172.819 51.8896C173.288 52.0244 173.757 52.1592 174.193 52.2939C174.628 52.395 175.063 52.4961 175.465 52.5635C175.867 52.6309 176.269 52.6983 176.637 52.6983C177.006 52.732 177.374 52.732 177.709 52.732C180.791 52.6983 182.499 51.2494 182.532 49.0256C182.599 46.8354 181.025 43.9377 177.642 40.9389C174.293 37.9738 169.135 34.8402 161.834 32.1109C154.566 29.4153 145.121 27.0567 132.997 25.5068ZM136.715 35.9858C134.136 38.9172 130.887 41.8823 127.002 44.8138C123.017 47.8463 118.361 50.8788 113.103 53.8776C107.677 56.9775 101.615 60.0437 94.9502 63.0425C88.0843 66.1424 80.5821 69.1412 72.5774 72.0726L61.0562 68.6695V76.116C57.6065 77.2616 54.0898 78.3735 50.5061 79.4517C46.889 80.53 43.1714 81.6082 39.3867 82.6527C35.5686 83.6973 31.6836 84.7081 27.7315 85.6852C23.7459 86.6624 19.6599 87.6395 15.5738 88.5493L16.3442 91.5481C20.3632 91.0427 24.3488 90.4699 28.2339 89.8971C32.0855 89.3242 35.9036 88.6841 39.6212 88.0439C43.3388 87.4037 46.956 86.6961 50.5396 85.9885C54.0898 85.2809 57.6065 84.5396 61.0562 83.7647L61.0896 191.149L65.0752 190.644C67.8885 190.273 70.6684 189.498 73.2473 188.521C75.7927 187.544 78.1371 186.365 80.1132 185.118C82.0892 183.905 83.6968 182.624 84.7686 181.479C85.8738 180.333 86.4432 179.356 86.4097 178.615L85.6729 166.249L178.614 155.871L183.57 172.954L186.987 172.516C188.795 172.28 190.704 171.707 192.513 170.966C194.321 170.225 196.063 169.315 197.57 168.372C199.044 167.428 200.316 166.485 201.187 165.642C202.058 164.8 202.527 164.092 202.493 163.654L173.355 78.6768C174.126 78.4746 174.862 78.2724 175.465 78.0029C176.102 77.7333 176.671 77.4638 177.14 77.1605C177.609 76.8573 178.011 76.554 178.346 76.2508C178.647 75.9475 178.881 75.6106 179.049 75.3073L158.552 64.5924L152.59 72.477L95.0842 74.3639C101.682 72.2411 107.845 70.0173 113.538 67.6924C119.098 65.4348 124.222 63.1099 128.878 60.785C133.433 58.4937 137.519 56.1688 141.169 53.8102C144.719 51.519 147.834 49.2277 150.447 46.9702C150.849 47.0713 151.217 47.1724 151.585 47.2398C151.954 47.3071 152.255 47.3745 152.59 47.4419C152.892 47.5093 153.193 47.543 153.461 47.543C153.729 47.5767 153.963 47.5767 154.198 47.5767C154.499 47.5767 154.801 47.543 155.035 47.5093C155.27 47.4756 155.504 47.3745 155.705 47.3071C155.906 47.2061 156.073 47.105 156.241 46.9702C156.408 46.8354 156.542 46.7006 156.676 46.5322L136.715 35.9858ZM85.1705 158.499L83.5964 131.982L169.604 124.906L176.571 148.896L85.1705 158.499ZM83.2279 125.411L81.9217 103.678L162.102 99.062L167.863 118.942L83.2279 125.411ZM81.5868 98.0848L80.4816 79.6876L155.638 76.891L160.595 93.9067L81.5868 98.0848ZM96.0219 17.319L100.945 54.6526L103.156 54.6189C104.763 54.5852 106.438 54.3493 108.046 54.0124C109.653 53.6417 111.16 53.17 112.5 52.6309C113.806 52.0918 114.911 51.519 115.648 50.9799C116.385 50.4407 116.787 49.9353 116.72 49.531L111.529 21.9015C112.634 21.8004 113.505 21.6656 114.208 21.4634C114.911 21.295 115.447 21.0591 115.816 20.7895C116.218 20.52 116.452 20.2504 116.653 19.9135C116.821 19.5765 116.921 19.2396 116.955 18.8689L96.0219 17.319Z" fill="black"/>
<path d="M64.9078 7.14326C63.1327 9.67035 60.8217 12.5007 58.0419 15.4995C55.195 18.5657 51.8123 21.8341 48.0277 25.1698C44.1426 28.573 39.8222 32.0435 35.2002 35.3793C30.4109 38.8161 25.3201 42.1182 20.0283 45.0833L21.9374 46.8018C28.4683 44.679 34.7648 42.253 40.6595 39.6585C46.4201 37.1314 51.7788 34.4358 56.6687 31.7403C61.4246 29.0784 65.7451 26.4165 69.4962 23.8221C73.1803 21.295 76.3621 18.8353 78.9744 16.5103C79.2089 16.544 79.4433 16.5777 79.6778 16.5777C79.9122 16.6114 80.1132 16.6114 80.3141 16.6451C80.5151 16.6451 80.716 16.6788 80.917 16.6788C81.118 16.6788 81.2854 16.6788 81.4529 16.6788C82.0222 16.6788 82.5246 16.6451 82.96 16.5777C83.3954 16.5103 83.7638 16.4093 84.0653 16.2745C84.4002 16.1397 84.6681 15.9712 84.9026 15.8028C85.137 15.6006 85.338 15.3984 85.5054 15.1626L64.9078 7.14326ZM132.327 9.33341L131.189 10.3442C134.571 11.7594 138.222 13.4441 141.94 15.331C145.691 17.2179 149.475 19.3407 153.16 21.5645C156.877 23.8221 160.427 26.1807 163.676 28.5393C166.925 30.9316 169.839 33.3913 172.15 35.7162C172.618 35.851 173.087 35.9858 173.523 36.1206C173.958 36.2217 174.394 36.3227 174.795 36.3901C175.197 36.4575 175.599 36.5249 175.968 36.5249C176.336 36.5586 176.704 36.5586 177.039 36.5586C180.121 36.5249 181.829 35.076 181.862 32.8522C181.929 30.6621 180.389 27.7643 176.972 24.7655C173.623 21.8004 168.465 18.6668 161.164 15.9375C153.896 13.242 144.452 10.8834 132.327 9.33341ZM136.045 19.8124C133.466 22.7438 130.217 25.709 126.332 28.6404C122.347 31.6729 117.691 34.7054 112.433 37.7042C107.007 40.8041 100.945 43.8703 94.2804 46.8691C87.4145 49.969 79.9122 52.9679 71.9076 55.8993L60.3863 52.4961V59.9426C56.9366 61.0882 53.42 62.2002 49.8363 63.2784C46.2191 64.3566 42.5015 65.4348 38.7169 66.4794C34.8988 67.5239 31.0137 68.5347 27.0617 69.5119C23.0761 70.489 19.0235 71.4662 14.904 72.3759L15.6743 75.3747C19.6934 74.8693 23.6789 74.2965 27.564 73.7237C31.4156 73.1509 35.2337 72.5107 38.9514 71.8705C42.669 71.2303 46.2861 70.5227 49.8698 69.8151C53.42 69.1075 56.9366 68.3663 60.3863 67.5913L60.4198 174.976L64.4054 174.47C67.2187 174.1 69.9986 173.325 72.5775 172.348C75.1229 171.371 77.4673 170.191 79.4433 168.945C81.4194 167.732 83.027 166.451 84.0987 165.305C85.204 164.16 85.7734 163.183 85.7399 162.441L85.003 150.076L177.944 139.698L182.901 156.781L186.317 156.343C188.125 156.107 190.034 155.534 191.843 154.793C193.652 154.052 195.393 153.142 196.9 152.198C198.374 151.255 199.647 150.311 200.517 149.469C201.388 148.627 201.857 147.919 201.824 147.481L172.685 62.5034C173.456 62.3012 174.193 62.0991 174.795 61.8295C175.432 61.56 176.001 61.2904 176.47 60.9872C176.939 60.6839 177.341 60.3807 177.676 60.0774C177.977 59.7742 178.212 59.4372 178.379 59.134L157.882 48.4191L151.92 56.3036L94.4143 58.1905C101.012 56.0678 107.175 53.8439 112.868 51.519C118.428 49.2615 123.552 46.9365 128.208 44.6116C132.763 42.3204 136.849 39.9954 140.499 37.6368C144.05 35.3456 147.164 33.0544 149.777 30.7968C150.179 30.8979 150.547 30.999 150.916 31.0664C151.284 31.1338 151.585 31.2012 151.92 31.2686C152.222 31.336 152.523 31.3696 152.791 31.3696C153.059 31.4033 153.293 31.4033 153.528 31.4033C153.829 31.4033 154.131 31.3696 154.365 31.3359C154.6 31.3023 154.834 31.2012 155.035 31.1338C155.236 31.0327 155.403 30.9316 155.571 30.7968C155.738 30.6621 155.872 30.5273 156.006 30.3588L136.045 19.8124ZM84.5007 142.292L82.9265 115.775L168.934 108.699L175.901 132.689L84.5007 142.292ZM82.5581 109.238L81.2519 87.5048L161.432 82.8886L167.193 102.768L82.5581 109.238ZM80.917 81.9115L79.8118 63.5143L154.968 60.7176L159.925 77.7334L80.917 81.9115ZM95.3521 1.14563L100.275 38.4792L102.486 38.4455C104.094 38.4118 105.768 38.1759 107.376 37.839C108.983 37.4684 110.491 36.9966 111.83 36.4575C113.136 35.9184 114.242 35.3456 114.978 34.8065C115.715 34.2674 116.117 33.762 116.05 33.3576L110.859 5.72809C111.964 5.62701 112.835 5.49223 113.538 5.29006C114.242 5.12159 114.778 4.88573 115.146 4.61617C115.548 4.34661 115.782 4.07706 115.983 3.74011C116.151 3.40317 116.251 3.06622 116.285 2.69558L95.3521 1.14563Z" fill="#FCD307"/>
</svg>
