<svg viewBox="0 0 194 202" fill="none" xmlns="http://www.w3.org/2000/svg">
<path d="M60.3711 16.7166C57.7705 18.4671 54.4977 20.4509 50.7281 22.5223C46.9001 24.6519 42.5462 26.8983 37.9292 29.1156C33.1954 31.3911 28.1693 33.6375 23.0556 35.738C17.8542 37.8969 12.5652 39.8807 7.48065 41.5436L8.73717 44.3735C11.0749 44.1985 13.4418 43.9651 15.7795 43.7025C18.1172 43.4399 20.4257 43.1774 22.7634 42.8564C25.0719 42.5647 27.3511 42.2438 29.6304 41.8937C31.8804 41.5436 34.1304 41.1935 36.3513 40.8435L40.5299 74.9477L10.695 77.0774L13.208 82.8247L37.6954 80.8409C37.2279 87.6092 36.5266 94.5234 35.5915 101.438C34.6564 108.41 33.4291 115.441 31.9389 122.355C30.4193 129.328 28.5784 136.242 26.3576 142.923C24.1076 149.691 21.5069 156.255 18.4386 162.469L21.6237 164.278C24.3121 160.836 26.8544 157.364 29.2213 153.834C31.559 150.362 33.7798 146.861 35.8253 143.331C37.8708 139.83 39.7409 136.3 41.4942 132.712C43.2183 129.153 44.8254 125.564 46.2865 121.947L54.9944 192.839L58.1503 191.935C60.2543 191.322 62.1536 190.535 63.8193 189.659C65.4556 188.784 66.8875 187.851 68.0271 186.946C69.1667 186.042 70.0434 185.196 70.657 184.466C71.2415 183.737 71.5337 183.183 71.5044 182.833L60.8095 95.6904C62.1536 97.2949 63.527 99.0162 64.842 100.825C66.157 102.634 67.4135 104.501 68.5823 106.426C69.7219 108.352 70.7739 110.306 71.6798 112.232C72.5564 114.157 73.2869 116.112 73.8129 117.979C74.4266 118.358 75.011 118.65 75.5954 118.913C76.1798 119.146 76.7643 119.35 77.3195 119.467C77.8747 119.584 78.4299 119.671 78.9559 119.7C79.4819 119.73 79.9786 119.7 80.4754 119.613C82.93 119.205 84.8586 117.629 85.9105 115.354C86.9625 113.107 87.1086 110.19 86.0274 107.097C84.9462 104.005 82.5793 100.679 78.4883 97.6742C74.3681 94.6109 68.407 91.7811 60.1082 89.7097L58.7932 79.0612L82.6962 77.1066C83.3098 77.0482 83.865 76.9607 84.3618 76.7857C84.8586 76.6398 85.2969 76.4356 85.6475 76.1439C85.9982 75.8813 86.2904 75.5604 86.495 75.1811C86.6995 74.8019 86.8164 74.3643 86.8456 73.8683C85.2969 72.4971 83.4852 71.0384 81.6442 69.5506C79.7741 68.0627 77.9039 66.6332 76.1798 65.3203C74.4558 64.0075 72.9363 62.8989 71.8551 62.082C70.7447 61.2652 70.1018 60.7984 70.1018 60.7984L62.2997 73.2848L58.1211 73.5766L53.6795 37.576C55.3743 37.2551 57.0107 36.905 58.5886 36.5549C60.1666 36.2048 61.6569 35.8547 63.1179 35.5046C64.5498 35.1545 65.894 34.8045 67.1797 34.4835C68.4362 34.1626 69.6343 33.8125 70.7155 33.5208C71.3291 33.725 71.9428 33.9292 72.5272 34.0751C73.1116 34.221 73.6376 34.3668 74.1636 34.4835C74.6896 34.6002 75.1863 34.6586 75.6539 34.7169C76.1214 34.7753 76.5889 34.8045 76.998 34.8045C77.4656 34.8045 77.9039 34.7753 78.313 34.7169C78.7221 34.6586 79.102 34.5711 79.4526 34.4544C79.8033 34.3377 80.1247 34.1918 80.3877 34.0168C80.6799 33.8417 80.9137 33.6375 81.1475 33.4041L60.3711 16.7166ZM124.658 112.845L123.138 114.099C124.395 115.587 125.681 117.308 126.908 119.175C128.135 121.042 129.333 123.055 130.415 125.156C131.496 127.257 132.431 129.415 133.191 131.603C133.95 133.791 134.505 135.979 134.827 138.138C135.353 138.518 135.85 138.868 136.346 139.101C136.843 139.364 137.34 139.539 137.807 139.685C138.275 139.801 138.743 139.889 139.21 139.889C139.648 139.889 140.087 139.86 140.525 139.772C142.454 139.334 143.973 137.847 144.821 135.746C145.668 133.675 145.814 130.991 144.996 128.219C144.149 125.419 142.308 122.443 139.122 119.759C135.85 117.046 131.174 114.595 124.658 112.845ZM103.268 122.355L107.768 158.91C108.06 161.39 108.469 163.374 109.083 164.92C109.697 166.466 110.573 167.575 111.771 168.246C112.999 168.917 114.577 169.179 116.651 169.034C118.726 168.888 121.268 168.363 124.424 167.487L138.187 163.666C143.184 162.265 147.158 161.011 150.285 159.844C153.382 158.677 155.691 157.568 157.357 156.46C159.022 155.351 160.074 154.242 160.688 153.075C161.272 151.908 161.418 150.654 161.243 149.254C161.155 148.641 161.038 148.087 160.863 147.591C160.688 147.095 160.425 146.686 160.074 146.336C159.723 145.986 159.285 145.665 158.701 145.432C158.116 145.169 157.415 144.994 156.568 144.848L154.084 127.928L152.623 128.219C152.389 130.232 152.184 132.187 151.98 133.996C151.775 135.834 151.571 137.526 151.395 139.072C151.191 140.618 150.986 141.96 150.782 143.098C150.577 144.236 150.343 145.14 150.11 145.782C149.993 146.19 149.847 146.511 149.73 146.774C149.584 147.036 149.438 147.27 149.262 147.474C149.087 147.649 148.853 147.824 148.59 147.97C148.327 148.116 148.006 148.233 147.655 148.378L137.632 150.887L125.973 153.805C124.892 154.067 124.015 154.272 123.343 154.359C122.671 154.447 122.145 154.447 121.794 154.33C121.414 154.242 121.181 154.038 121.005 153.717C120.83 153.425 120.742 153.017 120.684 152.521L117.469 126.06C118.171 125.798 118.784 125.477 119.31 125.156C119.807 124.806 120.246 124.427 120.567 124.018C120.888 123.61 121.122 123.172 121.297 122.676C121.473 122.209 121.531 121.713 121.56 121.188L103.268 122.355ZM94.0048 126.877L91.2872 127.373C91.784 130.086 91.9009 132.887 91.7256 135.659C91.5502 138.43 91.0535 141.172 90.3229 143.769C89.5924 146.365 88.6573 148.816 87.5761 150.975C86.495 153.134 85.2677 155.03 84.0111 156.489C83.0761 157.422 82.2287 158.414 81.5566 159.464C80.8553 160.515 80.3293 161.623 80.0078 162.761C79.6864 163.899 79.5403 165.037 79.6572 166.174C79.7741 167.312 80.1539 168.421 80.8553 169.471C81.2351 169.996 81.6734 170.405 82.1994 170.755C82.6962 171.076 83.2514 171.309 83.8358 171.455C84.4202 171.601 85.0339 171.659 85.6768 171.63C86.3196 171.601 86.9917 171.513 87.6346 171.338C88.219 171.192 88.8327 170.959 89.4171 170.696C90.0015 170.434 90.5859 170.113 91.1411 169.734C91.6963 169.354 92.2515 168.946 92.7775 168.479C93.3035 168.012 93.771 167.487 94.2386 166.962C95.6412 165.183 96.8685 162.878 97.8036 160.165C98.7094 157.481 99.3231 154.359 99.4984 150.946C99.6737 147.532 99.3815 143.769 98.5341 139.743C97.6575 135.688 96.1964 131.37 94.0048 126.877ZM154.025 116.141L152.856 117.483C154.347 119.146 155.837 121.13 157.269 123.318C158.701 125.477 160.045 127.869 161.243 130.349C162.441 132.829 163.464 135.396 164.224 137.992C164.983 140.589 165.509 143.215 165.714 145.753C166.152 146.103 166.561 146.365 166.97 146.599C167.379 146.832 167.789 146.978 168.168 147.095C168.548 147.211 168.928 147.27 169.308 147.27C169.688 147.27 170.039 147.241 170.36 147.153C172.113 146.686 173.487 145.023 174.188 142.66C174.889 140.326 174.919 137.292 174.013 134.083C173.107 130.874 171.237 127.461 168.081 124.339C164.896 121.188 160.337 118.271 154.025 116.141ZM96.5763 15.8998C95.9919 19.8091 95.1152 23.8934 94.0048 28.0069C92.8652 32.1496 91.4626 36.3507 89.8262 40.4058C88.1898 44.4902 86.3196 48.4578 84.2449 52.1337C82.1702 55.8388 79.8909 59.2522 77.4364 62.1404L79.2189 63.6574C81.6734 62.1696 84.0696 60.5358 86.3488 58.7854C88.5989 57.0641 90.7613 55.197 92.8067 53.2715C94.8522 51.3461 96.7808 49.3331 98.5926 47.2617C100.404 45.2195 102.099 43.0898 103.677 40.931L130.21 40.6101C129.83 42.1563 129.392 43.79 128.895 45.5113C128.398 47.2325 127.872 48.983 127.288 50.7334C126.703 52.4838 126.09 54.2343 125.418 55.9264C124.775 57.6184 124.074 59.223 123.372 60.7109L85.1216 62.7822L87.2839 67.8293L144.558 64.1534L146.632 80.9284L92.6314 86.4422L94.7646 91.3726L147.158 85.5378L149.291 102.925L90.4106 111.794L92.573 116.696L149.847 107.477L150.636 113.895L152.769 113.516C153.792 113.341 154.902 112.932 156.012 112.407C157.123 111.882 158.204 111.24 159.139 110.598C160.074 109.956 160.922 109.315 161.506 108.731C162.09 108.177 162.441 107.71 162.441 107.447L157.327 65.9913C157.97 65.7871 158.555 65.5537 159.081 65.2912C159.607 65.0286 160.074 64.7369 160.483 64.416C160.892 64.095 161.243 63.7741 161.535 63.4532C161.827 63.1323 162.061 62.8114 162.236 62.4905L148.093 51.5211L142.629 59.7773L127.755 60.5942C129.479 59.2813 131.233 57.8227 132.986 56.2764C134.71 54.7594 136.405 53.1548 138.041 51.5503C139.678 49.9749 141.226 48.3995 142.658 46.8824C144.09 45.3946 145.434 43.9651 146.603 42.7106C147.217 42.6231 147.772 42.5355 148.269 42.448C148.765 42.3605 149.204 42.2438 149.584 42.0979C149.964 41.9521 150.314 41.777 150.636 41.5728C150.957 41.3686 151.22 41.106 151.483 40.7851L136.668 27.2192L129.772 36.0881L107.184 36.1465C107.885 35.0962 108.528 34.0459 109.171 32.9665C109.814 31.9162 110.398 30.8368 110.982 29.7865C111.567 28.7363 112.093 27.686 112.619 26.6358C113.145 25.5855 113.642 24.5644 114.109 23.5433C114.197 23.5433 114.255 23.5433 114.343 23.5725C114.43 23.5725 114.489 23.5725 114.577 23.5725C114.664 23.5725 114.723 23.5725 114.81 23.5725C114.898 23.5725 114.956 23.5725 115.015 23.5725C115.775 23.6017 116.418 23.5433 116.944 23.4558C117.469 23.3683 117.879 23.2224 118.2 23.0182C118.521 22.814 118.755 22.5806 118.901 22.2597C119.077 21.9679 119.164 21.5887 119.223 21.1803L96.5763 15.8998Z" fill="#FCD307"/>
<path d="M77.3195 4.4636C74.7188 6.21403 71.446 8.19786 67.6765 10.2692C63.8485 12.3989 59.4945 14.6453 54.8776 16.8625C50.1437 19.1381 45.1177 21.3845 40.004 23.485C34.8026 25.6438 29.5135 27.6277 24.429 29.2906L25.6855 32.1204C28.0232 31.9454 30.3902 31.712 32.7279 31.4494C35.0656 31.1869 37.374 30.9243 39.7117 30.6034C42.0202 30.3117 44.2995 29.9908 46.5787 29.6407C48.8288 29.2906 51.0788 28.9405 53.2996 28.5904L57.5075 62.6947L27.6726 64.8244L30.1856 70.5716L54.7023 68.5878C54.2347 75.3561 53.5334 82.2704 52.5983 89.1846C51.6632 96.1571 50.4359 103.188 48.9457 110.102C47.4262 117.075 45.5852 123.989 43.3644 130.67C41.1144 137.438 38.5137 144.002 35.4454 150.216L38.6306 152.025C41.3189 148.583 43.8612 145.111 46.2281 141.581C48.5658 138.109 50.7866 134.608 52.8321 131.078C54.8776 127.577 56.7477 124.047 58.501 120.459C60.2251 116.9 61.8322 113.311 63.2933 109.694L72.0012 180.586L75.1571 179.682C77.2611 179.069 79.1605 178.282 80.8261 177.406C82.4625 176.531 83.8943 175.598 85.0339 174.693C86.1736 173.789 87.0502 172.943 87.6638 172.213C88.2483 171.484 88.5405 170.93 88.5113 170.58L77.7871 83.4373C79.1312 85.0419 80.5046 86.7631 81.8196 88.5719C83.1345 90.3807 84.3911 92.2478 85.5599 94.1733C86.6995 96.0988 87.7515 98.0534 88.6574 99.9789C89.534 101.904 90.2645 103.859 90.7905 105.726C91.4042 106.105 91.9886 106.397 92.573 106.66C93.1574 106.893 93.7419 107.097 94.2971 107.214C94.8523 107.331 95.4075 107.418 95.9335 107.447C96.4594 107.477 96.9562 107.447 97.453 107.36C99.9076 106.951 101.836 105.376 102.888 103.101C103.94 100.854 104.086 97.9367 103.005 94.8443C101.924 91.7519 99.5569 88.426 95.4659 85.4211C91.3457 82.3579 85.3846 79.528 77.0857 77.4567L75.7708 66.8082L99.6738 64.8535C100.287 64.7952 100.843 64.7077 101.339 64.5326C101.836 64.3868 102.274 64.1825 102.625 63.8908C102.976 63.6282 103.268 63.3073 103.473 62.9281C103.677 62.5488 103.794 62.1112 103.823 61.6152C102.274 60.2441 100.463 58.7854 98.6218 57.2975C96.7517 55.8096 94.8815 54.3801 93.1574 53.0673C91.4334 51.7545 89.9139 50.6459 88.8327 49.829C87.7223 49.0121 87.0794 48.5453 87.0794 48.5453L79.2773 61.0318L75.0987 61.3235L70.6278 25.4104C72.3227 25.0895 73.9591 24.7395 75.537 24.3894C77.115 24.0393 78.6052 23.6892 80.0663 23.3391C81.4982 22.989 82.8423 22.6389 84.1281 22.318C85.3846 21.9971 86.5827 21.647 87.6638 21.3553C88.2775 21.5595 88.8911 21.7637 89.4756 21.9096C90.06 22.0555 90.6152 22.2013 91.1119 22.318C91.6379 22.4347 92.1347 22.4931 92.6022 22.5514C93.0698 22.6098 93.5373 22.6389 93.9464 22.6389C94.414 22.6389 94.8523 22.6098 95.2614 22.5514C95.6705 22.4931 96.0503 22.4055 96.401 22.2888C96.7517 22.1721 97.0731 22.0263 97.3361 21.8512C97.6283 21.6762 97.8621 21.472 98.0958 21.2386L77.3195 4.4636ZM141.606 100.592L140.087 101.846C141.343 103.334 142.629 105.055 143.856 106.922C145.084 108.789 146.282 110.802 147.363 112.903C148.415 115.003 149.379 117.162 150.139 119.35C150.899 121.538 151.454 123.726 151.775 125.885C152.301 126.265 152.798 126.585 153.295 126.848C153.792 127.111 154.288 127.286 154.756 127.432C155.223 127.548 155.691 127.636 156.159 127.636C156.597 127.636 157.035 127.607 157.473 127.519C159.402 127.081 160.922 125.594 161.769 123.493C162.616 121.422 162.763 118.738 161.944 115.966C161.097 113.166 159.256 110.19 156.071 107.506C152.798 104.793 148.123 102.342 141.606 100.592ZM120.216 110.102L124.716 146.657C125.009 149.137 125.418 151.121 126.031 152.667C126.645 154.213 127.522 155.322 128.72 155.993C129.947 156.664 131.525 156.926 133.6 156.78C135.674 156.635 138.217 156.109 141.373 155.234L155.165 151.383C160.162 149.983 164.136 148.728 167.263 147.562C170.36 146.395 172.669 145.286 174.334 144.177C176 143.069 177.052 141.96 177.665 140.793C178.25 139.626 178.396 138.372 178.221 136.971C178.133 136.359 178.016 135.804 177.841 135.308C177.665 134.813 177.402 134.404 177.052 134.054C176.701 133.704 176.263 133.383 175.678 133.15C175.094 132.887 174.393 132.712 173.545 132.566L171.061 115.645L169.6 115.937C169.367 117.95 169.162 119.905 168.957 121.743C168.753 123.581 168.548 125.273 168.344 126.819C168.139 128.365 167.935 129.707 167.73 130.845C167.526 131.983 167.292 132.887 167.058 133.529C166.941 133.937 166.795 134.258 166.678 134.521C166.532 134.783 166.386 135.017 166.211 135.221C166.035 135.396 165.802 135.571 165.539 135.717C165.276 135.863 164.954 135.979 164.603 136.125L154.581 138.634L142.921 141.552C141.84 141.814 140.963 142.018 140.291 142.106C139.619 142.194 139.093 142.194 138.743 142.077C138.363 141.989 138.129 141.785 137.954 141.464C137.778 141.172 137.691 140.764 137.632 140.268L134.418 113.807C135.119 113.545 135.733 113.224 136.259 112.903C136.756 112.553 137.194 112.174 137.515 111.765C137.837 111.357 138.071 110.919 138.246 110.423C138.421 109.956 138.48 109.46 138.509 108.935L120.216 110.102ZM110.953 114.624L108.236 115.12C108.732 117.833 108.849 120.634 108.674 123.406C108.499 126.177 108.002 128.919 107.271 131.516C106.541 134.112 105.606 136.563 104.525 138.722C103.443 140.881 102.216 142.777 100.96 144.236C100.024 145.169 99.177 146.161 98.5049 147.211C97.8036 148.262 97.2776 149.37 96.9562 150.508C96.6348 151.646 96.4887 152.784 96.6056 153.921C96.7224 155.059 97.1023 156.168 97.8036 157.218C98.1835 157.743 98.6218 158.152 99.1478 158.502C99.6446 158.823 100.2 159.056 100.784 159.202C101.369 159.348 101.982 159.406 102.625 159.377C103.268 159.348 103.94 159.26 104.583 159.085C105.167 158.939 105.781 158.706 106.365 158.443C106.95 158.181 107.534 157.86 108.09 157.481C108.645 157.101 109.2 156.693 109.726 156.226C110.252 155.759 110.719 155.234 111.187 154.709C112.59 152.93 113.817 150.625 114.752 147.912C115.658 145.228 116.271 142.106 116.447 138.693C116.622 135.279 116.33 131.516 115.482 127.49C114.606 123.435 113.145 119.117 110.953 114.624ZM170.974 103.888L169.805 105.23C171.295 106.893 172.785 108.877 174.217 111.065C175.649 113.224 176.993 115.616 178.191 118.096C179.389 120.576 180.412 123.143 181.172 125.739C181.932 128.336 182.458 130.962 182.662 133.5C183.101 133.85 183.51 134.112 183.919 134.346C184.328 134.579 184.737 134.725 185.117 134.842C185.497 134.958 185.877 135.017 186.256 135.017C186.636 135.017 186.987 134.988 187.308 134.9C189.062 134.433 190.435 132.77 191.136 130.407C191.838 128.073 191.867 125.039 190.961 121.83C190.055 118.621 188.185 115.208 185.029 112.086C181.844 108.935 177.285 106.018 170.974 103.888ZM113.525 3.64673C112.94 7.55603 112.064 11.6404 110.953 15.7539C109.814 19.8966 108.411 24.0976 106.775 28.1528C105.138 32.2371 103.268 36.2048 101.193 39.8807C99.1186 43.5858 96.8393 46.97 94.3847 49.8873L96.1672 51.4044C98.6218 49.9165 101.018 48.2828 103.297 46.5323C105.547 44.8111 107.71 42.944 109.755 41.0185C111.801 39.093 113.729 37.08 115.541 35.0087C117.353 32.9665 119.047 30.8368 120.625 28.6779L147.158 28.357C146.778 29.9032 146.34 31.537 145.843 33.2582C145.347 34.9795 144.821 36.7299 144.236 38.4804C143.652 40.2308 143.038 42.0104 142.366 43.6733C141.723 45.3654 141.022 46.97 140.321 48.4578L102.07 50.5292L104.232 55.5471L161.506 51.8712L163.581 68.6462L109.58 74.1892L111.713 79.1196L164.107 73.2848L166.24 90.6724L107.359 99.5413L109.521 104.443L166.795 95.2236L167.584 101.642L169.717 101.263C170.74 101.088 171.85 100.679 172.961 100.154C174.071 99.6288 175.152 98.987 176.087 98.3452C177.022 97.7034 177.87 97.0615 178.454 96.4781C179.039 95.9237 179.389 95.457 179.389 95.1944L174.305 53.7383C174.948 53.5341 175.532 53.3007 176.058 53.0381C176.584 52.7756 177.052 52.4546 177.461 52.1629C177.87 51.842 178.221 51.5211 178.513 51.2002C178.805 50.8793 179.039 50.5583 179.214 50.2374L165.071 39.2681L159.607 47.5243L144.733 48.3411C146.457 47.0283 148.21 45.5696 149.964 44.0234C151.688 42.5063 153.382 40.9018 155.019 39.2972C156.655 37.7218 158.204 36.1464 159.636 34.6294C161.068 33.1415 162.412 31.712 163.581 30.4575C164.194 30.37 164.75 30.2825 165.246 30.195C165.743 30.1074 166.181 29.9908 166.561 29.8449C166.941 29.699 167.292 29.524 167.613 29.3198C167.935 29.1155 168.198 28.853 168.461 28.5321L153.645 14.9662L146.72 23.8351L124.132 23.8934C124.833 22.8431 125.476 21.7929 126.119 20.7135C126.733 19.6632 127.346 18.5838 127.931 17.5335C128.515 16.4832 129.041 15.433 129.567 14.3827C130.093 13.3325 130.59 12.3114 131.057 11.2903C131.145 11.2903 131.204 11.2903 131.291 11.2903C131.379 11.2903 131.437 11.2903 131.525 11.2903C131.613 11.2903 131.671 11.2903 131.759 11.2903C131.817 11.2903 131.905 11.2903 131.963 11.2903C132.723 11.3195 133.366 11.2611 133.892 11.1736C134.418 11.0861 134.827 10.9402 135.148 10.736C135.47 10.5318 135.704 10.2984 135.879 9.97746C136.054 9.68572 136.142 9.30646 136.2 8.89803L113.525 3.64673Z" fill="black"/>
</svg>
