<svg width="217" height="224" viewBox="0 0 217 224" fill="none" xmlns="http://www.w3.org/2000/svg">
<path d="M51.8946 63.8224L51.1324 65.7326C53.2057 67.0363 55.4315 68.6129 57.7183 70.4321C60.0355 72.2816 62.4138 74.3736 64.7311 76.6475C67.0483 78.9518 69.3046 81.4683 71.3475 84.1061C73.3903 86.7742 75.2198 89.5636 76.6528 92.4137C77.3236 92.5956 77.9334 92.7169 78.5432 92.7775C79.153 92.8381 79.7323 92.8381 80.2812 92.7775C80.83 92.7169 81.3483 92.5956 81.8362 92.4137C82.324 92.2317 82.7814 92.0195 83.2082 91.7466C85.4645 90.2913 86.7451 87.4716 86.8061 84.1061C86.8671 80.7104 85.7085 76.7992 83.0863 73.2518C80.4946 69.7347 76.5613 66.6421 71.1645 64.7926C65.9812 63.0341 59.5172 62.458 51.8946 63.8224ZM92.7822 46.1765C95.5873 55.7575 97.9351 65.2171 99.8865 74.5252C101.807 83.8029 103.301 92.8685 104.369 101.722C105.405 110.484 106.015 118.973 106.167 127.16C106.32 135.225 106.046 142.987 105.375 150.384C99.4291 146.564 93.7884 142.38 88.4221 137.802C83.2387 133.375 78.2688 128.554 73.5733 123.309C68.9692 118.216 64.6091 112.728 60.4014 106.815C56.2852 101.024 52.3825 94.8089 48.6017 88.1386L47.1991 90.9583C51.1628 98.7201 55.2181 105.997 59.3952 112.788C63.6639 119.701 68.0545 126.19 72.5976 132.223C77.2626 138.408 82.0801 144.169 87.1415 149.505C92.3249 155.023 97.7521 160.117 103.454 164.907C102.356 170.82 100.954 176.399 99.3072 181.674C97.6607 186.828 95.7703 191.68 93.6359 196.227C91.5321 200.654 89.2148 204.747 86.6841 208.537C84.2144 212.236 81.5313 215.602 78.6957 218.694L80.647 220.422C84.062 217.754 87.3244 214.783 90.3735 211.569C93.5445 208.234 96.502 204.626 99.2462 200.715C102.082 196.682 104.673 192.377 107.021 187.738C109.43 183.008 111.595 177.945 113.455 172.578C118.211 175.974 123.181 179.158 128.395 182.19C133.761 185.312 139.402 188.223 145.348 190.982C151.476 193.802 157.971 196.47 164.861 198.926C171.996 201.473 179.619 203.868 187.729 206.051C187.912 203.443 188.492 201.048 189.467 198.835C190.443 196.622 191.784 194.651 193.461 192.892C195.169 191.134 197.242 189.587 199.681 188.314C202.121 187.041 204.926 186.01 208.066 185.312L208.127 182.705C198.187 181.553 188.827 180.128 180.015 178.4C171.6 176.762 163.642 174.883 156.111 172.73C148.885 170.668 142.024 168.364 135.56 165.787C129.31 163.331 123.334 160.602 117.693 157.661C119.461 149.96 120.742 141.774 121.504 133.163C122.297 124.401 122.541 115.184 122.266 105.633C121.992 95.9307 121.169 85.8647 119.827 75.4954C118.455 65.0352 116.595 54.3324 114.186 43.4174C115.193 42.6594 116.046 41.8408 116.748 40.9919C117.449 40.1429 118.028 39.2637 118.425 38.3541C118.821 37.4748 119.095 36.5652 119.217 35.686C119.339 34.8067 119.309 33.9578 119.156 33.1695L92.7822 46.1765ZM35.6737 117.579L34.4541 126.25L21.9226 134.194L24.0874 137.559L34.6066 131.162L57.7183 191.589C58.0232 192.377 58.2366 193.044 58.3281 193.65C58.4196 194.287 58.4196 194.863 58.2976 195.5C58.1756 196.106 57.9317 196.773 57.5353 197.531C57.139 198.289 56.6206 199.108 55.9193 200.139L69.0302 214.328C69.2436 214.055 69.4571 213.661 69.64 213.237C69.823 212.782 69.9449 212.266 70.0669 211.66C70.1584 211.054 70.2193 210.387 70.2193 209.659C70.2193 208.931 70.1584 208.143 70.0059 207.294C71.2865 202.989 72.4756 198.683 73.5733 194.469C74.7014 190.194 75.7076 186.04 76.6223 182.099C77.5675 178.127 78.3908 174.367 79.153 171.002C79.9153 167.606 80.5556 164.574 81.0739 162.088L79.3055 160.693C78.1468 163.058 76.9577 165.362 75.8296 167.606C74.7014 169.819 73.5733 171.972 72.4756 174.034C71.4085 176.095 70.3413 178.066 69.3351 179.946C68.3289 181.826 67.3532 183.615 66.408 185.312L44.455 128.676C44.9123 128.221 45.3087 127.766 45.6441 127.342C45.9795 126.917 46.2539 126.493 46.4673 126.099C46.6808 125.704 46.8637 125.31 47.0162 124.946C47.1686 124.583 47.2601 124.219 47.3516 123.885L35.6737 117.579ZM14.7573 95.294L14.3 96.9009C15.6111 97.6589 17.0746 98.6292 18.5991 99.7206C20.1236 100.842 21.7396 102.086 23.3251 103.48C24.9106 104.875 26.4961 106.421 27.9292 108.028C29.3927 109.665 30.7343 111.394 31.832 113.152C32.2283 113.243 32.5942 113.273 32.9601 113.304C33.326 113.304 33.6614 113.273 33.9968 113.243C34.3322 113.182 34.6371 113.092 34.942 112.97C35.2469 112.849 35.5213 112.697 35.7652 112.515C37.3812 111.394 38.2349 109.211 38.2349 106.694C38.2349 104.147 37.3812 101.267 35.5823 98.8414C33.8138 96.4158 31.1307 94.4451 27.5328 93.6568C24.0569 92.8381 19.7883 93.202 14.7573 95.294Z" fill="#808080"/>
<path d="M42.7475 63.8224L41.9852 65.7326C44.0585 67.0363 46.2843 68.6129 48.5711 70.4321C50.8884 72.2816 53.2666 74.3736 55.5839 76.6475C57.9012 78.9518 60.1575 81.4683 62.2003 84.1061C64.2432 86.7742 66.0726 89.5636 67.5056 92.4137C68.1764 92.5956 68.7862 92.7169 69.396 92.7775C70.0059 92.8381 70.5852 92.8381 71.134 92.7775C71.6828 92.7169 72.2012 92.5956 72.689 92.4137C73.1768 92.2317 73.6342 92.0195 74.0611 91.7466C76.3174 90.2913 77.598 87.4716 77.6589 84.1061C77.7199 80.7104 76.5613 76.7992 73.9391 73.2518C71.3474 69.7347 67.4142 66.6421 62.0174 64.7926C56.8035 63.0341 50.3701 62.458 42.7475 63.8224ZM83.635 46.1765C86.4402 55.7575 88.7879 65.2171 90.7393 74.5252C92.6602 83.8029 94.1542 92.8685 95.2214 101.722C96.2581 110.484 96.8679 118.973 97.0203 127.16C97.1728 135.225 96.8984 142.987 96.2276 150.384C90.282 146.564 84.6412 142.38 79.2749 137.802C74.0916 133.375 69.1216 128.554 64.4261 123.309C59.8221 118.216 55.4619 112.728 51.2543 106.815C47.1381 101.024 43.2353 94.8089 39.4545 88.1386L38.0519 90.9583C42.0157 98.7201 46.0709 105.997 50.2481 112.788C54.5167 119.701 58.9074 126.19 63.4504 132.223C68.1155 138.408 72.9329 144.169 77.9943 149.505C83.1777 155.023 88.605 160.117 94.3067 164.907C93.209 170.82 91.8065 176.399 90.16 181.674C88.5135 186.828 86.6231 191.68 84.4888 196.227C82.3849 200.654 80.0677 204.747 77.537 208.537C75.0673 212.236 72.3841 215.602 69.5485 218.694L71.4999 220.422C74.9148 217.754 78.1773 214.783 81.2263 211.569C84.3973 208.234 87.3549 204.626 90.099 200.715C92.9346 196.682 95.5263 192.377 97.8741 187.738C100.283 183.008 102.417 177.945 104.308 172.578C109.064 175.974 114.034 179.158 119.248 182.19C124.614 185.312 130.255 188.223 136.2 190.982C142.329 193.802 148.823 196.47 155.714 198.926C162.849 201.473 170.472 203.868 178.582 206.051C178.765 203.443 179.344 201.048 180.32 198.835C181.296 196.622 182.637 194.651 184.314 192.892C186.022 191.134 188.095 189.587 190.534 188.314C192.974 187.041 195.779 186.01 198.919 185.312L198.98 182.705C189.04 181.553 179.68 180.128 170.868 178.4C162.453 176.762 154.495 174.883 146.964 172.73C139.737 170.668 132.877 168.364 126.413 165.787C120.163 163.331 114.186 160.602 108.546 157.661C110.314 149.96 111.595 141.774 112.357 133.163C113.15 124.401 113.394 115.184 113.119 105.633C112.845 95.9307 112.022 85.8647 110.68 75.4954C109.308 65.0352 107.448 54.3324 105.039 43.4174C106.045 42.6594 106.899 41.8408 107.6 40.9919C108.302 40.1429 108.881 39.2637 109.277 38.3541C109.674 37.4748 109.948 36.5652 110.07 35.686C110.192 34.8067 110.162 33.9578 110.009 33.1695L83.635 46.1765ZM26.5266 117.579L25.307 126.25L12.7754 134.194L14.9402 137.559L25.4594 131.162L48.5711 191.589C48.876 192.377 49.0895 193.044 49.1809 193.65C49.2724 194.287 49.2724 194.863 49.1504 195.5C49.0285 196.106 48.7846 196.773 48.3882 197.531C47.9918 198.289 47.4735 199.108 46.7722 200.139L59.8526 214.328C60.066 214.055 60.2794 213.661 60.4624 213.237C60.6453 212.782 60.7673 212.266 60.8892 211.66C60.9807 211.054 61.0417 210.387 61.0417 209.659C61.0417 208.931 60.9807 208.143 60.8283 207.294C62.1088 202.989 63.298 198.683 64.3956 194.469C65.5238 190.194 66.5299 186.04 67.4447 182.099C68.3899 178.127 69.2131 174.367 69.9754 171.002C70.7376 167.606 71.3779 164.574 71.8963 162.088L70.1278 160.693C68.9692 163.058 67.7801 165.362 66.6519 167.606C65.5238 169.819 64.3956 171.972 63.298 174.034C62.2308 176.095 61.1636 178.066 60.1575 179.946C59.1513 181.826 58.1756 183.615 57.2304 185.312L35.2468 128.676C35.7042 128.221 36.1006 127.766 36.436 127.342C36.7713 126.917 37.0458 126.493 37.2592 126.099C37.4726 125.704 37.6556 125.31 37.808 124.946C37.9605 124.583 38.0519 124.219 38.1434 123.885L26.5266 117.579ZM5.61019 95.294L5.15283 96.9009C6.46392 97.6589 7.92746 98.6292 9.45197 99.7206C10.9765 100.842 12.5925 102.086 14.178 103.48C15.7635 104.875 17.349 106.421 18.782 108.028C20.2456 109.665 21.5871 111.394 22.6848 113.152C23.0812 113.243 23.4471 113.273 23.8129 113.304C24.1788 113.304 24.5142 113.273 24.8496 113.243C25.185 113.182 25.4899 113.092 25.7948 112.97C26.0997 112.849 26.3741 112.697 26.6181 112.515C28.234 111.394 29.0878 109.211 29.0878 106.694C29.0878 104.147 28.234 101.267 26.4351 98.8414C24.6667 96.4158 21.9835 94.4451 18.3857 93.6568C14.9098 92.8381 10.6411 93.202 5.61019 95.294Z" fill="#333333"/>
</svg>
