<svg xmlns="http://www.w3.org/2000/svg" viewBox="0 0 297.32 175.61">
    <defs>
        <style>.cls-1{fill:#fff;} svg {filter: drop-shadow(0px 2px 4px #00000050)}</style>
    </defs>
    <g id="图层_2" data-name="图层 2">
        <g id="图层_1-2" data-name="图层 1">
            <path class="cls-1"
                d="M38.49,44.61l57.67-.5c6.43-.06,6.45-10.06,0-10l-57.67.5c-6.44,0-6.45,10,0,10Z" />
            <path class="cls-1"
                d="M75.5,46.46a311.83,311.83,0,0,1-73.89,98c-4.82,4.28,2.27,11.33,7.07,7.07a319.32,319.32,0,0,0,75.46-100c2.78-5.78-5.84-10.86-8.64-5Z" />
            <path class="cls-1"
                d="M72.93,87.31,74,111.6c.26,5.76,7.93,6.63,9.82,1.33l.46-1.28c2.17-6.08-7.49-8.69-9.64-2.66l-.46,1.28L84,111.6l-1.1-24.29c-.29-6.41-10.29-6.44-10,0Z" />
            <path class="cls-1"
                d="M87.76,87.33a102.62,102.62,0,0,1,9.09,8,5,5,0,1,0,7.08-7.07,102.54,102.54,0,0,0-9.1-7.95c-2.13-1.65-5-2.08-7.07,0-1.72,1.73-2.14,5.41,0,7.07Z" />
            <path class="cls-1"
                d="M121.5,83.26l44-6c6.35-.87,3.65-10.5-2.66-9.64l-44,6c-6.34.86-3.64,10.5,2.66,9.64Z" />
            <path class="cls-1"
                d="M231.54,50.77Q249,47.22,266.26,42.7c6.22-1.63,3.58-11.28-2.66-9.65q-17.25,4.52-34.72,8.08c-6.3,1.29-3.63,10.93,2.66,9.64Z" />
            <path class="cls-1"
                d="M241.21,69.46q9-1.8,18-3.22c2.69-.43,4.13-3.76,3.49-6.15-.75-2.86-3.49-3.91-6.15-3.5q-9,1.42-18,3.23c-6.3,1.26-3.64,10.9,2.66,9.64Z" />
            <path class="cls-1"
                d="M218.61,97.26c10.88-2.18,21.75-4.36,32.65-6.41,10.72-2,22.74-5.7,33.68-4.11,6.3.91,9-8.72,2.66-9.64-11.78-1.71-23.59,1.25-35.15,3.39-12.19,2.26-24.34,4.69-36.49,7.13-6.31,1.27-3.64,10.91,2.65,9.64Z" />
            <path class="cls-1"
                d="M244.42,43.12q2.67,63.81,3.56,127.66c.09,6.43,10.09,6.45,10,0q-.9-63.84-3.56-127.66c-.27-6.41-10.27-6.44-10,0Z" />
            <path class="cls-1"
                d="M229.38,24.42a34.93,34.93,0,0,1,6.17,7.7,5,5,0,1,0,8.63-5,46.83,46.83,0,0,0-7.73-9.72,5,5,0,1,0-7.07,7.07Z" />
            <path class="cls-1"
                d="M259,4.76a81.1,81.1,0,0,1-11.58,32.63c-3.37,5.5,5.27,10.53,8.64,5A92.81,92.81,0,0,0,269,4.76c.78-6.37-9.23-6.32-10,0Z" />
            <path class="cls-1"
                d="M189.45,65a158.17,158.17,0,0,1,21.36-3.89c6.33-.7,6.4-10.71,0-10a179,179,0,0,0-24,4.24C180.56,57,183.2,66.6,189.45,65Z" />
            <path class="cls-1"
                d="M192.44,35.92a382.63,382.63,0,0,1,.78,107.67c-.85,6.36,9.16,6.3,10,0a391.38,391.38,0,0,0-1.14-110.33c-1-6.34-10.59-3.64-9.64,2.66Z" />
            <path class="cls-1"
                d="M194,63.15a61.19,61.19,0,0,1-18.92,22.64c-5.16,3.74-.18,12.42,5.05,8.64a71.65,71.65,0,0,0,22.5-26.23c2.86-5.74-5.76-10.82-8.63-5.05Z" />
            <path class="cls-1"
                d="M204.3,70.89A81.06,81.06,0,0,1,217,80.77c4.68,4.41,11.77-2.65,7.07-7.07a93.33,93.33,0,0,0-14.68-11.44c-5.47-3.42-10.5,5.23-5,8.63Z" />
            <path class="cls-1" d="M292.49,133.31c6.43,0,6.44-10,0-10s-6.45,10,0,10Z" />
        </g>
    </g>
</svg>