<svg xmlns="http://www.w3.org/2000/svg" viewBox="0 0 170.71 102.8">
    <defs>
        <style>.cls-1{fill:#fff;} svg {filter: drop-shadow(0px 2px 4px #00000050)}</style>
    </defs>
    <g id="图层_2" data-name="图层 2">
        <g id="图层_1-2" data-name="图层 1">
            <path class="cls-1"
                d="M40.74,6a10.25,10.25,0,0,1,2.39,0,6.47,6.47,0,0,1,1.77.58,4.11,4.11,0,0,1,1.35,1.58,8.68,8.68,0,0,1,.6,2.62,51.73,51.73,0,0,1,0,7.63l-.25,7.94c-.06.14-.16,1.29-.33,3.47l-.34,7.09L45.68,46l-.24,7.18a30.42,30.42,0,0,0-.35,5.57c0,2,.06,3.3,0,3.81,0,.76,0,3,0,6.87l-.07,3.06Q44.69,81,44.73,95.8a39.11,39.11,0,0,1-.32,4.42c-.22.4-.45.79-.7,1.17a2.38,2.38,0,0,1-.82.8,3.77,3.77,0,0,1-1.37.61l-1.26-.16a3.14,3.14,0,0,1-1.45-.71,1.73,1.73,0,0,1-.64-1.09,1,1,0,0,1,.21-.78,2.75,2.75,0,0,1,1.48-.43c.19,0,.32-.23.37-.61a4.7,4.7,0,0,1,.16-.78l.26-4.13.21-6.51.22-3.55a53.79,53.79,0,0,1,0-6.59l.32-6.32a120.5,120.5,0,0,0,.39-12.35l.48-11.5.3-7.47q1.28-27.51,1-28.71l-.33-1.4L40.09,10a12.36,12.36,0,0,0-2.67.5,14.59,14.59,0,0,0-2.27,1.09q-1.32.75-2,1.11a93.91,93.91,0,0,0-10.32,8,66.6,66.6,0,0,0-8.7,8.88,4.87,4.87,0,0,0-1.37,2.52c-.17,1.48-.35,4.2-.52,8.16l.06.67a.25.25,0,0,0,.31.25l.84-.18,3.05-1.49a23.69,23.69,0,0,0,3.29-1.91l5.94-2.69,2.28-1-.45-4.53c0-.38-.81-.49-2.32-.34A4.88,4.88,0,0,1,23.09,29c-.31,0-.49-.17-.54-.61a4.55,4.55,0,0,1,.67-.93l.92-.38a10.69,10.69,0,0,1,1.29-.41A5.17,5.17,0,0,0,27.18,26c.56-.12.89-.35,1-.67L28.79,23c.07-1.21.42-1.85,1.05-1.91.44,0,1.05.34,1.83,1.15a1.88,1.88,0,0,0,.7.84,1.31,1.31,0,0,0,.75.26.72.72,0,0,1,.54.18l.57.47c.13.05.22.26.25.64.1.95-.55,1.74-1.95,2.39A3.83,3.83,0,0,0,31,28a17,17,0,0,0-.13,2.59q0,1.34.09,1.8l1.65-.64,2.73-1.32a25.12,25.12,0,0,1,4.86-2l.42.39a2.91,2.91,0,0,1,.55.75l0,.48a2.3,2.3,0,0,1-.51,1.57,1.9,1.9,0,0,1-1.34.9,12.71,12.71,0,0,0-2.66,1.12l-13,6.17Q12.62,44.53,12.3,45.13a10.16,10.16,0,0,0-.61,3.45,26.26,26.26,0,0,0-.11,4.64c0,.37.35.66.94.86.79.24,1.2.54,1.24.92a21.32,21.32,0,0,1-1,5.35,19.81,19.81,0,0,1-1.62,4.83,1.13,1.13,0,0,1-1.08.68A1.4,1.4,0,0,1,9,65.45a2,2,0,0,1-.61-1.32,104.47,104.47,0,0,1,0-13.64l.07-2.21-.15-1.41H8.18l-2.67.93a15.07,15.07,0,0,1-1.75.65c-.62.19-1,.33-1.3.42a.75.75,0,0,1-.81-.49.39.39,0,0,1-.12-.28q0-.28.48-.9a8.16,8.16,0,0,1,2-1.16,16.85,16.85,0,0,1,1.71-1,19.9,19.9,0,0,0,2.65-1.64,2.51,2.51,0,0,0,.45-1.62L9,36.39l.73-6.08.48-5.77Q11.29,12,12.14,12a1.18,1.18,0,0,1,.64-.26c.32,0,.52.43.62,1.37a28.24,28.24,0,0,1-.25,5.18c0,.63,0,1.27,0,1.9a12.21,12.21,0,0,1,0,1.91,19,19,0,0,0-.2,3.74c0,.45.16.66.35.64s.7-.45,1.35-1.28l1.14-1.45A67.33,67.33,0,0,1,26,13.62q2.31-1.76,6.22-4.15a41.09,41.09,0,0,1,5-2.79A14.41,14.41,0,0,1,40.74,6ZM24.06,43.48a.67.67,0,0,1,.83.68l.2,1a.47.47,0,0,0,.57-.06,31.58,31.58,0,0,1,3.93-1.68,15.49,15.49,0,0,1,3.35-.85,3.94,3.94,0,0,1,2.42.33,2.11,2.11,0,0,1,.93,1.72A7.86,7.86,0,0,1,35.57,48l-.41,1.57a.74.74,0,0,0,.64.7c.38,0,.62.45.7,1.27a.81.81,0,0,1-.48.9,4.7,4.7,0,0,1-2,.68q-8.74,2.2-9.34,2.94c-.12.07-.25.17-.4.28a.85.85,0,0,1-.41.18,2.21,2.21,0,0,1-.88-.2.88.88,0,0,1-.72-.55A8.13,8.13,0,0,1,22,54.18a26.82,26.82,0,0,1,.28-5.32,13.81,13.81,0,0,1,1-4.54C23.42,43.8,23.68,43.52,24.06,43.48Zm9.28,2.22q0-.18-.39-.15l-.75.17a15.17,15.17,0,0,0-3.8,1.1,13.57,13.57,0,0,0-3.18,1.6c-.46.49-.62,1.46-.47,2.91a6,6,0,0,0,.24,1.5c0,.13.12.2.31.21a.53.53,0,0,0,.46-.19,22.87,22.87,0,0,1,3.79-1.14q1.72-.93,3.49-5.21Z" />
            <path class="cls-1"
                d="M88.59,44.46q-1.8,4.45-1.32,4.46V49l-.67,1.62A31.94,31.94,0,0,0,85,55.85l-.67,3v.19a3.45,3.45,0,0,0,.38,1,2.52,2.52,0,0,1,.57,1.71,2.09,2.09,0,0,1-.57,1.47,2,2,0,0,1-1.52.61,6.19,6.19,0,0,0-1.14.1.68.68,0,0,0-.57.38,1.23,1.23,0,0,1-1,.38,3.75,3.75,0,0,1-1.85-.57c-.67-.38-1-.76-1-1.14,0-.19-.47-.29-1.42-.29a47.92,47.92,0,0,0-7.41.76,20.37,20.37,0,0,1-4.65.38c-2.72,0-4.3-.31-4.74-.94-.26-.51-.38-3.52-.38-9q0-9.31.66-17.76.66-4.26,2.52-12.62t2.32-9.21a3.41,3.41,0,0,0,.52-.33,1,1,0,0,1,.53-.24,1.05,1.05,0,0,1,.61.24,4,4,0,0,0,.52.33,2.17,2.17,0,0,1,.1.85,35.63,35.63,0,0,1-1,6.27L65,28.13a11.1,11.1,0,0,0,2-1.33,69.34,69.34,0,0,1,9.21-7.21A47.46,47.46,0,0,1,83,15.93a14.58,14.58,0,0,1,5.36-1.38,4.45,4.45,0,0,1,4.28,2.76,13.16,13.16,0,0,1,1.14,5.41Q93.82,29.65,88.59,44.46Zm-3.7-3a108.86,108.86,0,0,0,3.42-11.34,36.09,36.09,0,0,0,1.14-7.64A5.28,5.28,0,0,0,89,20.15c-.31-.69-.6-1-.85-1a12,12,0,0,0-3.23,1.14,31.92,31.92,0,0,0-5.65,2.52c-2,1.1-4.66,2.8-8,5.07a50.68,50.68,0,0,0-4.89,3.66,6.5,6.5,0,0,0-1.8,2.8,18.79,18.79,0,0,0-.62,4.94q0,1.51-.09,2.37-.2,7-.19,13.29c0,2.53.06,4.46.19,5.79q.18.39,4.55-.95a39,39,0,0,1,7.79-1.42l3.32-.19,1.14-3.42c.7-2.15,1-3.38.85-3.7h.1L82,50l-.67,1a25.81,25.81,0,0,0-4.27.76q-4.56.57-5.79.57a4.29,4.29,0,0,1-2.47-.52,2.38,2.38,0,0,1-.66-2,2.11,2.11,0,0,1,.19-.9,2.67,2.67,0,0,0,.19-.52,17.13,17.13,0,0,1,2.75-2.09q1.91-1.43,3.42-2.76c1-.88,1.68-1.45,2-1.71a6.91,6.91,0,0,0,1.43-1.42,4.14,4.14,0,0,0,1-1.42c0-.26-.29-.43-.86-.53a21.46,21.46,0,0,0-2.94-.14,21.93,21.93,0,0,1-3.61-.28,1.28,1.28,0,0,1-.38-1.62c0-.57.54-1,1.62-1.28a15.54,15.54,0,0,1,3.89-.43,16.2,16.2,0,0,1,3.94.43,3.71,3.71,0,0,1,2.23,1.28,2.35,2.35,0,0,1,.66,1.71A3.22,3.22,0,0,1,83,40q-.63.91-2.71,3.28a46.66,46.66,0,0,1-5,4.84l8.07-2.09Z" />
            <path class="cls-1"
                d="M123.14,6.36a.85.85,0,0,1,.76.57,9.4,9.4,0,0,1,.19,2.18,37.51,37.51,0,0,1-.28,4.66,10.16,10.16,0,0,0-.29,2.27l.19.1a11.9,11.9,0,0,0,2-.57,7.15,7.15,0,0,1,1.8-.57,1.9,1.9,0,0,1,1.14.57c.57.38.85.73.85,1,0,.89-1.32,1.68-4,2.38a18,18,0,0,1-1.76.61c-.73.23-1.12.4-1.19.53s-.42,1.72-.71,4.6-.36,4.38-.23,4.51a11.66,11.66,0,0,0,1.32-.57c.83-.38,1.68-.73,2.57-1a20,20,0,0,1,5.12-1.71,1.47,1.47,0,0,1,1.33.76,2.06,2.06,0,0,1,.48,1.14,1.68,1.68,0,0,1-.81,1.28,15,15,0,0,1-2.7,1.47c-2.54,1-4.37,1.71-5.51,2.09A4.54,4.54,0,0,0,121.2,34a9.81,9.81,0,0,0-.71,3.41l-.29,2.38,1.33-.38a11.25,11.25,0,0,1,3.7-.38,47,47,0,0,1,4.7.14,2.66,2.66,0,0,1,1.66.9,3.91,3.91,0,0,1,.86,1.24,5.28,5.28,0,0,1,.28,2,17.54,17.54,0,0,1-.09,2,11.19,11.19,0,0,1-1.38,4.18,40,40,0,0,1-3.08,5.32c-1.14,1.64-2,2.53-2.47,2.66h-.29a3.37,3.37,0,0,1-1.56-.43,1.54,1.54,0,0,1-.91-1q-.09-.28.48-1.23a25.22,25.22,0,0,1,1.42-2.09Q129,46.8,129,43.76c0-.56-.19-.91-.57-1a19.55,19.55,0,0,0-3.23-.38,12.07,12.07,0,0,0-4.93.86c-.38.06-.7.38-1,.94a5.16,5.16,0,0,1-.1,1.14q-.37,1.71-1,8.36c-.06.51-.19,1.47-.38,2.89s-.47,4.61-.85,9.54c-.13,2.22-.25,4-.38,5.27a9.11,9.11,0,0,1-.43,2.42,1.69,1.69,0,0,1-.9.76.92.92,0,0,1-.57.15,2.1,2.1,0,0,1-.57-.34,3.66,3.66,0,0,1-.66-2.56,35.4,35.4,0,0,1,.28-3.8c.19-.76.48-3.92.85-9.49l.29-3.89q.19-4.28.47-6.08c.13-.82.23-1.58.29-2.28a5.32,5.32,0,0,0,0-1.42c-.06-.06-.37.06-.9.38s-1.13.63-1.76,1a9.24,9.24,0,0,1-2.75.57,1.73,1.73,0,0,1-1-.19c-.25-.19-.44-.11-.57.23a20.36,20.36,0,0,0-.47,2.9,46.21,46.21,0,0,0-.38,6.36v1.24a3.29,3.29,0,0,1-.57,2.27c-.25.26-.44.38-.57.38a2.21,2.21,0,0,1-1.14-.66,4.51,4.51,0,0,1-1-.9,3,3,0,0,1-.52-.81c-.12-.51.11-2.58.71-6.22a71.29,71.29,0,0,1,1.57-7.64,6.91,6.91,0,0,1,.86-2.09,1.27,1.27,0,0,1,1-.47c.38,0,.62.11.71.33A4.2,4.2,0,0,1,109,43l-.1,1.9,3.52-1.7c.25-.13,1-.46,2.13-1a4.1,4.1,0,0,0,2.19-1.81,10.48,10.48,0,0,0,.61-3c0-.31,0-.82.1-1.51s0-1-.1-1l-2.42.71c-1.17.35-2.45.78-3.84,1.28q-7.89,2.85-11.25,3.94a19.19,19.19,0,0,1-4.42,1.1,1,1,0,0,1-.76-.29c-.31-.31-.47-.5-.47-.57s.22-.38.66-.76a36.21,36.21,0,0,1,5.37-2.61q4.89-2.13,12.2-5A37.77,37.77,0,0,0,117,31a2.27,2.27,0,0,0,1.24-1.38,25.46,25.46,0,0,0,.42-3.89c.13-.76.24-1.58.34-2.47a8.12,8.12,0,0,1,.23-1.52v-.38c0-.25-.09-.38-.28-.38l-1.24.29a28.45,28.45,0,0,1-3.7.56h-1a4.25,4.25,0,0,1-1.29-.14,2,2,0,0,1-.8-.52,2,2,0,0,1-.67-1.42,25.73,25.73,0,0,1,1.71-6c.51-1.21.9-2.23,1.19-3.09a15,15,0,0,1,.71-1.85,1.6,1.6,0,0,1,.67-1.09,2,2,0,0,1,1.23-.43,1.77,1.77,0,0,1,.85.28A1.84,1.84,0,0,1,117,8.92a22.13,22.13,0,0,1-1.32,6.17,21.68,21.68,0,0,0-1.14,3.61l.28.1a14.88,14.88,0,0,0,2.56-.57l2.57-.86.57-2.28.38-2.27.47-2.76a12.12,12.12,0,0,1,.85-3.22A1.38,1.38,0,0,1,123.14,6.36Zm21,21.17c.22-.12.4-.16.52-.09q.48,0,.57.66a33.3,33.3,0,0,1,.1,3.51A39.49,39.49,0,0,1,144.6,39l-.38,1.9c-.38,1.77-.6,2.91-.66,3.41A7.55,7.55,0,0,1,142.7,47a1.29,1.29,0,0,1-1.42.48,2.41,2.41,0,0,1-1.14-2.28,11,11,0,0,1,.47-2.94c.25-1.14.41-2,.48-2.57q.57-4.36,1.33-8.35A12.51,12.51,0,0,1,143.74,28,.94.94,0,0,1,144.17,27.53ZM161.83.24a1.08,1.08,0,0,1,.62-.24.61.61,0,0,1,.61.29,3.53,3.53,0,0,1,.15,1.32q0,3.14-2.38,17.09a123.22,123.22,0,0,0-1.61,12.63q-.57,6.36-1.57,14.19T155.9,57.91q-1,4.85-2.09,12.63l-.48,2.94q-.66,5.59-1.52,10.92l-1.13,8.54a18.89,18.89,0,0,1-.48,2,13.92,13.92,0,0,0-.47,2.19,8.43,8.43,0,0,1-.91,2,2.63,2.63,0,0,1-1,.9,2.25,2.25,0,0,1-.67.1,2.61,2.61,0,0,1-1.33-.48q-1.14-.95-1.14-1.71a2.35,2.35,0,0,1,.67-1.52,13.43,13.43,0,0,0,1.19-3.89q.62-3,1.85-11.87c.12-1,.25-1.78.38-2.51s.22-1.35.28-1.85q1-7.69,1.8-12.53t1.52-8.93q.76-5,1.43-11.39c.06-.63.16-1.33.28-2.09s.22-1.55.29-2.37l.57-3.51c.12-.57.25-1.52.38-2.85q.57-5.22,1.33-9.83t2.18-11.34c.57-2.66,1.07-4.94,1.52-6.84s.79-3.19,1-3.89A1.08,1.08,0,0,1,161.83.24Z" />
            <path class="cls-1"
                d="M1.11,74.87c5.2,2.19,9.32,6.25,15.19,6.71,5.61.44,10.89-2.33,15.77-4.72a48.17,48.17,0,0,1,8-3.34A8.12,8.12,0,0,1,47.64,75c2,1.5,3.81,3.38,6,4.68a16.72,16.72,0,0,0,7.93,2.2c6,.24,11.59-2,17.19-3.72a36,36,0,0,1,9.36-1.9A16.8,16.8,0,0,1,97,78.42c2.68,1.44,5.26,2.93,8.34,3.32a25.44,25.44,0,0,0,9.61-1c6.22-1.65,12.17-4.13,18.26-6.17,11.11-3.73,25.52-6.28,34.95,2.71,1.39,1.33,3.52-.79,2.12-2.12-8.05-7.68-20.13-8.12-30.4-5.67-6.26,1.49-12.23,3.92-18.28,6a83.43,83.43,0,0,1-9.26,2.77c-3.28.73-6.67,1-9.83-.36-2.83-1.2-5.32-3.07-8.29-4a21,21,0,0,0-9.12-.42c-6.12.9-11.75,3.65-17.8,4.83a20.6,20.6,0,0,1-8.42.15,16.36,16.36,0,0,1-7-4c-1.94-1.65-3.94-3.37-6.44-4.1-2.85-.84-5.82,0-8.51,1-5.83,2.22-11.27,6.21-17.56,7.08C12.58,79.43,7.72,74.42,1.91,72A1.52,1.52,0,0,0,.06,73a1.54,1.54,0,0,0,1.05,1.85Z" />
        </g>
    </g>
</svg>