<svg xmlns="http://www.w3.org/2000/svg" xmlns:xlink="http://www.w3.org/1999/xlink"
    viewBox="0 0 215.03 101.49">
    <defs>
        <style>
            svg {
                filter: drop-shadow(0 3px 5px rgba(0, 0, 0, 0.16));
                stroke: linear-gradient(
                0deg,
                hsl(126deg 100% 50%) 0%,
                hsl(81deg 100% 45%) 11%,
                hsl(57deg 100% 42%) 22%,
                hsl(39deg 100% 50%) 33%,
                hsl(28deg 100% 50%) 44%,
                hsl(2deg 100% 56%) 56%,
                hsl(338deg 100% 50%) 67%,
                hsl(325deg 100% 50%) 78%,
                hsl(311deg 100% 50%) 89%,
                hsl(287deg 100% 50%) 100%
                );
                stroke-width: 2px;
                fill: white;
            }

        </style>

    </defs>
    <g id="图层_2" data-name="图层 2">
        <g id="图层_1-2" data-name="图层 1">
            <path class="cls-1"
                d="M23.18,9.59A.84.84,0,0,1,24,10a9.26,9.26,0,0,1-.43,3.07,60.42,60.42,0,0,1-1.79,6.14,40.77,40.77,0,0,0-1.28,4.85c.12.12,1.52-.35,4.22-1.4a62.53,62.53,0,0,0,5.84-2.52A3.54,3.54,0,0,1,32,19.73a2,2,0,0,1,1.45.51,1.7,1.7,0,0,1-.26,2.64,21.56,21.56,0,0,1-3.92,1.75c-2.15.82-4.46,1.63-6.9,2.43l-3.66,1.45-3.41,6.56c-2.61,4.83-4.21,7.64-4.77,8.43a30.7,30.7,0,0,1-5.24,6.18q-2.78,2.43-4,1.92A1.59,1.59,0,0,1,0,50.07a2.21,2.21,0,0,1,1.28-1.88,14.56,14.56,0,0,0,3-2.56A26,26,0,0,0,7.33,41.8q2.55-3.66,5-8c1.64-2.93,2.27-4.28,1.87-4.05a34.57,34.57,0,0,1-3.58.94c-1.76.39-3.27.68-4.51.85a6.37,6.37,0,0,1-1.2.08c-1.3,0-2-.45-2-1.36a1.5,1.5,0,0,1,.85-1.28,1.54,1.54,0,0,1,1.54-.17c.23.23.72.26,1.49.09s2.2-.6,4.3-1.28l5.12-1.79,1.45-3.67q.25-.51,1.53-4.17l.85-2.22a37.45,37.45,0,0,1,1.62-4.6C22.18,10.1,22.67,9.59,23.18,9.59Zm2,28.2A11.91,11.91,0,0,1,28,39.33L30.51,41a26.5,26.5,0,0,1,4,2.13A116.32,116.32,0,0,1,46.27,51.6c.4.28.91.68,1.54,1.19a13.56,13.56,0,0,0,1.36,1,12,12,0,0,0,2,1.71c.45.45,1.68,1.46,3.66,3s3.67,2.83,5,3.8S63.37,65,66,67.11A42.92,42.92,0,0,1,70.56,71a2.88,2.88,0,0,1,.77,1.79,1.69,1.69,0,0,1-.6,1.36,1.15,1.15,0,0,1-.85.34c-.68,0-1.62-.59-2.81-1.79a35.3,35.3,0,0,0-3.33-2.89,16.29,16.29,0,0,1-2.3-1.79A29.46,29.46,0,0,0,58,65.57q-4.17-3.06-6.77-5.15t-6.52-5.67q-4-3.57-6.78-5.66T30.51,44c-4.83-3.06-6.88-5-6.14-5.7C24.66,38,24.91,37.79,25.14,37.79Z" />
            <path class="cls-2"
                d="M82.64,16.19h.09a1.47,1.47,0,0,1,1,.51,1.55,1.55,0,0,1,.51,1.11L83.67,28c-.12.28,0,.42.34.42a8.52,8.52,0,0,0,1.4-.3c.77-.19,1.41-.38,1.92-.55,3.12-.91,5.71-1.59,7.75-2l3.75-.77.77.51a1.16,1.16,0,0,1,.51.85.58.58,0,0,1-.17.38,3.39,3.39,0,0,1-.34.39q-.34.42-4.56,1.75c-2.81.88-5.21,1.54-7.2,2-1.31.28-2.4.54-3.28.76s-1.32.43-1.32.6A16.23,16.23,0,0,0,82.9,35c-.12,1.68-.2,2.86-.26,3.54l-.59,7.75c-.12,1-.25,2.1-.39,3.41s-.3,2.81-.47,4.52c-.56,4.2-1.08,8.86-1.53,14L78.55,81c-.11,1.81-.17,3-.17,3.49-.11,1.59-.2,2.47-.25,2.64a5.69,5.69,0,0,1-1,2.56,1.34,1.34,0,0,1-1.7.25,1.67,1.67,0,0,1-.68-.76,3.22,3.22,0,0,1-.17-1.2,4.7,4.7,0,0,1-.09-1.1,8.07,8.07,0,0,1,.34-2.31l.34-5.45.09-2.81a17.25,17.25,0,0,1,.21-1.75c.14-.94.33-2.51.56-4.73l1.1-10,3-26.24c0-.23-.26-.35-.77-.35a41.08,41.08,0,0,0-6.9,1.54L68,35.88c-3,.79-5.2,1.36-6.74,1.7a73.11,73.11,0,0,1-7.75,1.88.82.82,0,0,1-.64-.39,1.38,1.38,0,0,1-.3-.47c-.11-.11-.17-.2-.17-.25a1.63,1.63,0,0,1,.38-.94,1.87,1.87,0,0,1,.9-.68l13.21-3.67c.91-.22,3.19-.85,6.86-1.87s5.52-1.62,5.58-1.79l.47-.26a1.17,1.17,0,0,0,.42-.34.64.64,0,0,0,.13-.42,39.59,39.59,0,0,1,.56-5.88,36.1,36.1,0,0,1,1-5.54C82.16,16.45,82.42,16.19,82.64,16.19Zm5-16.1A1.11,1.11,0,0,1,88.18,0c.34,0,.51.28.51.85q0,1.36-3.06,4.69a69.92,69.92,0,0,1-8.31,6.82,55.54,55.54,0,0,1-9.16,5.36c-.69.35-1.45.69-2.3,1a5.94,5.94,0,0,1-1.79.51,2.06,2.06,0,0,1-1.37-.38,1.75,1.75,0,0,1-.42-1.33A2.34,2.34,0,0,1,62.7,16a5.13,5.13,0,0,1,2-1c3.13-1.48,5.38-2.6,6.78-3.37s3.7-2.23,6.94-4.39q3.41-2.38,6.56-5A8,8,0,0,1,87.67.09Z" />
            <path class="cls-3"
                d="M131.92,22.19h.25l2.56-.68,2.73-.85.25-2a32.54,32.54,0,0,0,.34-5.11l.17-7.16c0-.11,0-.17-.08-.17a1.16,1.16,0,0,0-.68.42,3.09,3.09,0,0,1-.6.81.87.87,0,0,1-.6.22s-.08-.09-.08-.26a7.37,7.37,0,0,1,1-3.15c.68-1.31,1.22-2,1.62-2,.68,0,1.16.51,1.45,1.53a53.52,53.52,0,0,1,.25,5.71c0,2-.05,3.55-.17,4.69a8.28,8.28,0,0,0,.17,2.3,9.46,9.46,0,0,1,.26,1.79q0,1.11.09,1.11l5.79-1.62q6.39-2,7.93-1.79,2,0,2,1.53c0,.51-.4,1-1.19,1.49A10.38,10.38,0,0,1,152,20.23l-12.27,3.58-.43,3.07c-.74,6-1.87,9.71-3.41,11.25a15.16,15.16,0,0,0-3.24,2.81,1.35,1.35,0,0,1-1,.68q-1.62,0-2-6.13,0-2.22-.26-6.05c0-1.2-.28-1.79-.85-1.79a2.23,2.23,0,0,0-.81.25,7.54,7.54,0,0,1-1.15.43l-3.15.85-3.5,1,.26,3.24.51,9.46q-.09-1.36.51,11a10.87,10.87,0,0,0,.17,2,.66.66,0,0,0,.43.47,3.5,3.5,0,0,0,1.1.13,5.94,5.94,0,0,0,3.07-.86l2.56-1.53,1.79-.77,7.75-4.86,8.18-4.85a42.47,42.47,0,0,1,5.12-3.24c2.5-1.42,3.94-2.13,4.34-2.13h.68c1.25,0,1.88.45,1.88,1.36s-.77,1.76-2.3,2.56L151,45q-10.92,6.82-12.79,7.58a56.31,56.31,0,0,0-6.56,3.58,35.79,35.79,0,0,1-5.71,2.9,10.18,10.18,0,0,1-3.32.94,4.23,4.23,0,0,1-1.11-.17c-.4-.11-.68-.2-.85-.26a4.87,4.87,0,0,1-2.3-2.38,15.2,15.2,0,0,1-.77-5.29L117.35,38l-.26-5.11V31.14l-21,6.22a8.42,8.42,0,0,1-2.82.68.83.83,0,0,1-.76-.42,1.82,1.82,0,0,1-.26-.94.9.9,0,0,1,.43-.85l.72-.26,1.15-.42c2.67-1,4.21-1.51,4.6-1.62l5-1.71c2.38-1,4.46-1.7,6.22-2.21l6.64-2.3V24.49a26.43,26.43,0,0,0-.17-2.64,13.43,13.43,0,0,1-.25-2.64V18.1c0-1,.25-1.45.77-1.45.11,0,.26.13.46.39a2.75,2.75,0,0,1,.47,1.06,13.32,13.32,0,0,1,.51,2.26c.17,1.05.29,1.78.34,2.17l.69,3.84,4.6-1.54,4.43-1.53-.26-3.83-.85-13.3A8.18,8.18,0,0,1,128,3.4c.19-.65.46-1,.8-1s.67.3,1,.9a6.85,6.85,0,0,1,.64,2.51Zm4.34,3.07a7.15,7.15,0,0,0-2.3.6l-1.62.68.26,2.56.34,5.36.43,1.37,1.1-1.88a23.54,23.54,0,0,0,1.41-4.26,23.12,23.12,0,0,0,.9-4.17C136.78,25.35,136.6,25.26,136.26,25.26Z" />
            <path class="cls-4"
                d="M195.43,3a3.92,3.92,0,0,1,2.55.76,3.09,3.09,0,0,1,1.11,2.48,21.21,21.21,0,0,1-1.45,6,23.22,23.22,0,0,1-2.21,4.9,2.72,2.72,0,0,1-2.3,1.15,15.46,15.46,0,0,0-3.63.47c-1.27.31-1.89.58-1.83.81s-.08,1-.6,2.09a13.8,13.8,0,0,1-1.87,3,176.61,176.61,0,0,1-12.57,14.11,168.65,168.65,0,0,1-14,13q-1.79,1.28-4.85,3.92a9.91,9.91,0,0,1-2.82,2,1.67,1.67,0,0,1-1.57-.51,1.57,1.57,0,0,1-.56-1.53,3.29,3.29,0,0,1,.43-.86,16.8,16.8,0,0,1,1.66-1.57c.94-.82,2.23-2,3.88-3.37l4.85-4.09A42.62,42.62,0,0,0,164,41.84q5.21-4.44,13.3-12.74t8.09-9.25a.74.74,0,0,0-.34-.13,1.62,1.62,0,0,0-.6.05,9.19,9.19,0,0,1-2.89.59,3,3,0,0,1-1.71-.51,1.62,1.62,0,0,1-.72-.94,13.86,13.86,0,0,1-.05-2.72,39.86,39.86,0,0,1,.94-5.33,37.89,37.89,0,0,1,1.62-5.41c.23-.62.6-.94,1.11-.94s.77.32.94.94l.25.85,2.22-.85a34.15,34.15,0,0,1,4.68-1.53A16.58,16.58,0,0,1,195.43,3ZM182,39.45q.51,0,1.11,1a8.38,8.38,0,0,1,.34,3.16l-.08,3.58c-.12,2.55-.25,4.3-.39,5.24a10.21,10.21,0,0,1-.64,2.43,11.22,11.22,0,0,1-1.15,1.78,1.44,1.44,0,0,1-1.15.43c-.79,0-1.19-.54-1.19-1.62a6.64,6.64,0,0,1,.43-2,52.92,52.92,0,0,0,1.06-5.58,41.22,41.22,0,0,0,.55-5.67,4.43,4.43,0,0,1,.43-2.55A1.46,1.46,0,0,1,182,39.45ZM188.69,7.5a20.16,20.16,0,0,0-2.81.76,13.56,13.56,0,0,0-2.43.85,2.49,2.49,0,0,0-.64,1.45,20,20,0,0,0-.68,5.29,3.13,3.13,0,0,0,.17,1.44.52.52,0,0,0,.43.26A6.64,6.64,0,0,0,184.6,17a7.17,7.17,0,0,0,1.62-.73.91.91,0,0,0,.43-.81,4,4,0,0,1,.34-1.78l.17-.52c0-.17-.11-.22-.34-.17a2.45,2.45,0,0,1-.43.09,4.66,4.66,0,0,1-.81.25,2.09,2.09,0,0,0-.64.26,1.86,1.86,0,0,1-.68-.13.62.62,0,0,1-.42-.38,1.72,1.72,0,0,1-.34-.68.94.94,0,0,1,.55-.77,12.84,12.84,0,0,1,1.83-.85,13.44,13.44,0,0,0,2.17-1.19,2.09,2.09,0,0,0,.73-1.28C188.78,7.67,188.75,7.38,188.69,7.5Zm5,25.82a1.72,1.72,0,0,1,.73.17.74.74,0,0,1,.46.42q.69.77.69,7.5,0,4.19-.26,10.57-.51,11.16-.68,12.27-.51,6.39-1.36,14.15c-.23,1.07-.54,3.32-.94,6.73s-.68,6.42-.85,9c-.12,1.87-.27,3.42-.47,4.64a5.61,5.61,0,0,1-.56,2.09,1.16,1.16,0,0,1-1.1.6,3.26,3.26,0,0,1-1.37-.43c-.45-.34-.68-1.59-.68-3.75a103.82,103.82,0,0,1,1-11.5c.8-4.89,1.2-7.61,1.2-8.18a43.74,43.74,0,0,0,.51-4.43q.67-4.86,1.87-19.82t1.11-17a17.67,17.67,0,0,1-.08-2c0-.56,0-.85.08-.85A.92.92,0,0,1,193.72,33.32ZM195.6,6.56c0-.29-.06-.46-.17-.51a2,2,0,0,0-.77-.09,7.3,7.3,0,0,0-2.3.55c-.74.32-1.11.67-1.11,1.07,0,.23.14.34.43.34l.85-.08h.6a1.15,1.15,0,0,1,1,.51,1.33,1.33,0,0,1-.22,1.57,5,5,0,0,1-2.08,1.41,3.89,3.89,0,0,0-1.37.81,4.45,4.45,0,0,0-.68,1.49,12.74,12.74,0,0,1-.17,1.41,2.61,2.61,0,0,0-.08.46,6.53,6.53,0,0,0,1.7-.25,5.33,5.33,0,0,0,1.11-.34,2.08,2.08,0,0,0,.72-.94c.26-.51.58-1.22,1-2.13a24.9,24.9,0,0,0,1.54-4.52Zm-1.45,17.81A53.08,53.08,0,0,1,208,29q7.08,3.5,7.08,7.67a2.64,2.64,0,0,1-.22,1.23,1.23,1.23,0,0,1-.81.56,2.26,2.26,0,0,1-1,.25c-1,0-1.45-.79-1.45-2.38,0-.91-1.57-2.32-4.73-4.22A49.23,49.23,0,0,0,197,27.52c-1.19-.4-2.39-.82-3.58-1.28a.89.89,0,0,1-.68-.85,1.17,1.17,0,0,1,.43-.77A.83.83,0,0,1,194.15,24.37Z" />
        </g>
    </g>
</svg>