<svg xmlns="http://www.w3.org/2000/svg" xmlns:xlink="http://www.w3.org/1999/xlink"
    viewBox="0 0 833.7 316.52">
    <defs>
        <style>
            .cls-1{fill:url(#未命名的渐变_52);}.cls-2{fill:url(#未命名的渐变_52-2);}.cls-3{fill:url(#未命名的渐变_52-3);}.cls-4{fill:url(#未命名的渐变_52-4);} svg {filter: drop-shadow(0px 2px 4px #00000050)}</style>
        <linearGradient id="未命名的渐变_52" x1="110.02" y1="20.04" x2="110.02" y2="281.8"
            gradientUnits="userSpaceOnUse">
            <stop offset="0" stop-color="#fbe03b" />
            <stop offset="1" stop-color="#e2272d" />
        </linearGradient>
        <linearGradient id="未命名的渐变_52-2" x1="314.11" y1="0" x2="314.11" y2="285.75"
            xlink:href="#未命名的渐变_52" />
        <linearGradient id="未命名的渐变_52-3" x1="530.34" y1="13.63" x2="530.34" y2="272.12"
            xlink:href="#未命名的渐变_52" />
        <linearGradient id="未命名的渐变_52-4" x1="741.26" y1="6.25" x2="741.26" y2="316.52"
            xlink:href="#未命名的渐变_52" />
    </defs>
    <g id="图层_2" data-name="图层 2">
        <g id="图层_1-2" data-name="图层 1">
            <path class="cls-1"
                d="M97.07,28q4.37,0,6.27,1.63a6.12,6.12,0,0,1,1.91,4.91c0,1.82-1,4-2.86,6.41a106.12,106.12,0,0,1-10.5,10.77,107.73,107.73,0,0,0-8.45,7.91c-1.28,1.45-1.55,2.36-.82,2.72a7.44,7.44,0,0,1,2.18,5.46q0,7.9-10.91,22.08-2.17,3-3.68,5.59C69.21,97.16,68.8,98,69,98a5,5,0,0,0,2.19,1c1.09.27,2.45.59,4.09,1,5.08,1.28,8.59,3.32,10.49,6.14s2.87,7.59,2.87,14.31a78.07,78.07,0,0,1-1.91,18.41q-1.92,7.77-9,27.4-3.83,12.27-8.45,23.59t-15,35.31q-13.63,31.35-22.49,44T14.18,281.8a14.85,14.85,0,0,1-9.82-3.68Q0,274.45,0,270.35a7.2,7.2,0,0,1,.82-3.27,4.74,4.74,0,0,1,4.36-2.18,5.77,5.77,0,0,1,5.18,2.45c.91,1.63,2,2.45,3.27,2.45,2.36,0,4.64-1.54,6.82-4.63q3.81-4.65,10.36-17.18t12.54-26.45l13.36-31.9a125.54,125.54,0,0,0,4.91-12.27q0-1.08,1.91-5.45L66,165.1a247.32,247.32,0,0,0,8.31-25.77q3.14-12.12,3.14-19a12.32,12.32,0,0,0-.82-5.18c-.55-1.64-1.32-2.59-2.32-2.86a60.46,60.46,0,0,0-8.86-.68c-5.09-.37-8.55-.91-10.36-1.64a6,6,0,0,1-3.55-4.63q-.27-1.9,3.41-8.59a73.6,73.6,0,0,1,8.32-12.14Q69,76.76,69.8,75.39l1.91-3.27-4.09.27-1.09.28a7.78,7.78,0,0,1-3-.69c-1.09-.45-1.82-.77-2.18-1a3.17,3.17,0,0,1-1.91-2.73,7.21,7.21,0,0,1,.27-2.18c.18-1.45,1.87-3.72,5.05-6.82a67.82,67.82,0,0,1,10.77-8.45c1.09-.72,2.13-1.36,3.13-1.91s1.78-1,2.32-1.36q.27-.27,6-5.45,1.63-1.37,2.73-2.46A7.81,7.81,0,0,0,91.07,38L79.62,39.4q-15.83,2.73-22.09,1.91a2.31,2.31,0,0,1-1.63-2.46,3.18,3.18,0,0,1,2.18-3.27q1.64-1.08,17.72-4.09Q90.25,28,97.07,28ZM153.38,72.8a3.86,3.86,0,0,1,1.77.14A2.32,2.32,0,0,1,156.92,74a8.51,8.51,0,0,1,.41,3.27l-.27,7.64a5.78,5.78,0,0,0,.54,3,2.46,2.46,0,0,0,2.18.81l4.91-.54c.73,0,2.36,0,4.91-.14a44.75,44.75,0,0,1,6.27.14,15,15,0,0,1,5.59,1.09,10.5,10.5,0,0,1,3.14,3A6.65,6.65,0,0,1,186,96.66q0,6.82-11.45,19.9L168,122.84l14.45-3.28q14.73-4.08,18.55-4.09a4.78,4.78,0,0,1,4.63,2.73c.18.37.41.78.68,1.23a2.45,2.45,0,0,1,.41,1.22,6.6,6.6,0,0,1-1.36,2.46q-1.37,1.9-6.82,4a63.46,63.46,0,0,1-12.27,3.14q-13.9,3.27-26.86,7.36t-13.22,5.73q0,1.36-3.27,13.36-4.37,13.9-3.27,13.9l16.9-3.27q16.08-3.54,18.27-3.54h.82a.48.48,0,0,0,.54-.55c0-.54-.64-2.09-1.91-4.63a13.34,13.34,0,0,1-1.9-6c0-2.18.81-3.28,2.45-3.28a4,4,0,0,1,2.73,1.37q1.35,1.36,5.72,8.45t11.45,19.36l5.46,10.09,3.27,6q4.09,5.72,10.36,18.54T220,227.27a4.53,4.53,0,0,1-.68,2,4.93,4.93,0,0,1-1.5,1.77,1.94,1.94,0,0,1-1.91,1.37c-.18,0-1.18-.18-3-.55-1.45-.91-3-2.77-4.63-5.59s-5.55-10.68-11.73-23.58Q184,179.29,182.41,175.19l-13.36,1.36q-20.45,3.82-29.17,4.91l-10.64,1.64q-7.91,1.36-10.9,2.18-21.27,4.08-30.81,4.09a8.93,8.93,0,0,1-3-.28c-2.18-.54-3.28-1.45-3.28-2.72s.82-2.55,2.46-3.82q1.91-1.08,14.45-3.82t23.45-4.63c2.91-.55,4.63-1,5.18-1.5s1.09-1.86,1.64-4.23a81.47,81.47,0,0,1,2.72-11.45,58,58,0,0,1,3.27-9.27c.18-.73.18-1.18,0-1.36s-.54-.18-1.09,0c-2.18,0-3.63-.37-4.36-1.1a2.8,2.8,0,0,1-1.91-2.72q0-3.27,6-6.27l4.36-2.46L141,117.65c1.09-4.17,2-7.77,2.73-10.76s1.18-5.14,1.36-6.41q.54-1.37-6-2.18a22.67,22.67,0,0,1-5.32-1.5A2,2,0,0,1,132.52,95c0-1.81.36-2.9,1.09-3.27s2.81-.54,6.27-.54c4.72-.37,7.18-.91,7.36-1.64a15.76,15.76,0,0,0,1.36-3.27,23.47,23.47,0,0,0,1.09-5.18l2.46-7.91A2.43,2.43,0,0,1,153.38,72.8ZM124.06,92q2.46.28,2.46,3.82a56.05,56.05,0,0,1-1.09,6.55q-1.37,3.54-2.73,15.54l-.55,7.36a6.12,6.12,0,0,0,1.91,4.91c1.09,1.09,1.64,1.82,1.64,2.18a9.86,9.86,0,0,1-1.64,3c-.91,2-2.72,3-5.45,3q-3.54,0-4.91-2.18a10.34,10.34,0,0,1-1.63-6.27q0-3.83,2.18-14.18Q117,101.57,120.52,95C122,93,123.15,92,124.06,92Zm47.17-70.34q15.81,0,15,9c-.37,1.64-1.63,4.14-3.82,7.5a83.5,83.5,0,0,1-6.27,8.59q-2.44,2.19,0,1.09A53.92,53.92,0,0,0,183,46.08q4.9-1.5,11.18-3.68Q207.49,38,211.86,38c2.36,0,3.82,1,4.36,3q2.73,4.91-7.9,9.27-13.9,4.63-15.27,4.63-5.19,1.37-18.27,6t-15.82,6a30,30,0,0,1-11.17,2.73c-3.1,0-4.64-.91-4.64-2.73q0-3,5.45-7.36l5.05-4.09q3.67-3,3.95-4.09c0-.18.27-.55.82-1.09a24.7,24.7,0,0,0,2.18-2.73,116.11,116.11,0,0,0,9.13-9q5.06-5.44,5.59-6.54c0-.73-3-1.09-9-1.09a38.38,38.38,0,0,0-14.86,3q-7.23,3-8.59,6.27-2.19,7.64-3.68,14.59c-1,4.63-1.41,7.77-1.23,9.4a6.43,6.43,0,0,1-.95,5.18,4.78,4.78,0,0,1-4,1.91A7.78,7.78,0,0,1,129,69.94c-1.46-1.27-2.09-3.36-1.91-6.27q.54-4.64,5.86-21.54t7.23-19.36Q142.05,20,143.7,20c1.26,0,2.27.82,3,2.45a4.6,4.6,0,0,0,.55,1.37c.36.73.72.82,1.09.27a22.77,22.77,0,0,1,4.36-.68q3.83-.4,7.09-1A94.83,94.83,0,0,1,171.23,21.68Zm2.46,75.8a18.9,18.9,0,0,0-3.55-.27l-8.18.54-7.09.55-1.36,6.27a105.51,105.51,0,0,0-1.63,12.54l-.82,6,8.45-6.82q6.27-6,10.77-11.18t4.5-6.81C175,97.93,174.6,97.66,173.69,97.48Z" />
            <path class="cls-2"
                d="M288.21,31.63q9,0,9,7.91a18.69,18.69,0,0,1-1.64,7.36q-1.36,3.83-15.27,18A286.59,286.59,0,0,1,255.49,87.8,154.12,154.12,0,0,1,240,99.93q-5.73,3.69-9,3.68a5.22,5.22,0,0,1-3.82-1.63,4.46,4.46,0,0,1-1.36-3.27A8.08,8.08,0,0,1,227,94.48a5.47,5.47,0,0,1,2.86-2.59Q235,90,248.4,79.07t27.27-24.54q4.62-4.91,7.63-8.18a23.47,23.47,0,0,0,3.41-4.22q.41-1-1-1-2.72,0-24,5.46-8.17,2.17-10.09,2.18a2.82,2.82,0,0,1-2.73-1.91c-.72-1.45,0-2.82,2.19-4.09s7.17-3.27,15-6Q280,31.64,288.21,31.63Zm-19.91,75.8a9.11,9.11,0,0,1,7.37,3.27,8.41,8.41,0,0,1,2.72,6.55q0,4.36-2.72,10.77a163.92,163.92,0,0,1-8.73,16.77q-2.73,4.64-4.77,8.45c-1.36,2.55-1.87,3.82-1.5,3.82.18.36,1.64-.37,4.36-2.19s6.91-4.63,12.54-8.45q2.19-2.17,12-9a54.93,54.93,0,0,0,8.45-6c.18-.72,1.18-1.09,3-1.09a11.18,11.18,0,0,1,3.82.69,4.13,4.13,0,0,1,2.46,1.77,4.43,4.43,0,0,1,.81,2.72q0,3.83-10.63,10.91l-9.82,7.09q-1.37,1.37-13,9.14t-15.95,10.22c-4.55,2-7.63,3-9.27,3A5.73,5.73,0,0,1,245.4,174a5.46,5.46,0,0,1-1.91-4.36q0-3.54,3.41-10.36t11.32-19.36q10.89-17.73,10.9-22.09c0-1.45-.54-2.18-1.63-2.18a24.8,24.8,0,0,0-6,1.64,22.24,22.24,0,0,1-5.46,1.36,2.17,2.17,0,0,1-2.45-2.45c0-2.19,1.82-4.18,5.45-6S265.76,107.43,268.3,107.43ZM377.1,0a3.23,3.23,0,0,1,3,1.36q.81,2.73-2.18,19.5T369.19,60l-1.36,6.27c-1.28,5.45-1.73,8.18-1.37,8.18,0,.18,1.23,0,3.69-.55s4.77-1,7-1.36q10.63-3,15.27-3a11.79,11.79,0,0,1,7.09,2.18c2,1.46,3,4.09,3,7.91a36.1,36.1,0,0,1-1.09,8.72q-1.38,4.92-8.87,20t-11.58,21.14a74.86,74.86,0,0,1-7.5,9.95q-2.6,2.59-5.05,2.59a6.52,6.52,0,0,1-4.36-1.64,4.9,4.9,0,0,1-1.91-3.81,3.69,3.69,0,0,1,1.09-2.73q8.19-10.63,18.68-29.45t10.5-22.36a1.93,1.93,0,0,0-.68-1.77,5.66,5.66,0,0,0-2.59-.41q-4.37,0-14.46,2.73-8.44,2.44-10.36,3.27a3.25,3.25,0,0,0-2.18,2.45q-4.64,15.82-11.45,35.45t-12.54,33.27a6.72,6.72,0,0,0-1.64,3.81q0,.82-3.54,7.91-1.92,4.91-9.55,21.81l-12.54,27-6.27,13.09q0,.81-4.91,11.17-5.18,9.83-10.36,21.82-9.27,19.9-14.45,21.81l-.82.27a6.39,6.39,0,0,1-3.95-1.63,4.59,4.59,0,0,1-2.05-3.55q0-1.36,3.27-8t6.27-11.59a20.78,20.78,0,0,0,2.32-3.95q1.23-2.6,2.05-4a123,123,0,0,1,8.18-18.26Q310,192.5,321.88,164.83t19.23-49q3.54-9.81,5.72-16.36T349,91.34c0-.9-.27-1.36-.81-1.36a9.67,9.67,0,0,0-2.73,1.09,4,4,0,0,1-2.46.82,2.93,2.93,0,0,1-2.18-.82,2.63,2.63,0,0,1-.81-1.91,4,4,0,0,1,1.63-3.41,42.79,42.79,0,0,1,7.91-3.68,8,8,0,0,0,3.54-4.22q1.36-3.13,4.91-15.41T366.74,30l7.9-28.9C374.82.37,375.64,0,377.1,0ZM305.93,70.89c4.91.37,8.18.68,9.82,1a10.32,10.32,0,0,1,4.09,1.5A7.74,7.74,0,0,1,322,79.07a8.5,8.5,0,0,1-1.77,5.32A5.21,5.21,0,0,1,316,86.71a4.91,4.91,0,0,1-3.82-1.91,5.13,5.13,0,0,1-1.36-4.09c.55-1.09-2.28-1.73-8.45-1.91A86.13,86.13,0,0,1,290.94,78c-1.82-.36-2.73-1.09-2.73-2.18a3.81,3.81,0,0,1,3-4.09A97.9,97.9,0,0,1,305.93,70.89Z" />
            <path class="cls-3"
                d="M482.66,20.18a6.37,6.37,0,0,1,2.72.82,4.73,4.73,0,0,1,.55,2.18q0,3.27-3.55,21l-1.63,8.45q-2.73,11.73-4.37,21T475,83.71a28,28,0,0,0,3-1.37c1.45-.72,2.82-1.36,4.09-1.9q6.27-4.36,8.73-4.37c.9,0,2.18.64,3.81,1.91,1.27,1.28,1.91,2.28,1.91,3q0,1.9-3.54,4.77a127.8,127.8,0,0,1-12.54,8.32l-9.55,5.73-2.45,13.9q-.28,1.92-1.91,10.91c-.37,1.63-.64,3.18-.82,4.63a20,20,0,0,1-.82,3.82q-2.73,11.46-10.09,61.62l-1.63,10.91q-2.73,19.36-3,21.54a214.27,214.27,0,0,0-3,22.63l-1.91,10.91q-1.1,6.54-1.09,7.09a13,13,0,0,1-1.36,3.68,3.21,3.21,0,0,1-2.46.68q-4.63,0-5.86-.82c-.82-.54-1.41-2-1.77-4.36q-.27-1.37.54-8.18t2.18-15.54L445.3,180q1.36-13.9,2.45-17.18,2.19-11.44,4.91-27.27t3.82-22.9c0-.91-1.46-1.18-4.36-.82q-6.56.83-9.41-3.41t-3.95-15.67q-.56-15.81,4.36-15.82c.91,0,1.64.64,2.18,1.91a37,37,0,0,1,1.64,7.91,116.76,116.76,0,0,0,1.91,12.54c.54,2.18,1.27,3.27,2.18,3.27a62,62,0,0,0,5.72-4.36,14.89,14.89,0,0,0,4.37-5.32,69.3,69.3,0,0,0,2.72-10.77q3-14.17,9.27-36.13T481.29,21A2.22,2.22,0,0,1,482.66,20.18Zm74.71-6.55c1.63,0,2.18,1.46,1.63,4.37q-1.1,5.17-18,39.53Q535.55,69,527.92,88.07T520,110.7a17,17,0,0,1-1.91,6.82A4.49,4.49,0,0,1,514,119.7q-5.72-.54-5.72-6.54,0-6.55,6-21,5.18-12.54,19.49-40.63t18.68-33.81C554.09,15,555.73,13.63,557.37,13.63Zm21,26q1.36-2,2.73-1.5c1.64.19,2.45,1.19,2.45,3q0,3-2.72,9.27a127.64,127.64,0,0,0-4.37,13.09l-.81,4.36,4.9-.81c1.82-.37,2.82-.55,3-.55a4.55,4.55,0,0,1,2.32.55,5.85,5.85,0,0,1,1.77,1.63,9.35,9.35,0,0,1,1.64,4.36c0,.92-.82,2.37-2.46,4.37-1.09,1.45-2,2.18-2.72,2.18a8.23,8.23,0,0,1-2.73-1.37A8.13,8.13,0,0,0,577,76.62q-4.63,0-6.27,7.63Q568,94.35,566.64,97.89c-.37,1.45-.91,3.68-1.64,6.68s-1.18,5.14-1.36,6.4l-1.09,5.19h6.27a26,26,0,0,1,11,1.09q4.5,1.64,5.59,4.9a7.54,7.54,0,0,1,1.36,3c0,.73-.72,2.55-2.18,5.46q-2.73,6.27-12.81,15.81A188.2,188.2,0,0,1,550,164.14a1,1,0,0,0-.27.69c0,.27.09.41.27.41.18.18,1.19,0,3-.41s3.73-.86,5.73-1.23a311.46,311.46,0,0,1,33.95-6.54q20.58-3,29.58-3a10.75,10.75,0,0,1,3.27.27c.73.18,1.32.86,1.78,2a10.34,10.34,0,0,1,.68,3.68,3.2,3.2,0,0,1-.55,2.19q-.81,1.9-5.18,2.72t-18,2.18a254.53,254.53,0,0,0-27.54,4.09q-13.1,2.73-37.36,9-13.08,3.83-18.27,5.05a40.19,40.19,0,0,1-9,1.22,4.92,4.92,0,0,1-1.9-.68,1.75,1.75,0,0,1-.55-1.5l.27-2.18a8.43,8.43,0,0,1,2.59-4.36,70.12,70.12,0,0,1,9.14-6.27q10.64-6.27,13.49-8.32a10.72,10.72,0,0,0,4-4.91c.72-1.91,1.91-6.22,3.54-12.95l1.91-7.91c1.27-5.27,1.82-8,1.64-8.18a14,14,0,0,0-4.91.82,27.6,27.6,0,0,1-7.63.82c-1.46,0-2.32-.14-2.6-.41s-.32-1-.13-2.32a3.33,3.33,0,0,1,1.91-3,66.88,66.88,0,0,1,7.63-3.27q7.37-1.91,8.73-2.73t2.45-4.36a81.46,81.46,0,0,1,3-11.18l2.18-7.36c1.09-3.45,1.95-6.41,2.59-8.86s1.05-4,1.23-4.77c-.37-.37-1.91-.23-4.64.41s-4.54,1-5.45,1.22q-8.46,1.92-11.18,1.91c-2.55,0-3.82-.72-3.82-2.18q0-3.54,18.54-9.81,7.36-2.19,9.14-3.55a9.62,9.62,0,0,0,2.86-4.91q1.63-4.9,2.87-7.63c.81-1.82,2.59-5.27,5.31-10.36A67.85,67.85,0,0,1,578.36,39.67Zm-9,85.76a27.44,27.44,0,0,0-7.09.81,4.67,4.67,0,0,0-2.86,2.19,32.12,32.12,0,0,0-2.32,6.54c-.72,2.18-1.32,4.23-1.77,6.13s-.5,3.14-.13,3.69q0,2.18,10.63-7.64a91.63,91.63,0,0,0,6.68-6.82q2.87-3.27,2.86-3.81C574.63,125.79,572.64,125.43,569.36,125.43Z" />
            <path class="cls-4"
                d="M704.45,84.48a6.54,6.54,0,0,1,4.64,2.18,13.7,13.7,0,0,1,3.27,6,24,24,0,0,1,.27,4.91q0,16.37-5.18,36-2.19,8.46-2.18,10.64c0,2,1.54,3,4.64,3s5.22.28,6.4.82a3.25,3.25,0,0,1,1.78,3.27q0,6-11.46,7.64-5.18.27-6.27,1.09c-.73.54-1.54,2.09-2.45,4.63q-2.46,6-8,29.73t-9.4,41.44q-1.37,6.81-7.09,30.54-2.73,9.81-2.73,10.36l-4.91,19.36q-3.27,11.18-4.9,15.54-2.19,4.9-5.46,4.91-1.9,0-4.36-2.18a2.68,2.68,0,0,1-1.64-1.09,3,3,0,0,1-.54-1.64,22.64,22.64,0,0,1,1.09-4.36q1.08-3.56,2.18-7.63l1.36-4.37c.18-.91.37-1.77.55-2.59s.36-1.59.54-2.32L661.92,262l9.81-42q5.17-20.46,7.09-26.45l3.55-13.64,4.09-15.54c0-.72-1.14-1.4-3.41-2a23.74,23.74,0,0,0-6.41-1,6.14,6.14,0,0,0-2.73.55c-.36,0-.81.59-1.36,1.77a13.56,13.56,0,0,0-1.09,4.23q-2.19,7.1-6.54,7.09-7.65,0-6.28-25.91,1.36-18.25,2.19-22.9l1.36-7.64c.18-1.09.45-2.31.82-3.68a14.55,14.55,0,0,0,.54-3.68q1.91-7.36,3.68-10.36c1.18-2,2.41-2.9,3.68-2.73,1.09.19,1.78.55,2.05,1.1a7,7,0,0,1,.14,3.27v4.63l8.18-8.45q8.72-8.18,14.17-10.91C698.91,85.57,701.9,84.48,704.45,84.48Zm-1.09-78c1.82-.55,2.73-.18,2.73,1.09q0,1.63-2.73,4.09Q699.28,16,684.55,42.22T670.91,69.48q.83,1.09,14.73-6.27,12.81-6.54,16.36-7.36,16.08-1.37,16.09,12.27c0,3.27-.32,5.55-1,6.82s-2,1.91-4,1.91a5,5,0,0,1-1.64-.28,2.59,2.59,0,0,1-1.36-1.09c-.55-.54-1.09-2.18-1.64-4.9a7.19,7.19,0,0,0-1.5-3c-.45-.37-1.68-.46-3.68-.28q-1.64,0-7.09,2a70.05,70.05,0,0,0-10.63,5q-12.54,5.73-15.82,6.82l-3.27.54a5.43,5.43,0,0,1-3.27-.81,2.34,2.34,0,0,1-2-1.78,20.11,20.11,0,0,1-.4-4.77q0-6.27,7.36-21a259.29,259.29,0,0,1,15.68-26.59Q692.72,13.6,697.09,10A14.94,14.94,0,0,1,703.36,6.5ZM702,98.66c0-1.27-.55-1.91-1.64-1.91q-2.73,0-8.72,4.36a129.16,129.16,0,0,0-13.36,11.46,60.63,60.63,0,0,0-6,8,18.62,18.62,0,0,0-2.18,5.59A65,65,0,0,0,669,139.29a50.49,50.49,0,0,0,.27,6.27q0,4.09,11.18-7.09l7.63-7.64-4.36-2.18q-4.1-1.91-4.09-5.18c0-1.09.23-1.77.68-2a6.32,6.32,0,0,1,2.86-.41q10.1,0,12,1.91l2.46,2.18c.72,0,1.09-1.82,1.09-5.45.54-2.91,1-4.37,1.36-4.37a40.79,40.79,0,0,0,1.64-9.54Zm-8.18,39q-.83-.27-5.73,5.73c-1.63,2-3,3.81-4.09,5.45a.89.89,0,0,0,.27,1.09,1.57,1.57,0,0,0,1.1.55h1.09a6.49,6.49,0,0,0,4.22-1.23q1.5-1.23,2.05-5ZM746.72,121q1.35,0,2.31,2a13.41,13.41,0,0,1,1,5.59l-.82,6.55-1.36,8.18a2.21,2.21,0,0,0,1.63.54,25.84,25.84,0,0,0,7.09-1.63q1.9-.82,6.14-2.32a50.79,50.79,0,0,0,7.22-3.14,26.7,26.7,0,0,1,6.55-1.63c1.45,0,2.18.45,2.18,1.36a7.24,7.24,0,0,1-1.37,3.27,21.45,21.45,0,0,1-7.9,6.41,112,112,0,0,1-15,6.14,40.94,40.94,0,0,1-4.36,1.77,11.16,11.16,0,0,0-3.27,1.5,13.63,13.63,0,0,0-3,3.81l-.82,6a9.69,9.69,0,0,0,2.18,6.27q2.17,1.1,9,1.1,18,0,55.89-8.19,13.63-2.71,18-2.72a7.81,7.81,0,0,1,4.36,1,3.88,3.88,0,0,1,1.37,3.41,4.74,4.74,0,0,1-1.5,3.41,10.27,10.27,0,0,1-3.68,2.32q-5.46,2.18-18.55,4.63l-12.27,2.73-13.08,2.45q-3.55,1.37-18.54,2.18l-6,.28q-16.1,0-19.91-1.64-4.36-1.08-7.09-6.54c-.18-.18-.27-1.82-.27-4.91A86.65,86.65,0,0,1,734,157.56a57.51,57.51,0,0,1,2.86-11.73,85.17,85.17,0,0,0,3.27-10.63,19.39,19.39,0,0,1,2.73-9Q744.81,121,746.72,121ZM765,21.22a3.43,3.43,0,0,1,2.46,1.09c.72,0,.91,1.37.54,4.09L765.8,37q-2.73,14.72-2.45,14.72c.36.37,1.77,0,4.22-1.09a79.52,79.52,0,0,0,9.68-5.45q13.63-6.82,16.09-6.82c1.82,0,2.73.37,2.73,1.09q0,1.63-4.09,5.45a137.65,137.65,0,0,1-22.91,15.82,73.92,73.92,0,0,0-7.63,4.77,10.32,10.32,0,0,0-2.73,3,39.18,39.18,0,0,0-2.18,5.86,70.38,70.38,0,0,0-3,12.27L753,91.3a4.87,4.87,0,0,0,.54,2.18q1.37,0,15.27-5.18Q784.34,82,789.52,82c2.19,0,3.73.45,4.64,1.36a4.72,4.72,0,0,1,1.64,3.27q0,5.19-12.82,9-10.1,2.46-12.27,4.36a56.73,56.73,0,0,1-10.91,4.5c-4.36,1.36-7.54,2-9.54,2a9.94,9.94,0,0,1-6.82-2.18A7.33,7.33,0,0,1,741,98.66a115.06,115.06,0,0,1,1.5-11.59,92.45,92.45,0,0,1,2.59-11.59v-.27c0-1.27-.82-2.27-2.45-3q-3.82-.54-3.82-4.09a4.94,4.94,0,0,1,1.63-3.54,10.73,10.73,0,0,1,3.82-2.46c2.36-.72,3.64-1.81,3.82-3.27q.81-1.08,4.36-10.36,6.27-21,10.09-26.18A4.17,4.17,0,0,1,765,21.22Z" />
        </g>
    </g>
</svg>