<svg xmlns="http://www.w3.org/2000/svg" viewBox="0 0 192.2 145.89">
    <defs>
        <style>.cls-1{fill:#fff;} svg {filter: drop-shadow(0px 2px 4px #00000050)}</style>
    </defs>
    <g id="图层_2" data-name="图层 2">
        <g id="图层_1-2" data-name="图层 1">
            <path class="cls-1"
                d="M20.25,26.82a1.4,1.4,0,0,1,1.35.88A9.07,9.07,0,0,1,22,31c0,1.53,0,2.83-.13,3.91q-.27,6.48,0,6.48a5.7,5.7,0,0,0,2.43-1.21,6.93,6.93,0,0,1,3.11-.81c1.16,0,1.88.31,2.15.94a2.41,2.41,0,0,1-.67,2.7,14.84,14.84,0,0,1-4.18,2.57l-4.05,1.89-.54,5.4-.41,5.53,2.16-.81a5.94,5.94,0,0,1,2.43-.54c1.71,0,2.57.95,2.57,2.84a2.52,2.52,0,0,1-1.08,2,16.33,16.33,0,0,1-3.52,2c-2.25,1.08-3.37,1.76-3.37,2s-.4,3.24-1.21,8.91q-.81,5.67-.81,5.94a6.93,6.93,0,0,0-.34,1.62c-.14.9-.25,1.62-.34,2.16A7.85,7.85,0,0,1,14,89.06a5.56,5.56,0,0,1-4,1.75A6.58,6.58,0,0,1,6.48,89.6C4.86,88.43,3.38,86.36,2,83.39a20,20,0,0,1-2-8.1,9.71,9.71,0,0,1,2.16-6.48q2.16-2.57,8.37-5.94A10.61,10.61,0,0,0,13.23,61a4.78,4.78,0,0,0,1-2.22A52.08,52.08,0,0,0,15,53.28l.26-2.56a1.28,1.28,0,0,0-.2-.88c-.13-.14-.43-.11-.87.07-.19.09-.75.29-1.69.6a20.71,20.71,0,0,1-2.91.75,12.29,12.29,0,0,1-3.64.54c-1.89,0-2.84-.63-2.84-1.89a1.74,1.74,0,0,1,.55-1.49,4.86,4.86,0,0,1,2.29-.54A28,28,0,0,0,12.35,46q4.13-1.62,4.12-2.16a66,66,0,0,1,1-6.75c.62-3.78,1.12-6.61,1.48-8.5C19.44,27.41,19.89,26.82,20.25,26.82Zm-12.69,45a4.12,4.12,0,0,0-1.62,3.51,12.11,12.11,0,0,0,1.35,5.13,13.45,13.45,0,0,0,1.89,3.37c.45.45.76.27.94-.54q.68-2.56,1.56-7.22T13,68.94Q13,67.19,7.56,71.78ZM61.83,55a3.51,3.51,0,0,1,3,1.08A3,3,0,0,1,65.34,58c0,1.26-.67,3.08-2,5.46a101.38,101.38,0,0,1-6.75,9.93c-3,4-4.45,6.16-4.45,6.61v.14c0,.27.58.9,1.76,1.89q1.22.81,6.88,5.8l3.51,3,10.53,8.64q3.92,3.24,34.43,29.84l2.7,2.29c4.67,4,7.56,6.35,8.64,7.16a25.79,25.79,0,0,1,2.69,2.36,2.44,2.44,0,0,1,.68,1.69c0,2.07-.77,3.1-2.29,3.1q-3.52,0-10.26-6.07-4-3.65-4.86-4.46-9.06-7.56-31.46-27.67.14.14-3-2.57L64.8,98.78Q54.14,89.6,52.52,88L48.2,84.06l-2.84,2.43a33.69,33.69,0,0,0-4.59,4.32,20.52,20.52,0,0,1-5.33,4.32q-3.59,2.16-5.06,2.16a4,4,0,0,1-3-1.89,4.52,4.52,0,0,1-1.49-2.83,3.07,3.07,0,0,1,.81-2,2.71,2.71,0,0,1,1.89-.94,4,4,0,0,1,2,.81c.62.45,1.5.33,2.63-.34a51.16,51.16,0,0,0,6-4.93L44,80.69,40.5,77.18c-.9-1-1.69-1.87-2.36-2.64s-1-1.23-1-1.41a2.26,2.26,0,0,1,.34-.88,1.21,1.21,0,0,1,1.15-.61c1.44,0,3.64,1.26,6.62,3.78l2,1.62,2-2.43c1.63-2,3.49-4.36,5.61-7.15s3.39-4.59,3.85-5.4l.4-1L59,61,56.29,62.6a29.74,29.74,0,0,1-6.95,3.1,25,25,0,0,1-7,1.62c-2.52,0-3.78-.58-3.78-1.75l.27-1.08a1.22,1.22,0,0,1,.61-1,5,5,0,0,1,1.69-.2q4.17,0,11.74-4.45a29.83,29.83,0,0,0,3.37-1.89l2.44-1.22A6.8,6.8,0,0,1,61.83,55ZM48.6,17.37q1.08,0,1.08.81,0,2.57-6.48,22.55-2.7,8.64-2.7,9.58c0,.81-.59,1.53-1.75,2.16s-2.12.72-2.84.27a2.2,2.2,0,0,1-.88-.81,1.82,1.82,0,0,1-.33-.81q0-.94,5.19-15.52T46,19.13A3,3,0,0,1,48.6,17.37ZM38.81,53.62c.14.13-.11.38-.74.74a2,2,0,0,1-1.15.54c-.31,0-.47-.18-.47-.54a.55.55,0,0,1,.34-.47,1.35,1.35,0,0,1,.74-.2C38.25,53.51,38.68,53.48,38.81,53.62ZM60.75,14.67a11.9,11.9,0,0,1,5.87,1.15,4,4,0,0,1,2,3.71q0,3.38-3,8.91L63,33.84c-.18.18.18,0,1.08-.4s1.94-1,3.11-1.76q6.34-3.78,9.31-5.26a11.44,11.44,0,0,1,4.33-1.49c.81,0,1.35.5,1.62,1.49.26,1.44.31,2.25.13,2.43q-.14.95-9.25,6.07T61,41.13a9.55,9.55,0,0,1-2.7.81,3.28,3.28,0,0,1-1.62-.81,2.5,2.5,0,0,1-1.48-2.29A9.8,9.8,0,0,1,56.43,35c.81-1.66,2.2-4.12,4.19-7.36C62.86,23.94,64,21.51,64,20.34a1.41,1.41,0,0,0-.54-1.21,5,5,0,0,0-2.83-.54,10.34,10.34,0,0,0-3.52.54,3.17,3.17,0,0,1-1.35.4,1.82,1.82,0,0,1-1.07-.67,1.3,1.3,0,0,1,.13-2.16A10.69,10.69,0,0,1,59,14.81,5.87,5.87,0,0,1,60.75,14.67Z" />
            <path class="cls-1"
                d="M143.2,69.45a6.59,6.59,0,0,1,4,.85,2.33,2.33,0,0,1,.9,1.57L147.87,73A3.23,3.23,0,0,1,146.44,75a8.13,8.13,0,0,1-3.14.66c-1.88.29-4.66.84-8.36,1.64s-7,1.61-9.79,2.4l-2.93.85v4.33a77.76,77.76,0,0,1-.34,8.13q-.68,4.65-.72,6.13a44.91,44.91,0,0,1-1.89,6.87,31.84,31.84,0,0,1-2.24,5.55,3.14,3.14,0,0,1-1.72.77,3.6,3.6,0,0,1-2.69-1,3.47,3.47,0,0,1-1.29-2.42,2.47,2.47,0,0,1,.19-1.37,2.08,2.08,0,0,1,.47-1.11.76.76,0,0,1,.79-.31,1.7,1.7,0,0,0,1.11-.68,3.68,3.68,0,0,0,.8-1.46,52.73,52.73,0,0,0,2.08-8.17,87.18,87.18,0,0,0,1.46-9.76l.4-4.62-7.2,1.64a83.62,83.62,0,0,1-8.53,2.26L96,87.25l-5.58,1.54a37.56,37.56,0,0,1-5.74,1.29,1.51,1.51,0,0,1-1.53-.72,1.23,1.23,0,0,1-.24-1.75q.38-.56,8.51-3.54t14.13-4.69c3.09-1,5.57-1.75,7.44-2.26s3.06-.84,3.59-1a10.77,10.77,0,0,0,2.93-.85,99.79,99.79,0,0,0,9.72-2.46l5.59-1.68A48.13,48.13,0,0,1,143.2,69.45Zm-33,20.34c.54,0,.83.36.88,1.17q.32.78-7.42,10.71t-9,10.94l-.66.31a1.47,1.47,0,0,1-1-.34A9.94,9.94,0,0,0,92,112l-1.55-1.13,1.36-2.11c.5-.75,1.33-1.83,2.51-3.26s2.41-2.8,3.68-4.13,2.92-3.24,4.69-5.42l1.9-2.14a12.56,12.56,0,0,1,3.47-3A5.45,5.45,0,0,1,110.19,89.79Zm-6.86-61.26c.72-.05,1.11.38,1.16,1.28a40.32,40.32,0,0,1-1,6.28,26.21,26.21,0,0,0-1.16,5.61,1.12,1.12,0,0,0,.32.8l.43.38a1.66,1.66,0,0,1,.89,1.43,3,3,0,0,1-1.08,2.23,4,4,0,0,1-2.64,1.24,4.08,4.08,0,0,1-1.64-.45,3.15,3.15,0,0,1-1.38-2.76,12.94,12.94,0,0,1,.57-4.09A61,61,0,0,1,100.28,33a24.09,24.09,0,0,1,1.86-4.1A9.84,9.84,0,0,1,103.33,28.53Zm27.85-12.87a1.46,1.46,0,0,1,.87-.05,2.51,2.51,0,0,1,1,.28c.18.13.29.46.33,1a9.23,9.23,0,0,1,0,1.62l.05.94a3.84,3.84,0,0,0,.29,1.54c.15.22.45.27.89.15s1.16-.27,2.41-.48l2.94-.51a9.4,9.4,0,0,1,4.83.46,5,5,0,0,1,2.4,2.77c.24,1.06-.18,2.78-1.26,5.14a28.45,28.45,0,0,1-4,6.39c-1.56,1.89-2.78,2.87-3.68,2.92a4.78,4.78,0,0,1-2-1.1q-1.28-1-1.17-1.56,0-.8,2.7-4.62c2.08-2.91,3.12-4.51,3.1-4.78s-.38-.38-1.1-.34a22.84,22.84,0,0,0-4.15.79l-3.2.73-1,5.06a30.31,30.31,0,0,1-.75,3.43,16.83,16.83,0,0,0-.62,3.14c-.19,1.37-.3,1.87-.32,1.51q0-.27,5-1.17c3.35-.61,5.65-.94,6.91-1a5,5,0,0,1,2.67.65c.89.49,1.3,1.06,1.25,1.69q.15,2.57-6,3.46-7.38,1-27.11,5.79a27.27,27.27,0,0,1-2.93.72q-5.6,1.41-6.14,1.44a1.58,1.58,0,0,1-1.52-.59,2.24,2.24,0,0,1-.46-.91c0-.36.23-.74.75-1.13a35.36,35.36,0,0,1,6.2-2.53q5.18-1.79,11.83-3.54c4-1.22,6-1.93,6.1-2.11l-.48-1.19c-.3-.44-.3-1.65,0-3.65a37.31,37.31,0,0,1,1.34-5.9,1,1,0,0,0,.16-.75.41.41,0,0,0-.49-.31,43.48,43.48,0,0,0-4.94,1.1l-2.25.81.41,4.71A12.21,12.21,0,0,1,119.9,40a1.69,1.69,0,0,1-1.61,1.31,3.23,3.23,0,0,1-1.09-.07c-1.29-.46-2-1.59-2.09-3.39,0-.36,0-1.35.09-3l-.07-1.28A6.08,6.08,0,0,0,115,32.5c0-.22-.17-.28-.34-.18a13.77,13.77,0,0,0-1.41.22,22.23,22.23,0,0,1-2.76.3,11.55,11.55,0,0,1-1.87.24c-.81.05-1.32-.19-1.54-.72a1.38,1.38,0,0,1,.57-1.86,17.68,17.68,0,0,1,4.1-1.52q4.11-1.45,4.23-1.74a38.72,38.72,0,0,0,1-4.11,10.31,10.31,0,0,1,.8-2.55,1.23,1.23,0,0,1,1-.67c.9-.06,1.43.05,1.58.31a8.49,8.49,0,0,1,.22,2.69l.18,3,3.84-1.31a26.21,26.21,0,0,0,4.23-1.74,5.15,5.15,0,0,0,.4-1.24c.18-.73.34-1.41.48-2.06s.28-1.41.42-2.05.25-1.1.33-1.37A1.71,1.71,0,0,1,131.18,15.66ZM142.09,0a4.81,4.81,0,0,1,2.19.41,2.85,2.85,0,0,1,1.06,2,3.72,3.72,0,0,1-.43,1.91,6.92,6.92,0,0,1-1.72,1.86,4.35,4.35,0,0,1-2.34.41,23.75,23.75,0,0,0-4,1A67.12,67.12,0,0,0,130.37,10q-19.73,7.24-24,7.64a8.15,8.15,0,0,1-4.26-.16,2.08,2.08,0,0,1-1.16-2.36,2.85,2.85,0,0,1,.27-1.1,1.06,1.06,0,0,1,.87-.32,8.07,8.07,0,0,1,1.49,0c1.35,0,3.75-.58,7.19-1.77s8.91-3.37,16.39-6.51L140.07.26A15.27,15.27,0,0,1,142.09,0ZM125.92,58.43a3.78,3.78,0,0,1,1.91.3A2.77,2.77,0,0,1,129,59.88a2.86,2.86,0,0,1,.75,1.31,8.46,8.46,0,0,1-.56,1.92,9,9,0,0,1-2.35,2.51,5.15,5.15,0,0,1-2.57,1.16,2,2,0,0,1-1.73-.71,1.87,1.87,0,0,1-.32-1.87.41.41,0,0,0-.36-.45,1.68,1.68,0,0,0-.67,0,2.22,2.22,0,0,1-.47.09c-4.55.9-7.22,1.37-8,1.42a3.44,3.44,0,0,1-2.47-.53,1.56,1.56,0,0,1-.6-1c0-.54.52-1,1.67-1.51a46.54,46.54,0,0,1,6-1.78A54.57,54.57,0,0,1,125.92,58.43Zm2.24,31.11a3,3,0,0,1,1.82,1c.19.17,1.12.74,2.8,1.72l3.5,2a181.28,181.28,0,0,1,16.6,9.78,170.14,170.14,0,0,1,15.62,11.45,153.77,153.77,0,0,1,17.42,15.74q6.08,6.68,6.28,10a2.11,2.11,0,0,1-.7,1.94,2.87,2.87,0,0,1-2,1.06,2.58,2.58,0,0,1-1.37-.32,6.63,6.63,0,0,1-1.31-1.62c-.69-1-1.47-2-2.34-3a63.61,63.61,0,0,0-7.68-8.67q-5.18-5-11.13-9.83a11,11,0,0,0-1.57-1.39,18.7,18.7,0,0,1-2-1.78q-5.69-4.8-13.73-10.48t-13.94-9.25a61.44,61.44,0,0,1-6.33-4.23A3.92,3.92,0,0,1,126.62,91a.94.94,0,0,1,.75-1.12A1.45,1.45,0,0,0,128.16,89.54Z" />
        </g>
    </g>
</svg>