<svg width="669" height="629" viewBox="0 0 669 629" fill="none" xmlns="http://www.w3.org/2000/svg">
<path d="M71.49 63.94C72.827 63.8881 74.1605 64.1096 75.4088 64.5911C76.6572 65.0725 77.7941 65.8038 78.75 66.74C79.602 67.5411 80.2294 68.5512 80.57 69.67C80.8687 71.1887 80.9159 72.746 80.71 74.28C80.33 76.8867 78.28 81.96 74.56 89.5C71.1603 96.4742 67.3365 103.234 63.11 109.74L58.37 117.84L60.88 120.91C67.7667 128.363 71.21 133.393 71.21 136C71.21 138.98 69.72 140.47 66.74 140.47C65.4382 140.53 64.1558 140.138 63.11 139.36C62.0268 138.638 61.1209 137.681 60.46 136.56C59.44 135.067 58.4633 133.483 57.53 131.81L53.34 125.95C52.3837 126.712 51.5388 127.604 50.83 128.6C49.33 130.37 48.22 131.72 47.48 132.6L41.89 140.14L37.7 145.45C33.8915 150.446 29.688 155.127 25.13 159.45C20.11 164.303 16.4 167.377 14 168.67C11.02 170.343 8.6 171.18 6.74 171.18C5.44 171.18 4.04333 170.343 2.55 168.67C0.85 166.99 0 164.197 0 160.29C0 156.383 0.836667 154.05 2.51 153.29C3.74758 152.439 5.19961 151.954 6.7 151.89C7.49353 151.874 8.27647 152.074 8.96516 152.469C9.65384 152.863 10.2224 153.437 10.61 154.13C10.683 154.331 10.8036 154.51 10.9614 154.654C11.1191 154.798 11.3094 154.901 11.5159 154.955C11.7223 155.009 11.9388 155.013 12.1468 154.965C12.3548 154.917 12.548 154.819 12.71 154.68C14.6885 152.988 16.5093 151.121 18.15 149.1C24.0367 143.063 29.4965 136.624 34.49 129.83C40.35 122.01 42.91 117.913 42.17 117.54C41.42 116.8 39.1 115.77 35.17 114.47C33.3668 113.809 31.6793 112.868 30.17 111.68C29.7946 111.322 29.497 110.89 29.2957 110.412C29.0944 109.933 28.9938 109.419 29 108.9C29 106.9 30.21 105.83 32.63 105.83C34.6767 105.83 39.3433 107.133 46.63 109.74C47.37 109.93 48.39 109.37 49.7 108.07C51.9557 105.535 54.0086 102.827 55.84 99.97C59.0133 94.7633 62.2267 89.27 65.48 83.49C68.7333 77.71 70.1767 74.8233 69.81 74.83C68.87 74.83 64.59 76.33 56.96 79.3C48.58 82.84 42.2467 84.61 37.96 84.61C35.1733 84.61 33.4033 83.9433 32.65 82.61C32.3523 82.0978 32.1649 81.5289 32.1 80.94C32.1 80.01 32.84 79.08 34.33 78.15C36.33 76.47 37.77 75.91 38.52 76.47C39.8533 76.85 44.7867 75.08 53.32 71.16C58.5267 68.56 63.46 66.3267 68.12 64.46C69.2208 64.1632 70.351 63.9888 71.49 63.94ZM134.33 73.44C135.81 73.44 136.56 74.28 136.56 75.95C136.56 78.93 133.303 85.82 126.79 96.62C116.17 114.68 108.907 127.527 105 135.16C102.953 139.067 100.07 143.907 96.35 149.68C93.225 154.14 90.4245 158.819 87.97 163.68C85.3633 169.227 82.7567 172 80.15 172C79.1685 171.934 78.2147 171.647 77.36 171.16C76.5231 170.75 75.8174 170.114 75.3226 169.324C74.8279 168.534 74.5637 167.622 74.56 166.69C74.5399 165.937 74.6343 165.185 74.84 164.46C74.84 163.34 76.75 159.71 80.57 153.57C84.39 147.43 87.8667 142.13 91 137.67C94.3333 132.463 98.3333 126.04 103 118.4C107.667 110.76 111.203 104.803 113.61 100.53C113.983 99.23 116.123 95.6467 120.03 89.78C123.937 83.9133 127.213 79.32 129.86 76C131.533 74.3 133.023 73.4467 134.33 73.44ZM124.55 10.6C125.48 10.6 126.23 11.26 126.79 12.6C127.157 13.5267 126.41 17.8067 124.55 25.44C122.69 33.0733 121.2 37.9167 120.08 39.97L118.41 44.97C118.22 46.09 118.31 46.7 118.69 46.79C119.07 46.88 120.36 46.47 122.6 45.53C124.84 44.59 127.81 43.21 131.53 41.34C144.557 34.8333 153.96 31.5767 159.74 31.57C163.073 31.57 165.68 32.4067 167.56 34.08C168.204 34.7087 168.768 35.4139 169.24 36.18C169.627 36.9084 169.817 37.7255 169.79 38.55C169.814 39.7662 169.72 40.9819 169.51 42.18C169.137 44.4067 167.88 47.4333 165.74 51.26C163.6 55.0867 161.687 57.5467 160 58.64C159.187 59.2161 158.206 59.5078 157.21 59.47C156.123 59.5277 155.042 59.2683 154.099 58.7233C153.157 58.1783 152.393 57.3711 151.9 56.4C151.573 56.1227 151.305 55.7822 151.113 55.3991C150.92 55.0159 150.807 54.5979 150.78 54.17C150.78 53.05 151.527 51.28 153.02 48.86L156.09 43.86L152.76 45C147.36 46.5 137.863 50.5967 124.27 57.29C117.943 60.43 113.853 62 112 62C111.481 62.0155 110.965 61.924 110.483 61.7313C110.002 61.5386 109.565 61.2489 109.2 60.88C108.228 60.3885 107.42 59.6246 106.875 58.6817C106.33 57.7388 106.071 56.6576 106.13 55.57C106.13 53.1633 107.433 48.4967 110.04 41.57L116.46 23.42C118.14 18.9467 119.63 15.41 120.93 12.81C121.316 12.1815 121.845 11.6535 122.474 11.2693C123.103 10.8851 123.815 10.6557 124.55 10.6ZM131.55 116.72C134.137 117.322 136.661 118.166 139.09 119.24C157.15 126.5 178.483 141.02 203.09 162.8C210.35 169.127 223.103 181.23 241.35 199.11C259.597 216.99 269.263 226.763 270.35 228.43C270.628 229.147 270.816 229.896 270.91 230.66C270.871 231.738 270.583 232.792 270.07 233.74C269.627 234.835 268.907 235.797 267.98 236.53C266.958 236.94 265.837 237.038 264.76 236.81C263.427 236.81 260.96 235.18 257.36 231.92C253.76 228.66 247.383 222.377 238.23 213.07C219.99 194.83 206.773 181.983 198.58 174.53C193.36 169.69 189.637 166.34 187.41 164.48L177.33 155C174.17 152.213 167.7 147.373 157.92 140.48C148.14 133.587 140.74 128.84 135.72 126.24C129.947 122.907 127.713 120.02 129.02 117.58C129.39 116.82 130.23 116.54 131.53 116.72H131.55Z" fill="white"/>
<path d="M378 67C378.685 66.8185 379.405 66.8185 380.09 67C381.02 67.38 381.49 68.59 381.49 70.64C381.49 72.8667 380.93 78.2 379.81 86.64C378.69 95.08 377.853 101.747 377.3 106.64C377.107 108.5 376.64 112.13 375.9 117.53C374.567 126.097 373.497 133.683 372.69 140.29C371.883 146.897 371.37 151.6 371.15 154.4C370.739 155.635 370.405 156.894 370.15 158.17C369.991 159.198 369.652 160.189 369.15 161.1C368.59 162.96 368.87 163.89 369.99 163.89C372.59 164.083 390.88 163.85 424.86 163.19C458.84 162.53 471.733 162.197 463.54 162.19C467.482 162.098 471.396 162.88 475 164.48C478.167 165.973 479.75 167.557 479.75 169.23C479.75 170.903 478.027 172.39 474.58 173.69C471.14 175.023 465.88 175.77 458.8 175.93C445.02 176.117 427.847 176.537 407.28 177.19C386.713 177.843 375.31 178.353 373.07 178.72C369.903 178.907 367.993 179.28 367.34 179.84C366.687 180.4 366.177 182.167 365.81 185.14C364.477 191.48 363.453 197.067 362.74 201.9C361.993 204.687 361.387 207.387 360.92 210C360.701 211.513 360.367 213.008 359.92 214.47C358.807 220.977 356.473 224.233 352.92 224.24C351.514 224.143 350.162 223.662 349.01 222.85C348.109 222.468 347.335 221.836 346.78 221.03C346.35 220.116 346.157 219.108 346.22 218.1C346.22 215.68 346.87 211.117 348.17 204.41C350.41 194.55 351.623 188.5 351.81 186.26C352.55 182.54 353.107 180.493 353.48 180.12C353.48 179.747 348.78 179.467 339.38 179.28C329.98 179.093 319.25 179 307.19 179L261.11 179.56L256.37 187.1C255.185 189.251 253.83 191.304 252.32 193.24C251.876 193.714 251.334 194.086 250.731 194.328C250.128 194.57 249.479 194.676 248.83 194.64C243.05 194.64 240.163 192.777 240.17 189.05C240.17 187.01 241.193 184.677 243.24 182.05C244.92 180.38 245.75 179.26 245.75 178.7C245.75 177.96 244.92 177.26 243.24 176.61C241.044 175.796 238.808 175.095 236.54 174.51C231.88 173.4 229.54 171.82 229.54 169.76C229.569 168.947 229.86 168.164 230.37 167.53C231.12 166.79 232.42 166.41 234.28 166.41L241.28 166.97C243.588 167.434 245.928 167.715 248.28 167.81C250.28 167.81 251.67 167.3 252.28 166.27C253.208 164.382 253.819 162.356 254.09 160.27L254.37 157.76C254.37 155.147 253.627 151.423 252.14 146.59C250.46 141.19 249.62 137.373 249.62 135.14C249.635 133.413 250.017 131.708 250.74 130.14C251.861 127.805 253.169 125.565 254.65 123.44C257.63 118.6 259.91 114.6 261.49 111.44C263.07 108.27 263.59 106.44 263.03 105.85C263.03 105.48 262.03 105.11 260.1 104.74C258.122 104.367 256.113 104.179 254.1 104.18C251.858 104.247 249.616 104.106 247.4 103.76C246.892 103.711 246.402 103.547 245.967 103.281C245.532 103.014 245.163 102.651 244.89 102.22C243.21 98.1267 247.21 96.08 256.89 96.08C262.477 96.08 266.667 96.8233 269.46 98.31C270.792 98.978 271.898 100.022 272.643 101.312C273.388 102.602 273.738 104.083 273.65 105.57C273.65 110.043 271.137 116.467 266.11 124.84C264.81 127.08 263.74 129.03 262.9 130.71C262.114 132.173 261.683 133.8 261.64 135.46C261.64 137.32 262.48 140.763 264.16 145.79C266.01 149.33 266.67 153.98 266.11 159.79L265.83 168.73L303.53 167.61C326.797 167.05 341.877 166.493 348.77 165.94L356.59 165.1L357.15 159.51C359.01 148.53 361.477 134.893 364.55 118.6C367.623 102.307 370.107 89.2067 372 79.3C372.505 76.9234 373.173 74.5845 374 72.3C374.517 70.7555 375.17 69.2597 375.95 67.83C376.579 67.435 377.273 67.154 378 67ZM269.77 35.6C270.004 35.3825 270.296 35.2368 270.61 35.18C271.943 35.18 273.013 36.9933 273.82 40.62C274.698 44.6093 275.121 48.6854 275.08 52.77C275.08 59.4367 274.24 63.8133 272.56 65.9C272.238 66.2441 271.85 66.5191 271.418 66.7083C270.987 66.8974 270.521 66.9966 270.05 67L267.82 66.45C267.419 66.222 267.081 65.8979 266.837 65.5069C266.593 65.1159 266.449 64.6702 266.42 64.21C266.179 62.079 266.085 59.9339 266.14 57.79C266.097 52.8475 266.331 47.9064 266.84 42.99C267.3 38.9 267.84 36.66 268.37 36.29C268.87 36.1347 269.342 35.9019 269.77 35.6ZM361.93 0.269989C363.05 0.269989 364.07 1.01999 365 2.49999C365.74 3.43999 364.437 5.86332 361.09 9.76999C357.743 13.6767 350.203 21.6767 338.47 33.77C326.37 46.4367 317.62 55.0467 312.22 59.6C306.82 64.1533 302.82 66.4366 300.22 66.45C299.559 66.483 298.898 66.3609 298.293 66.0936C297.687 65.8262 297.152 65.4209 296.73 64.91C295.874 63.8435 295.428 62.5066 295.47 61.14C295.497 59.9539 295.843 58.7969 296.47 57.79C297.082 56.7071 298.006 55.8328 299.12 55.28C300.613 54.5333 308.993 46.9 324.26 32.38C338.573 18.0467 348.337 8.91999 353.55 4.99999C357.85 1.84666 360.643 0.269989 361.93 0.269989ZM321.16 64.78C322.46 64.78 323.11 66.27 323.11 69.25C323.11 72.5833 322.087 79.5633 320.04 90.19C319.1 94.1 318.41 97.55 317.94 100.53C317.579 102.56 317.349 104.611 317.25 106.67C317.43 106.863 320.873 104.443 327.58 99.41C334.287 94.3767 339.033 90.6533 341.82 88.24C342.903 87.0578 344.177 86.0672 345.59 85.31C346.687 84.8306 347.901 84.6845 349.08 84.89C352.413 86.01 354.08 87.6767 354.08 89.89C354.08 93.43 350.73 97.7133 344.03 102.74C337.458 107.697 330.603 112.269 323.5 116.43C318.753 119.03 315.17 120.24 312.75 120.06C310.789 119.886 308.933 119.103 307.44 117.82C306.32 116.7 305.77 114.75 305.77 111.96C305.797 108.947 306.169 105.948 306.88 103.02C308.586 94.9485 310.732 86.9766 313.31 79.14C316.103 70.4733 317.87 66.0533 318.61 65.88C319.351 65.3001 320.23 64.9212 321.16 64.78ZM400.75 41.32C406.33 41.32 410.517 42.9867 413.31 46.32C414.24 47.62 414.99 50.14 415.55 53.86C415.781 54.8661 415.875 55.8987 415.83 56.93C415.667 62.0788 414.674 67.1675 412.89 72C411.199 77.2124 408.847 82.1864 405.89 86.8C403.19 90.9 400.723 92.95 398.49 92.95C397.69 92.9973 396.889 92.8718 396.142 92.5819C395.395 92.292 394.719 91.8446 394.16 91.27C393.13 90.1218 392.583 88.6214 392.63 87.08C392.668 84.5331 393.551 82.071 395.14 80.08C397.498 77.1049 399.341 73.755 400.59 70.17C402.037 66.5546 402.93 62.7418 403.24 58.86C403.441 57.9406 403.535 57.001 403.52 56.06C403.576 55.6478 403.528 55.2282 403.382 54.8389C403.235 54.4497 402.994 54.103 402.68 53.83C401.718 53.3072 400.683 52.9298 399.61 52.71C396.443 52.3433 391.603 53.09 385.09 54.95C378.604 56.794 372.332 59.3215 366.38 62.49C363.272 64.0384 360.049 65.3456 356.74 66.4C356.12 66.6103 355.46 66.6745 354.811 66.5878C354.163 66.5011 353.543 66.2657 353 65.9C352.572 65.3058 352.284 64.6218 352.16 63.9C352.16 63.34 352.72 62.14 353.84 60.27C355.887 57.8633 359.703 55.1633 365.29 52.17C371.207 49.0587 377.371 46.4431 383.72 44.35C390.973 42.3367 396.65 41.3267 400.75 41.32Z" fill="white"/>
<path d="M523.75 157.08C526.045 157.102 528.245 158 529.9 159.59C531.011 160.489 531.955 161.575 532.69 162.8C533.281 163.967 533.57 165.263 533.53 166.57C533.53 168.81 532.69 172.907 531.01 178.86C529.666 185.311 527.361 191.524 524.17 197.29C521.38 202.628 517.75 207.483 513.42 211.67C509.513 215.31 505.977 217.127 502.81 217.12C502.034 217.141 501.262 217.003 500.541 216.714C499.82 216.425 499.166 215.992 498.62 215.44C497.946 214.842 497.401 214.114 497.018 213.299C496.634 212.484 496.421 211.6 496.39 210.7C496.39 207.72 498.993 203.623 504.2 198.41C506.85 196.317 509.205 193.875 511.2 191.15C513.036 188.807 514.625 186.28 515.94 183.61C517.042 181.728 517.724 179.63 517.94 177.46C517.812 175.449 517.119 173.515 515.94 171.88C514.837 169.804 514.173 167.524 513.99 165.18C513.99 163.5 515.013 161.637 517.06 159.59C518.955 158.043 521.305 157.162 523.75 157.08Z" fill="white"/>
<path d="M83.7935 400.17C84.5455 399.577 85.4875 399.279 86.4436 399.33C87.2363 399.584 87.9336 400.072 88.4436 400.73C88.9144 401.78 89.1073 402.934 89.0035 404.08L88.4436 407.71L94.3035 406.03C99.1435 404.73 102.124 404.063 103.244 404.03C105.244 404.03 106.594 404.86 107.154 406.54C107.575 407.306 107.769 408.177 107.714 409.05C107.714 410.36 106.914 411.48 105.334 412.4C103.754 413.32 100.914 414.27 96.8236 415.2L88.1635 417.71L85.0935 435.03L81.7435 460.44C80.9969 466.96 80.2035 471.38 79.3635 473.7C78.5235 476.02 77.1735 477.183 75.3135 477.19C74.4682 477.222 73.6228 477.131 72.8035 476.92C71.3102 476.733 69.6435 474.963 67.8035 471.61C65.9435 468.26 65.1936 465.74 65.5736 464.07C65.7228 463.419 66.0726 462.832 66.5736 462.39C67.2001 461.669 67.9006 461.015 68.6635 460.44C69.9834 459.678 71.0137 458.5 71.5935 457.09C72.6065 454.096 73.3102 451.007 73.6936 447.87C74.9936 440.243 75.5502 436.427 75.3635 436.42C75.3635 436.05 74.7135 436.56 73.4135 437.96C72.1135 439.36 70.8036 440.89 69.5035 442.57C64.2835 448.337 55.2535 457.737 42.4135 470.77C37.3802 475.803 32.5868 480.877 28.0335 485.99C23.4802 491.103 20.1735 494.873 18.1135 497.3C16.2535 499.72 15.3236 501.3 15.3236 502.05C15.3236 502.42 15.7835 503.05 16.7235 504.05C18.0235 505.73 18.7235 507.05 18.7235 507.96C18.7235 509.64 17.4202 511.223 14.8135 512.71C13.0031 513.991 10.8833 514.764 8.67353 514.95C7.18019 514.95 5.22353 514.203 2.80353 512.71C1.87802 512.052 1.13597 511.168 0.64771 510.142C0.159453 509.117 -0.0588132 507.984 0.0135548 506.85C0.0135548 500.137 7.01356 490.083 21.0136 476.69C30.6802 466.817 41.7569 456.063 54.2435 444.43C66.7302 432.797 73.8035 426.7 75.4635 426.14C76.2766 425.928 76.9865 425.432 77.4635 424.74C77.9537 424.183 78.2487 423.48 78.3035 422.74C78.3109 422.27 78.2639 421.8 78.1635 421.34C78.1366 421.177 78.0502 421.029 77.921 420.926C77.7917 420.822 77.6288 420.77 77.4635 420.78C75.6666 421.138 73.8933 421.605 72.1535 422.18C64.7002 424.6 59.2102 425.81 55.6835 425.81C54.8932 425.909 54.0945 425.709 53.4435 425.25C52.9241 424.315 52.7742 423.22 53.0235 422.18C53.3035 421.44 54.4235 420.55 56.3735 419.53C58.3235 418.51 61.6335 417.06 66.2935 415.2C75.5935 411.48 80.2602 409.43 80.2935 409.05C80.6248 407.129 81.1889 405.255 81.9735 403.47C82.361 402.263 82.9791 401.142 83.7935 400.17ZM103.794 344.87C104.247 344.918 104.684 345.07 105.07 345.312C105.457 345.555 105.783 345.882 106.024 346.27C106.439 347.238 106.63 348.288 106.584 349.34C106.584 353.633 105 359.87 101.834 368.05C100.817 370.562 99.9329 373.126 99.1835 375.73C98.5335 378.06 98.2935 379.32 98.4835 379.5C98.6735 379.88 99.8335 379.83 101.974 379.36C104.114 378.89 106.484 378.29 109.094 377.55C114.079 376.071 119.228 375.214 124.424 375C127.424 375 129.354 375.56 130.294 376.68C130.742 377.114 131.096 377.635 131.335 378.211C131.574 378.787 131.693 379.406 131.684 380.03C131.702 381.023 131.517 382.01 131.138 382.929C130.76 383.847 130.197 384.678 129.484 385.37C128.789 386.484 127.728 387.322 126.484 387.74C124.684 388.054 122.847 388.101 121.034 387.88C118.883 387.906 116.737 388.093 114.614 388.44C113.042 388.718 111.456 388.905 109.864 389C106.697 390.107 99.9935 391.687 89.7535 393.74C88.2669 394.12 86.4069 394.54 84.1735 395C81.9435 395.47 79.1735 396.07 75.7935 396.82C64.6202 399.047 55.6835 400.907 48.9835 402.4C31.2969 405.94 21.8968 407.71 20.7835 407.71C20.3083 407.675 19.8448 407.545 19.4204 407.329C18.9959 407.112 18.6189 406.813 18.3115 406.449C18.0042 406.085 17.7726 405.663 17.6304 405.208C17.4883 404.753 17.4383 404.274 17.4835 403.8C17.4835 402.87 18.2235 402.08 19.7135 401.42C21.2035 400.76 24.7136 399.61 30.3236 397.93C34.7902 396.597 41.7735 394.643 51.2735 392.07C60.9468 389.65 68.7635 387.65 74.7235 386.07C80.6835 384.49 84.3502 383.327 85.7235 382.58C86.3412 382.304 86.881 381.879 87.2945 381.343C87.708 380.807 87.9825 380.178 88.0935 379.51C88.0935 378.77 89.1169 375.7 91.1635 370.3L93.4835 364.14C97.0102 355.953 98.7768 351.58 98.7835 351.02C98.7835 350.27 99.5235 348.97 101.024 347.11C101.894 345.62 102.824 344.87 103.764 344.87H103.794ZM85.0535 304.94C87.0535 304.94 89.0535 306.94 91.0535 310.94C93.1456 315.489 94.496 320.344 95.0535 325.32L96.7335 332.58C99.0555 332.473 101.333 331.906 103.434 330.91L109.574 329.51C110.504 329.51 111.434 330.51 112.374 332.58C113.314 334.65 113.574 336.22 113.203 337.33C112.833 338.64 111.204 340.03 108.324 341.52C105.444 343.01 103.244 343.52 101.754 343.2C100.64 343.2 97.2902 343.57 91.7035 344.31L83.3735 346L84.2135 350.47C84.6259 352.584 84.8136 354.736 84.7735 356.89C84.7735 358.57 85.8902 359.873 88.1235 360.8C88.9492 361.062 89.6677 361.585 90.1708 362.29C90.6739 362.995 90.9345 363.844 90.9135 364.71C90.9135 366.57 89.9835 368.34 88.1235 370.02C85.7035 372.247 83.6569 373.363 81.9835 373.37C81.4456 373.371 80.9199 373.21 80.4743 372.909C80.0286 372.607 79.6835 372.179 79.4835 371.68C78.91 371.277 78.4276 370.758 78.0676 370.157C77.7075 369.556 77.4778 368.886 77.3935 368.19C77.0259 364.9 76.8855 361.589 76.9735 358.28V346.83L73.6235 347.66L60.7735 349.34L54.0736 349.9C52.4449 350.022 50.8117 349.733 49.3236 349.06C48.8585 348.767 48.4829 348.352 48.2377 347.86C47.9926 347.368 47.8874 346.818 47.9335 346.27C47.9335 345.15 48.8535 344.22 50.7235 343.48C54.2683 342.34 57.9052 341.511 61.5935 341L79.7435 337.37L88.1235 335.14L87.2835 327.88C86.5741 323.252 85.5484 318.678 84.2135 314.19C82.9135 310.1 82.5335 307.59 83.0935 306.65C83.4835 305.5 84.1135 304.94 85.0535 304.94ZM104.184 435.22C106.382 436.476 108.4 438.023 110.184 439.82C112.809 442.224 115.066 445 116.884 448.06C118.377 450.357 119.246 453.004 119.404 455.74C119.462 456.378 119.379 457.022 119.161 457.625C118.943 458.227 118.595 458.775 118.142 459.228C117.688 459.682 117.141 460.03 116.538 460.248C115.935 460.466 115.292 460.548 114.654 460.49C114.164 460.554 113.665 460.497 113.203 460.322C112.741 460.148 112.329 459.862 112.004 459.49C111.198 458.039 110.586 456.49 110.184 454.88C109.112 451.006 107.099 447.457 104.324 444.55C100.224 440.27 99.0135 437.29 100.694 435.61C101.145 435.16 101.737 434.876 102.37 434.805C103.004 434.735 103.643 434.881 104.184 435.22ZM150.684 353C152.534 353 153.684 354.07 154.174 356.21C154.664 358.35 154.864 362.87 154.864 369.76C154.864 375.34 154.964 379.02 155.143 380.76C155.323 382.5 155.794 383.23 156.544 382.85C158.597 381.363 167.067 378.897 181.953 375.45C196.84 372.003 206.244 370.283 210.164 370.29C213.164 370.29 214.634 371.5 214.634 373.92C214.394 374.903 214.006 375.844 213.484 376.71C212.737 377.45 210.224 378.38 205.944 379.5C202.404 380.44 200.084 381.32 198.944 382.15C197.804 382.98 197.124 384.58 196.844 386.9C196.564 389.22 196.243 394.21 195.844 401.84L195.004 418.32C194.807 420.361 194.713 422.41 194.724 424.46C194.164 426.333 193.327 434.06 192.214 447.64C191.467 453.42 190.8 458.82 190.214 463.84C189.627 468.86 189.16 473.05 188.814 476.41L187.984 485.34L185.184 509.64C184.444 514.48 183.887 519.32 183.514 524.16C182.18 534.22 180.784 547.253 179.324 563.26C177.864 579.267 177.027 590.903 176.814 598.17C176.434 604.31 176.1 608.59 175.814 611.01C175.534 613.43 175.014 614.83 174.273 615.2C173.344 616.13 171.663 616.6 169.273 616.6C167.033 616.6 165.643 616.22 165.083 615.48C164.703 614.74 164.523 612.59 164.523 609.06C164.523 600.86 165.22 588.153 166.614 570.94C168.007 553.727 169.73 537.393 171.784 521.94C173.117 513.56 174.327 503.97 175.414 493.17L178.044 470L184.754 420.57C186.794 406.61 187.817 397.673 187.824 393.76L188.664 384.27L185.304 385.11C184.194 385.29 180.564 385.62 174.414 386.11C168.264 386.6 164.544 387 163.244 387.37C159.524 388.303 157.384 388.49 156.824 387.93C156.077 387.19 154.96 392.123 153.474 402.73L152.354 411.39C151.794 415.67 151.127 419.67 150.354 423.39C149.58 427.11 148.553 431.857 147.273 437.63C145.04 446.57 143.554 451.317 142.814 451.87C142.067 452.99 140.484 453.55 138.064 453.55C134.897 453.55 133.314 451.78 133.314 448.24C133.501 444.63 134.173 441.061 135.314 437.63C137.72 429.81 140.37 419.057 143.264 405.37C146.157 391.683 147.23 384.457 146.484 383.69C146.104 383.13 146.243 378.337 146.904 369.31C147.544 360.31 148.064 355.31 148.434 354.37C148.608 353.927 148.922 353.554 149.328 353.307C149.734 353.059 150.21 352.952 150.684 353ZM194.244 326.47L203.184 323.96C203.911 324.05 204.576 324.416 205.043 324.981C205.51 325.546 205.743 326.269 205.694 327C205.983 327.409 206.102 327.915 206.023 328.411C205.945 328.906 205.676 329.351 205.273 329.65C203.001 331.088 200.62 332.348 198.154 333.42C191.074 336.753 183.207 340.153 174.554 343.62C165.9 347.087 161.013 348.713 159.893 348.5C158.722 348.388 157.632 347.855 156.824 347C156.075 346.183 155.674 345.107 155.703 344C155.703 342 156.913 340.37 159.333 339.26L181.124 330.6C187.444 328.76 191.817 327.373 194.244 326.44V326.47Z" fill="white"/>
<path d="M317.264 362.26C320.794 362.26 323.034 362.45 323.964 362.82C327.877 364.68 329.83 371.197 329.824 382.37C329.457 388.51 328.714 397.213 327.594 408.48C326.474 419.747 325.264 429.847 323.964 438.78C322.31 446.26 321.484 451.193 321.484 453.58L318.964 466.15L317.294 476.48C314.494 490.073 313.097 497.893 313.104 499.94L309.194 520.32C306.954 531.86 305.557 538.563 305.004 540.43C305.004 540.8 304.624 543.03 303.884 547.13C302.584 553.797 301.747 558.73 301.374 561.93C299.694 571.61 297.507 581.433 294.814 591.4C292.12 601.367 289.55 608.567 287.104 613C286.095 615.176 284.928 617.274 283.614 619.28C282.565 621.042 281.21 622.603 279.614 623.89C278.367 625.24 276.904 626.373 275.284 627.24C271.835 628.311 268.149 628.359 264.674 627.38C263.425 626.735 262.327 625.831 261.453 624.73C259.227 621.943 258.11 619.61 258.104 617.73C258.151 616.83 258.441 615.959 258.944 615.21C259.232 614.247 259.822 613.402 260.627 612.799C261.431 612.196 262.408 611.867 263.414 611.86C265.059 611.851 266.651 612.449 267.884 613.54C268.254 613.91 268.723 614.33 269.273 614.79C269.648 615.174 270.142 615.42 270.674 615.49C271.044 615.49 271.884 614.65 273.184 612.98C275.797 609.647 278.404 603.827 281.004 595.52C283.966 585.765 286.304 575.832 288.004 565.78L290.804 549.03C291.932 544.752 292.747 540.397 293.244 536L295.484 523.67C295.67 522.563 296.337 519.12 297.484 513.34L303.624 482.34L304.744 476.48C304.744 475.92 305.117 473.587 305.864 469.48L307.534 461.66C310.14 449.56 312.377 437.457 314.244 425.35C314.636 423.742 314.914 422.108 315.074 420.46C315.264 418.7 315.444 417.07 315.634 415.58L316.474 410.27L313.124 411.11C310.884 411.67 309.584 412.11 309.214 412.51C308.843 412.91 308.464 414.51 308.094 417.25C307.354 420.79 306.604 422.93 305.864 423.68C305.519 423.977 305.119 424.204 304.686 424.346C304.254 424.489 303.798 424.544 303.344 424.51C302.241 424.507 301.166 424.158 300.273 423.51C299.886 423.302 299.557 423.001 299.314 422.635C299.072 422.268 298.924 421.848 298.884 421.41C298.878 420.842 298.784 420.279 298.604 419.74C298.4 419.094 298.305 418.418 298.324 417.74C298.324 417 297.763 416.62 296.643 416.62C294.885 416.653 293.164 417.135 291.643 418.02C290.343 418.77 289.454 420.49 288.994 423.19C288.531 425.914 288.484 428.692 288.854 431.43C289.061 432.345 289.155 433.282 289.134 434.22C289.134 435.713 288.204 437.38 286.344 439.22C284.484 441.08 282.614 442.01 280.754 442.01C280.028 442.013 279.314 441.831 278.679 441.481C278.044 441.131 277.508 440.625 277.124 440.01C276.121 438.431 275.635 436.578 275.734 434.71C275.773 433.013 276.052 431.329 276.564 429.71C277.071 428.076 277.446 426.404 277.684 424.71C277.684 424.15 277.214 424.06 276.294 424.43C272.194 426.11 265.77 428.347 257.023 431.14C243.61 435.807 233.74 438.14 227.414 438.14C224.62 438.14 222.76 437.767 221.833 437.02C221.365 436.708 220.971 436.296 220.68 435.814C220.39 435.331 220.21 434.79 220.154 434.23C220.154 433.3 220.893 432.37 222.393 431.44C224.275 430.395 226.382 429.818 228.534 429.76C233.217 429.148 237.809 427.976 242.214 426.27C247.614 424.31 255.434 421.19 265.674 416.91L281.594 410.21L283.273 402.67C283.976 398.03 284.44 393.357 284.664 388.67C284.664 384.95 284.894 382.43 285.364 381.13C285.548 380.511 285.939 379.973 286.473 379.609C287.007 379.245 287.65 379.076 288.294 379.13C290.154 379.13 291.414 380.3 292.064 382.62C292.714 384.94 292.854 388.91 292.484 394.49L292.203 405.38L295.833 403.71C297.3 403.315 298.555 402.364 299.333 401.06C300 399.853 300.79 397.107 301.703 392.82C302.823 387.787 303.8 384.573 304.634 383.18C304.937 382.551 305.456 382.051 306.096 381.77C306.736 381.49 307.455 381.447 308.124 381.65C309.424 382.58 310.124 385.65 310.124 390.86V399.24L314.034 397.84C316.034 397.47 317.334 396.91 317.804 396.17C318.274 395.43 318.684 393.47 319.054 390.3C319.794 382.86 320.167 377.463 320.174 374.11C320.268 373.26 320.172 372.399 319.893 371.59C319.333 370.85 317.844 370.48 315.424 370.48C311.524 370.525 307.657 371.201 303.974 372.48H301.744C301.261 372.498 300.782 372.402 300.344 372.2C300.15 372.089 299.994 371.924 299.894 371.725C299.795 371.525 299.756 371.301 299.784 371.08C299.57 370.55 299.474 369.98 299.504 369.41C299.504 366.99 301.364 365.04 305.094 363.54C307.434 362.687 311.49 362.26 317.264 362.26ZM334.854 293C335.805 293.085 336.715 293.431 337.484 294C338.484 294.65 339.023 295.25 339.023 295.81C339.023 299.143 335.487 305.707 328.414 315.5C320.099 326.752 311.049 337.442 301.324 347.5C299.99 349.173 295.614 353.92 288.194 361.74C283.527 366.773 280.27 370.107 278.424 371.74C276.564 373.42 274.974 374.26 273.674 374.26C272.093 374.336 270.53 373.893 269.224 373C268.705 372.642 268.281 372.162 267.99 371.602C267.699 371.043 267.549 370.421 267.554 369.79C267.642 369.022 267.83 368.269 268.114 367.55C268.48 366.617 271.147 363.407 276.114 357.92C281.08 352.433 286.697 346.527 292.964 340.2C301.523 331.08 309.904 322.413 318.104 314.2L323.104 307.5L326.734 303.03C331.78 296.343 334.487 293 334.854 293ZM360.544 394.09C360.943 394.098 361.335 394.204 361.684 394.399C362.033 394.595 362.328 394.873 362.544 395.21C363.123 396.022 363.418 397.003 363.384 398C363.19 399.68 362.77 402.24 362.124 405.68C361.477 409.12 360.597 412.983 359.484 417.27C357.61 427.137 356.677 433.283 356.684 435.71C356.877 436.498 356.864 437.323 356.645 438.104C356.426 438.886 356.008 439.597 355.434 440.17C354.898 440.795 354.234 441.298 353.487 441.643C352.74 441.988 351.927 442.168 351.104 442.17C350.479 442.181 349.858 442.062 349.282 441.821C348.705 441.58 348.185 441.222 347.754 440.77C346.814 439.84 346.354 437.98 346.354 435.19C346.313 432.809 346.692 430.44 347.474 428.19C348.024 426.732 348.489 425.243 348.864 423.73C349.244 422.24 349.614 420.93 349.984 419.82C353.524 406.04 356.13 397.94 357.804 395.52C358.143 395.112 358.559 394.775 359.03 394.53C359.5 394.284 360.015 394.135 360.544 394.09ZM365.854 334.33C367.154 334.523 367.82 336.757 367.854 341.03C367.717 346.672 367.017 352.287 365.764 357.79C364.412 364.336 362.59 370.776 360.314 377.06C357.714 383.393 355.11 386.557 352.504 386.55C351.365 386.391 350.296 385.909 349.424 385.16C348.49 384.391 347.892 383.291 347.754 382.09C347.754 380.597 348.777 377.71 350.824 373.43C352.98 368.548 354.756 363.506 356.134 358.35C357.98 351.83 359.374 346.337 360.314 341.87C361.247 338.343 361.994 336.297 362.554 335.73C362.981 335.287 363.494 334.934 364.061 334.694C364.628 334.453 365.238 334.329 365.854 334.33ZM384.284 394.93C388.194 394.93 390.704 395.59 391.824 396.93C392.376 397.476 392.81 398.129 393.099 398.85C393.388 399.571 393.526 400.344 393.504 401.12C393.504 403.733 391.92 408.013 388.754 413.96C387.004 416.9 385.508 419.985 384.284 423.18C384.464 423.553 390.13 421.503 401.284 417.03C410.404 413.31 417.664 410.89 423.064 409.77H425.294C426.109 409.71 426.927 409.854 427.674 410.19C428.307 410.736 428.745 411.473 428.924 412.29C429.232 413.383 429.42 414.506 429.484 415.64C429.484 417.87 428.094 419.74 425.294 421.22C423.62 421.973 417.06 424.393 405.614 428.48C394.167 432.567 385.09 435.733 378.384 437.98C377.656 438.191 376.9 438.285 376.143 438.26C374.412 438.301 372.71 437.813 371.264 436.86C369.939 436.041 368.986 434.739 368.604 433.23C368.261 431.145 368.554 429.006 369.444 427.09C370.37 424.85 372.884 420.66 376.984 414.52C380.704 408.38 382.567 405.047 382.574 404.52C382.574 403.78 381.264 403.59 378.664 403.96C375.821 404.617 372.92 404.992 370.004 405.08C367.584 405.08 366.004 404.43 365.254 403.08C364.327 401.78 364.373 400.663 365.393 399.73C366.393 398.8 368.794 397.87 372.514 396.94C376.302 395.637 380.277 394.958 384.284 394.93ZM399.083 334.33C399.947 334.274 400.813 334.393 401.629 334.68C402.445 334.967 403.195 335.416 403.833 336C404.455 336.569 404.953 337.259 405.297 338.028C405.641 338.797 405.823 339.628 405.833 340.47C405.833 342.33 404.53 345.867 401.924 351.08L399.684 356.08C398.014 359.44 397.174 361.39 397.174 361.95C397.174 362.32 397.263 362.51 397.453 362.51C398.175 362.385 398.859 362.097 399.453 361.67C400.346 361.132 401.279 360.664 402.244 360.27C405.974 358.41 408.574 357.48 410.064 357.48C410.78 357.521 411.477 357.722 412.106 358.068C412.734 358.414 413.276 358.897 413.694 359.48C414.184 359.897 414.585 360.409 414.874 360.984C415.163 361.56 415.332 362.187 415.374 362.83C415.374 365.623 412.04 368.6 405.374 371.76C399.227 374.367 394.477 375.67 391.124 375.67C388.517 375.67 386.564 375.003 385.264 373.67C384.573 373.092 384.008 372.38 383.6 371.578C383.193 370.775 382.952 369.898 382.893 369C382.893 366.58 384.754 362.02 388.474 355.32L389.734 352.8C390.194 351.87 390.614 350.94 390.984 350.01C392.844 346.48 393.684 344.61 393.504 344.42C392.384 344.42 388.847 345.167 382.893 346.66C379.968 347.475 376.976 348.034 373.953 348.33C372.957 348.371 371.976 348.079 371.164 347.5C370.044 346.547 369.484 345.693 369.484 344.94C369.484 344.013 370.413 343.083 372.273 342.15C375.465 340.681 378.729 339.376 382.054 338.24C390.807 335.64 396.483 334.337 399.083 334.33Z" fill="white"/>
<path d="M489.564 411.69C491.424 411.69 492.634 412.25 493.194 413.36C493.56 415.233 489.094 427.233 479.794 449.36C476.994 455.88 474.294 461.697 471.694 466.81C469.094 471.923 465.184 479.047 459.964 488.18C458.844 490.04 457.774 491.947 456.754 493.9C455.754 495.9 454.754 497.67 453.814 499.35L449.074 508.28C447.601 511.588 445.774 514.727 443.624 517.64C442.044 519.64 440.314 520.57 438.454 520.57C437.492 520.605 436.537 520.414 435.664 520.01C434.782 519.516 434.055 518.787 433.562 517.904C433.07 517.022 432.831 516.02 432.874 515.01C432.874 512.77 433.244 511.28 433.994 510.54C436.238 507.074 438.197 503.432 439.854 499.65C446.374 487.923 451.4 479.357 454.934 473.95C457.913 469.67 463.964 458.407 473.084 440.16C476.417 433.093 479.304 427.093 481.744 422.16C484.184 417.227 485.85 414.017 486.744 412.53C487.535 411.888 488.549 411.586 489.564 411.69ZM464.854 400.1C465.571 399.669 466.387 399.428 467.224 399.4C467.564 399.352 467.912 399.383 468.239 399.492C468.565 399.601 468.862 399.785 469.105 400.028C469.349 400.272 469.532 400.568 469.641 400.895C469.75 401.222 469.782 401.569 469.734 401.91C469.734 405.637 467.314 415.6 462.474 431.8C461.351 435.026 460.678 438.391 460.474 441.8C460.474 444.413 459.867 446.32 458.654 447.52C458.064 448.118 457.328 448.549 456.518 448.77C455.708 448.992 454.855 448.995 454.044 448.78C451.254 447.85 449.854 446.18 449.854 443.78C449.927 441.987 450.209 440.208 450.694 438.48C451.434 435.5 453.434 429.123 456.694 419.35C459.954 409.577 462.047 403.757 462.974 401.89C463.4 401.113 464.057 400.488 464.854 400.1ZM481.484 321.49C482.044 321.49 482.884 322.04 483.994 323.16C484.71 323.718 485.206 324.511 485.394 325.4C485.079 326.574 484.608 327.701 483.994 328.75C482.092 333.221 480.423 337.787 478.994 342.43C477.065 347.913 475.479 353.51 474.244 359.19L473.964 360.86C473.907 361.274 473.954 361.695 474.101 362.086C474.247 362.477 474.489 362.825 474.803 363.1C475.003 363.327 475.155 363.592 475.251 363.879C475.348 364.165 475.386 364.468 475.364 364.77C475.329 365.679 475.139 366.575 474.803 367.42C474.492 368.362 473.907 369.191 473.124 369.8C472.783 370.102 472.386 370.332 471.954 370.476C471.523 370.62 471.067 370.676 470.614 370.64C469.25 370.618 467.91 370.275 466.704 369.64C465.567 369.132 464.599 368.309 463.914 367.27C463.167 365.937 463.584 362.163 465.164 355.95C466.835 349.444 468.936 343.057 471.454 336.83C474.054 330.31 476.287 326.027 478.154 323.98C479.794 322.32 480.904 321.49 481.484 321.49ZM508.014 384.88C509.4 384.841 510.777 385.123 512.036 385.704C513.295 386.286 514.403 387.15 515.274 388.23C518.994 391.403 520.857 396.803 520.864 404.43C520.864 410.203 519.747 418.023 517.514 427.89C515.46 435.71 513.737 441.107 512.344 444.08C510.95 447.053 509.32 448.543 507.454 448.55C506.379 448.512 505.328 448.224 504.384 447.71C503.654 447.18 502.983 446.573 502.384 445.9C501.961 445.285 501.764 444.543 501.824 443.8C501.824 441.567 503.127 436.17 505.734 427.61C507.224 421.61 508.284 417.09 508.944 413.92C509.598 410.799 509.933 407.619 509.944 404.43V395.21H504.074C498.494 395.963 494.027 397.267 490.673 399.12C486.763 400.61 483.964 401.36 482.294 401.36C479.687 401.36 478.664 400.333 479.224 398.28C479.404 396.8 481.684 394.79 486.064 392.28C490.242 389.854 494.693 387.931 499.324 386.55C502.133 385.637 505.046 385.076 507.994 384.88H508.014ZM510.803 320.09C514.717 320.09 517.604 320.833 519.464 322.32C520.194 322.944 520.794 323.708 521.226 324.566C521.659 325.425 521.916 326.361 521.984 327.32C521.984 329.74 519.934 334.117 515.834 340.45C513.974 343.05 512.577 345.097 511.644 346.59C510.714 348.08 510.344 348.96 510.534 349.24C510.724 349.52 511.364 349.48 512.534 349.1C514.691 349.142 516.766 349.934 518.404 351.34C519.274 351.933 519.965 352.753 520.404 353.71C520.566 354.602 520.468 355.522 520.124 356.36C519.183 357.841 517.821 359.008 516.214 359.71C514.354 360.65 509.887 362.14 502.814 364.18C491.82 367.16 485.58 369.023 484.094 369.77L482.423 370.05C481.673 370.05 480.844 369.21 479.914 367.53C479.652 367.173 479.478 366.761 479.406 366.325C479.333 365.889 479.363 365.442 479.494 365.02C480.272 363.579 481.259 362.261 482.423 361.11C484.097 359.25 486.43 356.917 489.423 354.11C494.467 349.426 499.267 344.486 503.803 339.31C508.733 333.72 511.204 330.47 511.204 329.53C511.204 329.163 507.76 328.98 500.874 328.98C497.754 329.059 494.633 328.965 491.524 328.7C490.524 328.51 489.984 327.77 489.984 326.46C489.604 324.97 489.984 323.95 491.104 323.39C492.224 322.83 495.294 322.09 500.314 321.16C505.764 320.46 509.294 320.09 510.784 320.09H510.803ZM490.144 458.88C491.81 458.88 493.95 459.907 496.564 461.96C497.49 462.887 500.47 464.653 505.504 467.26C510.537 469.867 515.937 472.567 521.704 475.36C538.084 483.74 551.3 491 561.354 497.14L573.084 504.96C576.975 508.043 581.082 510.843 585.374 513.34C594.314 519.667 604.74 528.417 616.654 539.59C628.567 550.763 638.06 560.723 645.134 569.47L651.284 575.9L659.374 584.55C665.334 590.137 668.314 593.677 668.314 595.17C668.223 596.687 667.58 598.118 666.506 599.192C665.431 600.266 664 600.91 662.484 601C660.61 601 657.304 598.953 652.564 594.86C646.646 589.579 641.096 583.899 635.954 577.86C625.628 566.239 614.72 555.148 603.274 544.63C592.933 534.997 581.903 526.13 570.274 518.1C568.012 516.688 565.865 515.1 563.854 513.35C562.914 512.017 556.914 507.967 545.854 501.2C534.794 494.433 523.764 488.057 512.764 482.07C495.824 472.95 487.354 466.25 487.354 461.97C487.334 459.91 488.264 458.88 490.124 458.88H490.144Z" fill="white"/>
</svg>
