<svg xmlns="http://www.w3.org/2000/svg" viewBox="0 0 1257.81 335.12"><defs><style>.cls-1{fill:#fff;} svg {filter: drop-shadow(0px 2px 4px #00000050)}</style></defs><g id="图层_2" data-name="图层 2"><g id="图层_1-2" data-name="图层 1"><path class="cls-1" d="M71.49,85.94a9.83,9.83,0,0,1,7.26,2.8,6.7,6.7,0,0,1,1.82,2.93,14.14,14.14,0,0,1,.14,4.61q-.57,3.91-6.15,15.22a189.94,189.94,0,0,1-11.45,20.24l-4.74,8.1,2.51,3.07Q71.21,154.09,71.21,158q0,4.47-4.47,4.47a5.65,5.65,0,0,1-3.63-1.11,8.63,8.63,0,0,1-2.65-2.8q-1.53-2.24-2.93-4.75l-4.19-5.86a13.09,13.09,0,0,0-2.51,2.65c-1.5,1.77-2.61,3.12-3.35,4l-5.59,7.54-4.19,5.31a117.35,117.35,0,0,1-12.57,14Q17.6,188.73,14,190.67q-4.47,2.51-7.26,2.51-1.95,0-4.19-2.51Q0,188.15,0,182.29t2.51-7a8,8,0,0,1,4.19-1.4,4.38,4.38,0,0,1,3.91,2.24,1.32,1.32,0,0,0,2.1.55,43,43,0,0,0,5.44-5.58,181.91,181.91,0,0,0,16.34-19.27q8.79-11.73,7.68-12.29c-.75-.74-3.07-1.77-7-3.07a18.23,18.23,0,0,1-5-2.79A3.78,3.78,0,0,1,29,130.9c0-2,1.21-3.07,3.63-3.07q3.07,0,14,3.91c.74.19,1.76-.37,3.07-1.67a64.78,64.78,0,0,0,6.14-8.1q4.76-7.81,9.64-16.48t4.33-8.66c-.94,0-5.22,1.5-12.85,4.47q-12.57,5.31-19,5.31-4.18,0-5.31-2a4.25,4.25,0,0,1-.55-1.67c0-.93.74-1.86,2.23-2.79,2-1.68,3.44-2.24,4.19-1.68q2,.57,14.8-5.31,7.81-3.9,14.8-6.7A15.49,15.49,0,0,1,71.49,85.94Zm62.84,9.5c1.48,0,2.23.84,2.23,2.51q0,4.47-9.77,20.67Q110.86,145.71,105,157.16q-3.07,5.86-8.65,14.52a113.71,113.71,0,0,0-8.38,14Q84.06,194,80.15,194a6.52,6.52,0,0,1-2.79-.84,5,5,0,0,1-2.8-4.47,7.44,7.44,0,0,1,.28-2.23q0-1.68,5.73-10.89T91,159.67q5-7.81,12-19.27t10.61-17.87q.56-1.95,6.42-10.75T129.86,98Q132.37,95.45,134.33,95.44ZM124.55,32.6c.93,0,1.68.66,2.24,2q.55,1.39-2.24,12.84t-4.47,14.53l-1.67,5c-.19,1.12-.1,1.73.28,1.82s1.67-.32,3.91-1.26,5.21-2.32,8.93-4.19q19.54-9.76,28.21-9.77,5,0,7.82,2.51a11,11,0,0,1,1.68,2.1,4.72,4.72,0,0,1,.55,2.37,18.81,18.81,0,0,1-.28,3.63q-.56,3.34-3.77,9.08T160,80.64a4.53,4.53,0,0,1-2.79.83,5.62,5.62,0,0,1-5.31-3.07,3.19,3.19,0,0,1-1.12-2.23q0-1.68,2.24-5.31l3.07-5L152.76,67q-8.1,2.25-28.49,12.29Q114.78,84,112,84a3.78,3.78,0,0,1-2.8-1.12,5.61,5.61,0,0,1-3.07-5.31q0-3.61,3.91-14l6.42-18.15q2.52-6.71,4.47-10.61A4.66,4.66,0,0,1,124.55,32.6Zm7,106.12a42.37,42.37,0,0,1,7.54,2.52q27.09,10.89,64,43.56,10.89,9.49,38.26,36.31t29,29.32a9.33,9.33,0,0,1,.56,2.23,7,7,0,0,1-.84,3.08,6.82,6.82,0,0,1-2.09,2.79,5.56,5.56,0,0,1-3.22.28q-2,0-7.4-4.89t-19.13-18.85q-27.36-27.36-39.65-38.54-7.83-7.26-11.17-10.05L177.33,177q-4.74-4.18-19.41-14.52t-22.2-14.24q-8.66-5-6.7-8.66C129.39,138.82,130.23,138.54,131.53,138.72Z"/><path class="cls-1" d="M378,89a4.08,4.08,0,0,1,2.09,0c.93.38,1.4,1.59,1.4,3.64q0,3.34-1.68,16t-2.51,20q-.29,2.79-1.4,10.89-2,12.85-3.21,22.76t-1.54,14.11a31.64,31.64,0,0,0-1,3.77,8.89,8.89,0,0,1-1,2.93q-.84,2.79.84,2.79,3.9.29,54.87-.7t38.68-1A26.72,26.72,0,0,1,475,186.48q4.75,2.24,4.75,4.75t-5.17,4.46q-5.16,2-15.78,2.24-20.67.28-51.52,1.26t-34.21,1.53q-4.75.28-5.73,1.12t-1.53,5.3q-2,9.51-3.07,16.76-1.12,4.18-1.82,8.1a30,30,0,0,1-1,4.47q-1.67,9.76-7,9.77a7.7,7.7,0,0,1-3.91-1.39,5.15,5.15,0,0,1-2.23-1.82,6,6,0,0,1-.56-2.93q0-3.63,1.95-13.69,3.36-14.79,3.64-18.15,1.11-5.58,1.67-6.14,0-.56-14.1-.84T307.19,201l-46.08.56-4.74,7.54a46.39,46.39,0,0,1-4.05,6.14,4.44,4.44,0,0,1-3.49,1.4q-8.67,0-8.66-5.59,0-3.06,3.07-7c1.68-1.67,2.51-2.79,2.51-3.35,0-.74-.83-1.44-2.51-2.09a68.57,68.57,0,0,0-6.7-2.1c-4.66-1.11-7-2.69-7-4.75a3.77,3.77,0,0,1,.83-2.23c.75-.74,2.05-1.12,3.91-1.12l7,.56a44.6,44.6,0,0,0,7,.84c2,0,3.39-.51,4-1.54a19.22,19.22,0,0,0,1.81-6l.28-2.51q0-3.92-2.23-11.17-2.52-8.1-2.52-11.45a12.19,12.19,0,0,1,1.12-5,48.2,48.2,0,0,1,3.91-6.7q4.47-7.26,6.84-12c1.58-3.17,2.1-5,1.54-5.59,0-.37-1-.74-2.93-1.11a32.3,32.3,0,0,0-6-.56,36.36,36.36,0,0,1-6.7-.42,3.35,3.35,0,0,1-2.51-1.54q-2.52-6.14,12-6.14,8.38,0,12.57,2.23a7.62,7.62,0,0,1,4.19,7.26q0,6.71-7.54,19.27c-1.3,2.24-2.37,4.19-3.21,5.87a10.62,10.62,0,0,0-1.26,4.75q0,2.79,2.52,10.33c1.85,3.54,2.51,8.19,1.95,14l-.28,8.94,37.7-1.12q34.9-.84,45.24-1.67l7.82-.84.56-5.59q2.79-16.47,7.4-40.91T372,101.3a52.77,52.77,0,0,1,2-7,27.69,27.69,0,0,1,1.95-4.47A6.32,6.32,0,0,1,378,89ZM269.77,57.6a1.67,1.67,0,0,1,.84-.42q2,0,3.21,5.44a54,54,0,0,1,1.26,12.15q0,10-2.52,13.13A3.47,3.47,0,0,1,270.05,89l-2.23-.55a2.78,2.78,0,0,1-1.4-2.24,46.48,46.48,0,0,1-.28-6.42,132.62,132.62,0,0,1,.7-14.8c.46-4.09,1-6.33,1.53-6.7A5,5,0,0,0,269.77,57.6Zm92.16-35.33c1.12,0,2.14.75,3.07,2.23q1.11,1.41-3.91,7.27t-22.62,24q-18.15,19-26.25,25.83t-12,6.85a4.25,4.25,0,0,1-3.49-1.54,5.74,5.74,0,0,1-1.26-3.77,6.62,6.62,0,0,1,1-3.35,6.22,6.22,0,0,1,2.65-2.51q2.24-1.12,25.14-22.9Q345.73,32.88,353.55,27,360,22.27,361.93,22.27ZM321.16,86.78q1.95,0,1.95,4.47,0,5-3.07,20.94c-.94,3.91-1.63,7.36-2.1,10.34a48.36,48.36,0,0,0-.69,6.14q.27.29,10.33-7.26t14.24-11.17a14.22,14.22,0,0,1,3.77-2.93,6.1,6.1,0,0,1,3.49-.42q5,1.68,5,5,0,5.31-10.05,12.85a212.32,212.32,0,0,1-20.53,13.69q-7.12,3.9-10.75,3.63a9.42,9.42,0,0,1-5.31-2.24c-1.12-1.12-1.67-3.07-1.67-5.86a39.35,39.35,0,0,1,1.11-8.94,225.85,225.85,0,0,1,6.43-23.88q4.19-13,5.3-13.26A5.47,5.47,0,0,1,321.16,86.78Zm79.59-23.46q8.37,0,12.56,5c.93,1.3,1.68,3.82,2.24,7.54a11.48,11.48,0,0,1,.28,3.07A47.89,47.89,0,0,1,412.89,94a64.05,64.05,0,0,1-7,14.8q-4.05,6.15-7.4,6.15a5.58,5.58,0,0,1-4.33-1.68,6,6,0,0,1-1.53-4.19,11.5,11.5,0,0,1,2.51-7,33.92,33.92,0,0,0,5.45-9.91,38.73,38.73,0,0,0,2.65-11.31,12.16,12.16,0,0,0,.28-2.8,2.51,2.51,0,0,0-.84-2.23,11.1,11.1,0,0,0-3.07-1.12q-4.75-.55-14.52,2.24a95.25,95.25,0,0,0-18.71,7.54,67.77,67.77,0,0,1-9.64,3.91A4.25,4.25,0,0,1,353,87.9a4.82,4.82,0,0,1-.84-2c0-.56.56-1.76,1.68-3.63q3.07-3.61,11.45-8.1a121,121,0,0,1,18.43-7.82Q394.6,63.33,400.75,63.32Z"/><path class="cls-1" d="M523.75,179.08a9,9,0,0,1,6.15,2.51,12.21,12.21,0,0,1,2.79,3.21,7.81,7.81,0,0,1,.84,3.77q0,3.36-2.52,12.29a65.76,65.76,0,0,1-6.84,18.43,56.24,56.24,0,0,1-10.75,14.38q-5.86,5.46-10.61,5.45a5.68,5.68,0,0,1-4.19-1.68,6.64,6.64,0,0,1-2.23-4.74q0-4.47,7.81-12.29a37.42,37.42,0,0,0,7-7.26,43.1,43.1,0,0,0,4.74-7.54,15.14,15.14,0,0,0,2-6.15,10.7,10.7,0,0,0-2-5.58,17.12,17.12,0,0,1-1.95-6.7q0-2.52,3.07-5.59A11.17,11.17,0,0,1,523.75,179.08Z"/><path class="cls-1" d="M673.31,107.17a3.94,3.94,0,0,1,2.65-.84,4.12,4.12,0,0,1,2,1.4,6.71,6.71,0,0,1,.56,3.35l-.56,3.63,5.86-1.68q7.26-1.95,8.94-2c2,0,3.35.83,3.91,2.51a4.6,4.6,0,0,1,.56,2.51c0,1.31-.8,2.43-2.38,3.35s-4.42,1.87-8.51,2.8l-8.66,2.51-3.07,17.32-3.35,25.41q-1.12,9.78-2.38,13.26t-4.05,3.49a8.76,8.76,0,0,1-2.51-.27q-2.24-.28-5-5.31c-1.86-3.35-2.61-5.87-2.23-7.54a3.19,3.19,0,0,1,1-1.68,13.66,13.66,0,0,1,2.09-1.95,6.9,6.9,0,0,0,2.93-3.35,46.28,46.28,0,0,0,2.1-9.22q1.95-11.44,1.67-11.45c0-.37-.65.14-1.95,1.54s-2.61,2.93-3.91,4.61q-7.83,8.65-27.09,28.2-7.55,7.55-14.38,15.22t-9.92,11.31c-1.86,2.42-2.79,4-2.79,4.75,0,.37.46,1,1.4,2,1.3,1.68,2,3,2,3.91q0,2.52-3.91,4.75a12.44,12.44,0,0,1-6.14,2.24q-2.24,0-5.87-2.24a6.67,6.67,0,0,1-2.79-5.86q0-10.07,21-30.16,14.5-14.81,33.23-32.26t21.22-18.29a3.5,3.5,0,0,0,2-1.4,3.41,3.41,0,0,0,.84-2,6.11,6.11,0,0,0-.14-1.4.67.67,0,0,0-.7-.56,44.93,44.93,0,0,0-5.31,1.4q-11.18,3.63-16.47,3.63a3.2,3.2,0,0,1-2.24-.56,4.27,4.27,0,0,1-.42-3.07c.28-.74,1.4-1.63,3.35-2.65s5.26-2.47,9.92-4.33q13.95-5.58,14-6.15a24,24,0,0,1,1.68-5.58A9.8,9.8,0,0,1,673.31,107.17Zm20-55.3a3,3,0,0,1,2.23,1.4,7,7,0,0,1,.56,3.07q0,6.44-4.75,18.71a78,78,0,0,0-2.65,7.68c-.65,2.33-.89,3.59-.7,3.77.19.38,1.35.33,3.49-.14s4.51-1.07,7.12-1.81A63,63,0,0,1,713.94,82c3,0,4.93.56,5.87,1.68a4.57,4.57,0,0,1,1.39,3.35A7.25,7.25,0,0,1,719,92.37,5.66,5.66,0,0,1,716,94.74a18.61,18.61,0,0,1-5.45.14,43.13,43.13,0,0,0-6.42.56,41.48,41.48,0,0,1-4.75.56q-4.75,1.66-20.11,4.74-2.23.57-5.58,1.26c-2.23.47-5,1.07-8.38,1.82q-16.76,3.34-26.81,5.58-26.53,5.31-28.2,5.31A3.58,3.58,0,0,1,607,110.8c0-.93.74-1.72,2.23-2.38s5-1.81,10.61-3.49q6.7-2,20.95-5.86,14.51-3.63,23.45-6t11-3.49a4.1,4.1,0,0,0,2.37-3.07q0-1.11,3.07-9.21L683,71.14q5.29-12.28,5.3-13.12c0-.75.74-2.05,2.24-3.91C691.41,52.62,692.34,51.87,693.28,51.87ZM674.57,11.94c2,0,4,2,6,6a46.92,46.92,0,0,1,4,14.38l1.68,7.26a17.52,17.52,0,0,0,6.7-1.67l6.14-1.4c.93,0,1.86,1,2.8,3.07s1.2,3.64.83,4.75c-.37,1.31-2,2.7-4.88,4.19s-5.08,2-6.57,1.68q-1.67,0-10.05,1.11L672.89,53l.84,4.47a30.56,30.56,0,0,1,.56,6.42q0,2.52,3.35,3.91a4,4,0,0,1,2.79,3.91q0,2.79-2.79,5.31-3.63,3.34-6.14,3.35A2.69,2.69,0,0,1,669,78.68a5,5,0,0,1-2.09-3.49,72,72,0,0,1-.42-9.91V53.83l-3.35.83-12.85,1.68-6.7.56a9.76,9.76,0,0,1-4.75-.84,3,3,0,0,1-1.39-2.79c0-1.12.92-2.05,2.79-2.79A64.34,64.34,0,0,1,651.11,48l18.15-3.63,8.38-2.23-.84-7.26a102.48,102.48,0,0,0-3.07-13.69c-1.3-4.09-1.68-6.6-1.12-7.54C673,12.5,673.63,11.94,674.57,11.94ZM693.7,142.22a28.06,28.06,0,0,1,6,4.6,36.32,36.32,0,0,1,6.7,8.24,15.75,15.75,0,0,1,2.52,7.68,4.37,4.37,0,0,1-4.75,4.75,3,3,0,0,1-2.65-1,19,19,0,0,1-1.82-4.61,24.36,24.36,0,0,0-5.86-10.33q-6.15-6.42-3.63-8.94A2.82,2.82,0,0,1,693.7,142.22ZM740.2,60c1.85,0,3,1.07,3.49,3.21s.69,6.66.69,13.55c0,5.58.1,9.26.28,11s.65,2.47,1.4,2.09q3.08-2.23,25.41-7.4t28.21-5.16c3,0,4.47,1.21,4.47,3.63A10,10,0,0,1,803,83.71q-1.12,1.11-7.54,2.79c-3.54.94-5.86,1.82-7,2.65s-1.82,2.43-2.1,4.75-.6,7.31-1,14.94l-.84,16.48a60.86,60.86,0,0,0-.28,6.14q-.84,2.81-2.51,23.18-1.12,8.67-2,16.2t-1.4,12.57l-.83,8.93-2.8,24.3q-1.11,7.26-1.67,14.52-2,15.09-4.19,39.1t-2.51,34.91q-.57,9.21-1,12.84c-.28,2.42-.8,3.82-1.54,4.19-.93.93-2.61,1.4-5,1.4-2.24,0-3.63-.38-4.19-1.12-.38-.74-.56-2.89-.56-6.42q0-12.3,2.09-38.12t5.17-49q2-12.57,3.63-28.77L767.56,177l6.71-49.43q3.06-20.94,3.07-26.81l.84-9.49-3.36.84c-1.11.18-4.74.51-10.89,1s-9.87.89-11.17,1.26q-5.58,1.4-6.42.56-1.12-1.11-3.35,14.8l-1.12,8.66q-.84,6.42-2,12t-3.08,14.24q-3.35,13.41-4.46,14.24-1.12,1.68-4.75,1.68-4.75,0-4.75-5.31a40.24,40.24,0,0,1,2-10.61q3.61-11.73,7.95-32.26T736,90.69q-.57-.84.42-14.38c.64-9,1.16-14,1.53-14.94A2.18,2.18,0,0,1,740.2,60Zm43.56-26.53,8.94-2.51A2.87,2.87,0,0,1,795.21,34a1.92,1.92,0,0,1-.42,2.65,52.27,52.27,0,0,1-7.12,3.77q-10.62,5-23.6,10.2T749.41,55.5A4.86,4.86,0,0,1,746.34,54,4.27,4.27,0,0,1,745.22,51c0-2,1.21-3.63,3.63-4.74l21.79-8.66Q780.12,34.84,783.76,33.44Z"/><path class="cls-1" d="M906.78,69.26c3.53,0,5.77.19,6.7.56q5.87,2.79,5.86,19.55-.55,9.21-2.23,26.11t-3.63,30.3Q911,157,911,160.58l-2.52,12.57-1.67,10.33q-4.2,20.39-4.19,23.46l-3.91,20.38q-3.36,17.31-4.19,20.11c0,.37-.38,2.6-1.12,6.7q-1.95,10-2.51,14.8-2.52,14.52-6.56,29.47T876.62,320a49.23,49.23,0,0,1-3.49,6.28,17.24,17.24,0,0,1-4,4.61,16.47,16.47,0,0,1-4.33,3.35,18.69,18.69,0,0,1-10.61.14,9.93,9.93,0,0,1-3.22-2.65q-3.34-4.18-3.35-7a5,5,0,0,1,.84-2.52,4.7,4.7,0,0,1,4.47-3.35,6.69,6.69,0,0,1,4.47,1.68c.37.37.84.79,1.39,1.25a2.39,2.39,0,0,0,1.4.7c.37,0,1.21-.84,2.51-2.51q3.92-5,7.82-17.46a240,240,0,0,0,7-29.74l2.8-16.75A91.21,91.21,0,0,0,882.76,243L885,230.67q.28-1.66,2-10.33l6.14-31,1.12-5.86q0-.84,1.12-7l1.67-7.82q3.91-18.15,6.71-36.31a34.76,34.76,0,0,0,.83-4.89c.19-1.76.37-3.39.56-4.88l.84-5.31-3.35.84c-2.24.56-3.54,1-3.91,1.4s-.75,2-1.12,4.74c-.74,3.54-1.49,5.68-2.23,6.43a3.46,3.46,0,0,1-2.52.83,5.25,5.25,0,0,1-3.07-1,2.66,2.66,0,0,1-1.39-2.1,5.42,5.42,0,0,0-.28-1.67,6.1,6.1,0,0,1-.28-2c0-.74-.56-1.12-1.68-1.12a10.33,10.33,0,0,0-5,1.4c-1.3.75-2.19,2.47-2.65,5.17a27.38,27.38,0,0,0-.14,8.24,11.48,11.48,0,0,1,.28,2.79q0,2.24-2.79,5c-1.86,1.86-3.73,2.79-5.59,2.79a4.26,4.26,0,0,1-3.63-2,9,9,0,0,1-1.39-5.3,18,18,0,0,1,.83-5,31.69,31.69,0,0,0,1.12-5c0-.56-.47-.65-1.39-.28q-6.15,2.52-19.27,6.71-20.12,7-29.61,7-4.19,0-5.58-1.12a3.81,3.81,0,0,1-1.68-2.79c0-.93.74-1.86,2.24-2.79a13.39,13.39,0,0,1,6.14-1.68,59.08,59.08,0,0,0,13.68-3.49q8.1-2.94,23.46-9.36l15.92-6.7,1.68-7.54a137.1,137.1,0,0,0,1.39-14c0-3.72.23-6.24.7-7.54a2.81,2.81,0,0,1,2.93-2c1.86,0,3.12,1.17,3.77,3.49s.79,6.29.42,11.87l-.28,10.89,3.63-1.67a5.85,5.85,0,0,0,3.5-2.65q1-1.81,2.37-8.24,1.68-7.55,2.93-9.64a2.93,2.93,0,0,1,3.49-1.53c1.3.93,2,4,2,9.21v8.38l3.91-1.4c2-.37,3.3-.93,3.77-1.67s.88-2.7,1.25-5.87q1.11-11.16,1.12-16.19a5.78,5.78,0,0,0-.28-2.52q-.84-1.11-4.47-1.11a36.19,36.19,0,0,0-11.45,2h-2.23a3.06,3.06,0,0,1-1.4-.28,1.13,1.13,0,0,1-.56-1.12,3.93,3.93,0,0,1-.28-1.67c0-2.42,1.86-4.37,5.59-5.87Q898.12,69.26,906.78,69.26ZM924.37,0A5.2,5.2,0,0,1,927,1c1,.65,1.54,1.25,1.54,1.81q0,5-10.61,19.69a317.35,317.35,0,0,1-27.09,32q-2,2.51-13.13,14.24-7,7.55-9.77,10c-1.86,1.68-3.45,2.52-4.75,2.52A7.27,7.27,0,0,1,858.74,80a3.87,3.87,0,0,1-1.67-3.21,8.88,8.88,0,0,1,.56-2.24q.55-1.4,8-9.63T882.48,47.2q12.84-13.68,25.14-26l5-6.7,3.63-4.47Q923.82,0,924.37,0Zm25.69,101.09a2.43,2.43,0,0,1,2,1.12,4.53,4.53,0,0,1,.84,2.79q-.29,2.52-1.26,7.68T949,124.27q-2.81,14.8-2.8,18.44a4.71,4.71,0,0,1-1.25,4.46,5.72,5.72,0,0,1-4.33,2,4.52,4.52,0,0,1-3.35-1.4c-.94-.93-1.4-2.79-1.4-5.58a20.3,20.3,0,0,1,1.12-7,39.49,39.49,0,0,0,1.39-4.46c.38-1.49.75-2.8,1.12-3.91q5.31-20.67,7.82-24.3A4,4,0,0,1,950.06,101.09Zm5.31-59.76q1.95.29,2,6.7a84.67,84.67,0,0,1-2.09,16.76,139.31,139.31,0,0,1-5.45,19.27q-3.9,9.5-7.81,9.49a6,6,0,0,1-3.08-1.39,4.67,4.67,0,0,1-1.67-3.07q0-2.24,3.07-8.66a103.36,103.36,0,0,0,5.31-15.08q2.77-9.78,4.18-16.48,1.4-5.29,2.24-6.14A4.58,4.58,0,0,1,955.37,41.33Zm18.43,60.6c3.91,0,6.42.66,7.54,2a5.66,5.66,0,0,1,1.68,4.19q0,3.92-4.75,12.84a60.06,60.06,0,0,0-4.47,9.22q.27.56,17-6.15,13.68-5.58,21.78-7.26h2.23a4.92,4.92,0,0,1,2.38.42,3.86,3.86,0,0,1,1.25,2.1,15.49,15.49,0,0,1,.56,3.35c0,2.23-1.39,4.1-4.19,5.58q-2.51,1.13-19.68,7.26t-27.23,9.5a7.2,7.2,0,0,1-2.24.28,8.5,8.5,0,0,1-4.88-1.4,6,6,0,0,1-2.66-3.63,10.53,10.53,0,0,1,.84-6.14q1.39-3.36,7.54-12.57,5.58-9.21,5.59-10c0-.74-1.31-.93-3.91-.56a44.38,44.38,0,0,1-8.66,1.12c-2.42,0-4-.65-4.75-2q-1.39-1.95.14-3.35c1-.93,3.4-1.86,7.12-2.79A37,37,0,0,1,973.8,101.93Zm14.8-60.6A6.42,6.42,0,0,1,993.35,43a6.16,6.16,0,0,1,2,4.47q0,2.79-3.91,10.61l-2.24,5c-1.67,3.36-2.51,5.31-2.51,5.87,0,.37.09.56.28.56a4.85,4.85,0,0,0,2-.84,20.21,20.21,0,0,1,2.79-1.4c3.73-1.86,6.33-2.79,7.82-2.79a4.8,4.8,0,0,1,3.63,2,4.8,4.8,0,0,1,1.68,3.35q0,4.19-10,8.93-9.22,3.91-14.25,3.91-3.91,0-5.86-2A6.66,6.66,0,0,1,972.41,76q0-3.63,5.58-13.68l1.26-2.52c.46-.93.88-1.86,1.25-2.79,1.86-3.53,2.7-5.4,2.52-5.59q-1.68,0-10.61,2.24a52.31,52.31,0,0,1-8.94,1.67,4.49,4.49,0,0,1-2.79-.83Q959,53.07,959,51.94q0-1.39,2.79-2.79a103.34,103.34,0,0,1,9.78-3.91Q984.7,41.34,988.6,41.33Z"/><path class="cls-1" d="M1079.08,118.69c1.86,0,3.07.56,3.63,1.67q.55,2.81-13.4,36-4.2,9.78-8.1,17.45t-11.73,21.37q-1.68,2.79-3.21,5.72c-1,2-2,3.77-2.94,5.45l-4.74,8.93a50,50,0,0,1-5.45,9.36c-1.58,2-3.31,2.93-5.17,2.93a6.11,6.11,0,0,1-2.79-.56,5.47,5.47,0,0,1-2.79-5c0-2.24.37-3.73,1.12-4.47a76.47,76.47,0,0,0,5.86-10.89q9.78-17.59,15.08-25.7,4.47-6.42,18.15-33.79,5-10.6,8.66-18t5-9.63A3.85,3.85,0,0,1,1079.08,118.69Zm-24.71-11.59a4.92,4.92,0,0,1,2.37-.7,2.22,2.22,0,0,1,2.51,2.51q0,5.59-7.26,29.89a37.2,37.2,0,0,0-2,10q0,3.92-1.82,5.72a4.76,4.76,0,0,1-4.61,1.26c-2.79-.93-4.19-2.6-4.19-5a23.17,23.17,0,0,1,.84-5.3q1.11-4.47,6-19.13t6.28-17.46A4.29,4.29,0,0,1,1054.37,107.1ZM1071,28.49c.56,0,1.4.55,2.51,1.67a3.84,3.84,0,0,1,1.4,2.24,13.58,13.58,0,0,1-1.4,3.35,140.81,140.81,0,0,0-5,13.68,140.44,140.44,0,0,0-4.75,16.76l-.28,1.67a2.52,2.52,0,0,0,.84,2.24,2.28,2.28,0,0,1,.56,1.67,8,8,0,0,1-.56,2.65,5,5,0,0,1-1.68,2.38,3.38,3.38,0,0,1-2.51.84,8.7,8.7,0,0,1-3.91-1,6.54,6.54,0,0,1-2.79-2.37q-1.12-2,1.25-11.32a151.68,151.68,0,0,1,6.29-19.12q3.9-9.78,6.7-12.85C1069.31,29.32,1070.42,28.49,1071,28.49Zm26.53,63.39a9,9,0,0,1,7.26,3.35q5.58,4.76,5.59,16.2,0,8.66-3.35,23.46-3.08,11.73-5.17,16.19t-4.89,4.47a6.94,6.94,0,0,1-3.07-.84,12.56,12.56,0,0,1-2-1.81,3.25,3.25,0,0,1-.56-2.1q0-3.35,3.91-16.19c1.49-6,2.55-10.52,3.21-13.69a47,47,0,0,0,1-9.49v-9.22h-5.87q-8.37,1.13-13.4,3.91c-3.91,1.49-6.71,2.24-8.38,2.24q-3.91,0-3.07-3.08c.18-1.48,2.46-3.49,6.84-6a61.35,61.35,0,0,1,13.26-5.73A35.77,35.77,0,0,1,1097.51,91.88Zm2.79-64.79q5.87,0,8.66,2.23a7.24,7.24,0,0,1,2.52,5q0,3.63-6.15,13.13-2.79,3.9-4.19,6.14c-.93,1.49-1.3,2.37-1.11,2.65s.83.24,2-.14a9.29,9.29,0,0,1,5.87,2.24,5.78,5.78,0,0,1,2,2.37,4.74,4.74,0,0,1-.28,2.65,8.81,8.81,0,0,1-3.91,3.35q-2.79,1.41-13.4,4.47-16.49,4.47-18.72,5.59l-1.67.28c-.75,0-1.58-.84-2.51-2.52a2.83,2.83,0,0,1-.42-2.51,16.57,16.57,0,0,1,2.93-3.91q2.51-2.79,7-7a201.1,201.1,0,0,0,14.38-14.8c4.93-5.59,7.4-8.84,7.4-9.78q0-.55-10.33-.55a84.85,84.85,0,0,1-9.35-.28c-1-.19-1.54-.93-1.54-2.24-.38-1.49,0-2.51,1.12-3.07s4.19-1.3,9.21-2.23C1095.28,27.46,1098.81,27.09,1100.3,27.09Zm-20.66,138.79q2.5,0,6.42,3.08,1.39,1.39,8.94,5.3t16.2,8.1q24.57,12.57,39.65,21.78l11.73,7.82a104.05,104.05,0,0,0,12.29,8.38q13.41,9.49,31.28,26.25t28.48,29.88l6.15,6.43,8.09,8.65q8.94,8.38,8.94,10.62A6.21,6.21,0,0,1,1252,308q-2.81,0-9.92-6.14a173.92,173.92,0,0,1-16.61-17,460.94,460.94,0,0,0-32.68-33.23,290.9,290.9,0,0,0-33-26.53,50.72,50.72,0,0,1-6.42-4.75q-1.41-2-18-12.15t-33.09-19.13q-25.41-13.68-25.41-20.1C1076.85,166.91,1077.78,165.88,1079.64,165.88Z"/></g></g></svg>