<svg xmlns="http://www.w3.org/2000/svg" viewBox="0 0 335.71 192.6">
    <defs>
        <style>.cls-1{fill:#fff;} svg {filter: drop-shadow(0px 2px 4px #00000050)}</style>
    </defs>
    <g id="图层_2" data-name="图层 2">
        <g id="图层_1-2" data-name="图层 1">
            <path class="cls-1"
                d="M29.8,58.39a7.86,7.86,0,0,1,5,1.58A3.47,3.47,0,0,1,36,62a25.25,25.25,0,0,1,.34,5.19,22.26,22.26,0,0,1-.9,6.55,79.73,79.73,0,0,1-3.61,8.81,187.11,187.11,0,0,1-9.94,18.74l-2.26,4.51c-1.8,3.32-2.56,5.12-2.25,5.42.14.31,1.54-.45,4.17-2.26s5.31-3.83,8-6.09q4.74-3.62,7.45-3.61a3.72,3.72,0,0,1,2.71,1.12,4.31,4.31,0,0,1,1.13,3.17,6.46,6.46,0,0,1-1.13,3.38q-1.58,2-9.14,7.34a118.57,118.57,0,0,1-12.31,7.79Q12.41,125,8.58,125a6.14,6.14,0,0,1-5.64-2.94A5.61,5.61,0,0,1,2,119.35a12.24,12.24,0,0,1,1.58-4.51q3.39-6.78,7.45-13.33a164.4,164.4,0,0,0,8.58-14.67l2.94-5a28.69,28.69,0,0,1,2.71-5c1.81-4.52,2.78-7,2.93-7.45V67.19c0-.75-.07-1.16-.22-1.24a2.39,2.39,0,0,0-1.13.11A80.5,80.5,0,0,1,16.37,69a48.72,48.72,0,0,1-9.6,1.35,18.87,18.87,0,0,1-5.42-.45,2.32,2.32,0,0,1-1.35-2v-.68a2.35,2.35,0,0,1,1.35-2.26,10.22,10.22,0,0,1,4.29-.67q2.27,0,11.29-2.71Q25.29,58.39,29.8,58.39ZM30.48,22a53.94,53.94,0,0,1,5.2,9q2.48,5.43,1.35,6.78a3.73,3.73,0,0,1-2.71,1.58q-2.94,0-6.55-9c-.9-2.86-2-4.74-3.16-5.65a3.72,3.72,0,0,1-1.8-2.93,2.44,2.44,0,0,1,.9-1.92A3.28,3.28,0,0,1,26,19.1C27.47,19.1,29,20.08,30.48,22ZM69.32,75.32a2.33,2.33,0,0,1,2.26,1.36q.45,1.13-.68,8.46T68,100.38q-.67,2.49-2,11.07l-.68,5H70q7,0,31.38-5.87,8.58-2,22.36-6.33L138,100.38l8.58-2L151.06,97q13.55-3.39,18.06-5.2a69.31,69.31,0,0,1,7.23-1.8,5,5,0,0,1,2.71,1.13,9.13,9.13,0,0,1,1.24,1.58,3.15,3.15,0,0,1,.56,1.58q0,2.94-5.19,5.19T154.9,105.8q-13.11,3.61-15.36,4.29L128.93,113q-5,1.57-19.76,5.19t-20,4.74a94.78,94.78,0,0,1-14.9,1.58q-9.5.46-13.21-1.46t-3.73-7.34a47.83,47.83,0,0,1,2-11.74q1.59-6.56,2.26-8.58.9-4.29,2.15-8.81c.82-3,1.54-6,2.14-9A3.13,3.13,0,0,1,69.32,75.32Zm42.22-58.25q8.58,0,8.58,7t-9.25,21.46c-1.21,1.95-2.23,3.5-3.05,4.62a22.06,22.06,0,0,0-1.47,2.15,4.49,4.49,0,0,0,2,.45,4.93,4.93,0,0,1,3.16.9,3.27,3.27,0,0,1,1.36,2.94,4.85,4.85,0,0,1-.79,2.6A3,3,0,0,1,110,60.64l-7.9,1.58q-2.72.24-19,4.29l-6.77,1.58-5,1a21.82,21.82,0,0,1-3.84.57,3.27,3.27,0,0,1-2.93-1.36,3.65,3.65,0,0,1-.45-1.13c0-.45.52-1.13,1.58-2a5.8,5.8,0,0,1,1.58-1.47,3.15,3.15,0,0,1,1.58-.56q1.57,0,9.93-2.94l4.52-1.35a69.94,69.94,0,0,1,8.35-2.49q4.52-1.8,4.52-2.93a10,10,0,0,1,1.58-2.82c1-1.58,2.26-3.28,3.61-5.08q11.07-13.77,11.07-17.62a2.32,2.32,0,0,0-1.58-2.25q-.47-.22-4.29.45a63.47,63.47,0,0,0-8.13,2q-32.74,7-34.1,5.42a2.59,2.59,0,0,1-.45-1,2.46,2.46,0,0,1,0-1.47c0-.75.71-1.42,2.14-2a61,61,0,0,1,7.57-2.26q6.31-2.25,21-5.87c3-1,5.87-1.92,8.58-2.59a29.57,29.57,0,0,1,5.19-1A17.18,17.18,0,0,1,111.54,17.07Z" />
            <path class="cls-1"
                d="M269.33,31.16c3.46,0,6,.42,7.56,1.24a4.16,4.16,0,0,1,2.37,4c-.15,2-.83,3.28-2,3.95s-3.39,1-6.55,1q-3.39,0-15.58,2-2.25.46-11.51,2L234.1,47c-2,.46-5.79,1.13-11.51,2l-9.94,1.8-18.74,3.39-6.32,1.13-11.06,1.81q-21,3.61-28,3.61A2.2,2.2,0,0,1,146,58.25a3,3,0,0,1,1.81-2.93L158,52.84l5-1.13,15.35-2.94q22.13-5,50.58-10.61t35.45-6.77A42.24,42.24,0,0,1,269.33,31.16ZM207.46,84a3.93,3.93,0,0,1,2.26.79,2.17,2.17,0,0,1,1.13,1.69q-.24,2.26-9.49,20.55t-11.74,21q-.68.67-6.1,11.06-5.42,9.71-6.77,10.61a4.52,4.52,0,0,1-2.48.91,4.93,4.93,0,0,1-2.37-.68,3.87,3.87,0,0,1-1.7-1.58,5.65,5.65,0,0,1-.45-2.49q0-3.15,2.94-7.67,2.92-3.62,10-14.79t9.37-15.7a104.73,104.73,0,0,0,7-12L205,86.48C206.33,84.83,207.16,84,207.46,84Zm-26-11.75a34.66,34.66,0,0,1,10.28,2.15q6.43,2.14,8,4.18a5,5,0,0,1,1.13,2.71,2.83,2.83,0,0,1-2.26,2.93q-1.58.45-10.72-3.72T179,75.19c0-1.36.22-2.18.68-2.48A2.6,2.6,0,0,1,181.49,72.25ZM248.78,0c4.52,0,7.82.68,9.93,2a8.24,8.24,0,0,1,3.84,7,8,8,0,0,1-.22,2.26q-.68,2.49-7,11.29t-8.13,9.71a3.2,3.2,0,0,1-1.36.22,5.11,5.11,0,0,1-3.38-1.35,4.76,4.76,0,0,1-1.81-2.94,3.54,3.54,0,0,0-.79-1.58c-.22-.14-.79,0-1.69.45a9.42,9.42,0,0,1-1.58.46,2.79,2.79,0,0,1-2-.91,4.59,4.59,0,0,0-3.38-1.35c-.15,0-2.19.3-6.1.9a55.55,55.55,0,0,1-7,.68,4,4,0,0,1-2.6-.57,2.66,2.66,0,0,1-.56-1.91q.22-2,3.61-3.39t13.78-3.39c6-.75,9.55-1.13,10.61-1.13a7.93,7.93,0,0,1,2.26.23,2.8,2.8,0,0,0,1.58.68,2.25,2.25,0,0,0,1.47-.79,11.62,11.62,0,0,0,1.69-2.38q2.93-3.83,2.93-4.74c0-.45-1.35-.67-4.06-.67q-8.13,0-27.55,2.48-14.22,2-17.16,2c-1.35,0-2.18-.19-2.48-.56a2.63,2.63,0,0,1-.45-1.7,3,3,0,0,1,1.24-2.25,28,28,0,0,1,5.76-2q6.31-2,20.77-4.29A99.06,99.06,0,0,1,248.78,0ZM229.47,49.45a3.26,3.26,0,0,1,1.7,0c.9.3,1.43.68,1.58,1.13a19.85,19.85,0,0,1,.22,4.06q-.45,5.65-2,16.94-.45,2.25-3.84,19.87-3.16,21.67-6.32,34.54t-7.22,20.55c-2,3.92-3.84,5.87-5.65,5.87a4.22,4.22,0,0,1-2.71-.9,3.09,3.09,0,0,1-1.81-1.24,6.24,6.24,0,0,1-.45-2.83,72.18,72.18,0,0,1,.34-9.48,4.33,4.33,0,0,1,2.37-2.71,14.65,14.65,0,0,0,2.15-1.58,9.5,9.5,0,0,0,1.47-1.58,89.73,89.73,0,0,0,2.93-9.37q2-7.34,4.06-17.5c.76-4.06,1.73-8.65,2.94-13.77l1.35-6.55c.91-3.16,1.73-6.78,2.49-10.84.3-1,.56-2.07.79-3s.41-1.76.56-2.37q.9-5.86,2.26-11.74t2-7C228.68,49.75,229,49.6,229.47,49.45ZM254,74.74a4.36,4.36,0,0,1,2.6.9,2.42,2.42,0,0,1,1.24,1.81c0,.45-.6,1.13-1.8,2a29.9,29.9,0,0,1-4.52,2.71,46.82,46.82,0,0,0-4.29,2.6,9.07,9.07,0,0,0-2.26,1.92q0,.9,2.82,4.29a43.76,43.76,0,0,0,5.54,5.64q11.51,11.07,21.22,21.9l12.42,12.65q7.9,8.35,19.87,21.56t22.58,25.18q6.32,7.22,6.32,10.61a3.84,3.84,0,0,1-2,3.16,4.4,4.4,0,0,1-2.26.9c-1.21,0-2.67-.79-4.4-2.37s-4.41-4.4-8-8.46q-8.81-10.4-10.38-11.52a23.83,23.83,0,0,0-2.26-2.82,22,22,0,0,1-2.26-2.83q-1.35-1.35-3.05-3.27t-3.5-3.72q-4.29-4.29-9.26-9.94L279,137.74q-14.24-16.49-31.62-35.23a88.13,88.13,0,0,1-7.9-9.48c-2.26-3.16-3.38-5.27-3.38-6.32-.16-1.51.82-3.2,2.93-5.09A25.15,25.15,0,0,1,247,77c3.46-1.36,5.5-2,6.1-2Z" />
        </g>
    </g>
</svg>