<svg xmlns="http://www.w3.org/2000/svg" viewBox="0 0 236.82 177.15">
    <defs>
        <style>.cls-1{fill:#fff;} svg {filter: drop-shadow(0px 2px 4px #00000050)}</style>
    </defs>
    <g id="图层_2" data-name="图层 2">
        <g id="图层_1-2" data-name="图层 1">
            <path class="cls-1"
                d="M23.25,45.28a6.44,6.44,0,0,1,4.47,1.54,4.75,4.75,0,0,1,1.63,1.81,8.27,8.27,0,0,1,.43,3.17,16.58,16.58,0,0,1-1.11,5.76q-1.12,3-5.76,12.46c-2.75,6-4.12,9-4.12,9.27q0,1.56,9.45-5.49,5.49-4.29,7-4.47a4.36,4.36,0,0,1,1.89-.52,2.57,2.57,0,0,1,2,.86,3.52,3.52,0,0,1,.77,2.41q0,1.73-3.09,4.38a106,106,0,0,1-10.48,7.47Q20,88.58,16,88.57a5.38,5.38,0,0,1-2.41-.51,5,5,0,0,1-2.23-1.81,7.48,7.48,0,0,1-.52-3.35A13.73,13.73,0,0,1,11.83,78q.95-2.49,6.61-14.52l1.72-3.44,3.78-8.25c0-.45-.29-.68-.86-.68a4.58,4.58,0,0,0-1.37.17,22.77,22.77,0,0,0-5,1,13.33,13.33,0,0,0-5.32,1.55,24.4,24.4,0,0,1-6.53.86c-2.75,0-4.3-.4-4.64-1.21S0,52,.92,51.46A25.56,25.56,0,0,1,6.76,49.4l10-2.92A25,25,0,0,1,23.25,45.28ZM23.43,14c1.25,0,2.83.92,4.72,2.75a26.56,26.56,0,0,1,4.73,6.19q1.88,3.43,1.37,5.5a3.35,3.35,0,0,1-1.12,1.63,2.61,2.61,0,0,1-1.63.6A1.68,1.68,0,0,1,30,29.81a5.46,5.46,0,0,1-.85-1.46l-.86-1.8a16.25,16.25,0,0,0-1.46-3.18A20.58,20.58,0,0,0,24.46,20q-2.76-4.12-2.58-5A1.65,1.65,0,0,1,23.43,14ZM75.49,26.2a1.78,1.78,0,0,1,1.72,1.21,5.84,5.84,0,0,1,.17,2.06c0,2.4-.17,5.9-.52,10.48s-.69,7.9-1,10a12.27,12.27,0,0,0-.34,2.58,35.5,35.5,0,0,0,4-1.2q7.38-2.07,15.81-4.12a99.65,99.65,0,0,1,10.48-2.24,6.31,6.31,0,0,1,4.64,1.55,3.29,3.29,0,0,1,1.2,2.06,4.27,4.27,0,0,1-.69,1.72A3.13,3.13,0,0,1,109.16,52a20.74,20.74,0,0,1-4.46.51q-4,.34-18.22,3.78Q77.56,58.34,79.27,58L74.8,59.36l-.86,6-.69,4.29q-.51,4.65-1.37,8.77a42.56,42.56,0,0,1-.86,6l-.34,3.44a35,35,0,0,0-.86,5L69,99.4q-2.42,13.92-7.22,45.19a53.74,53.74,0,0,0-1.55,10.82,50.11,50.11,0,0,1-1.71,8.76,4.25,4.25,0,0,1-2.58,2.93,4,4,0,0,1-1.72.34,2.43,2.43,0,0,1-2-.95,4.07,4.07,0,0,1-.78-2.66,9.06,9.06,0,0,1,.52-2.92,38,38,0,0,0,1.2-7.56q.16-1.72,1.55-11.86c.68-4.24,1.2-6.93,1.54-8.07q0-.34,1.38-9.62l.68-4.3Q58.65,116.41,60,108l.69-4.47q3.43-18.37,5.16-30.93-.18.87,1.37-8.07.69-3.27,0-3.27c-.92.12-2.52.43-4.81,1s-5,1.23-8.25,2.15q-9.45,2.24-11.68,2.23a2.37,2.37,0,0,1-1.72-.51,1.51,1.51,0,0,1-.6-.86A3.57,3.57,0,0,1,39.92,64q.34-.68,7.9-3.17t18.05-5.76l3.43-.69,1.89-12,2.24-14.09C73.77,26.89,74.46,26.2,75.49,26.2ZM87.86,6.27Q92,6.27,92,9.36t-4.29,3.1q-3.1,0-23.37,6.53-6.7,2.06-8.08,2.06a1.64,1.64,0,0,1-1.54-1c-.46-.8-.09-1.64,1.11-2.49a27.09,27.09,0,0,1,6.1-2.84c1.26-.57,2.58-1.14,4-1.72s2.23-.91,2.57-1A77.47,77.47,0,0,1,76.09,9c2.8-.91,5.07-1.6,6.79-2.06A19.14,19.14,0,0,1,87.86,6.27ZM58,34.79q1.38,0,4.3,2.75L64,39.43l1.37-1.89a4.3,4.3,0,0,1,3.09-1.71,2.36,2.36,0,0,1,1.72.68,2.55,2.55,0,0,1,.69,1.89q0,1.89-2.41,3.87a7.23,7.23,0,0,1-4.46,2q-2.41,0-5-2.83c-1.72-1.89-2.57-3.58-2.57-5.07,0-.92.34-1.43,1-1.55ZM94.39,19.16a1.71,1.71,0,0,1,1.29.77,2.88,2.88,0,0,1,.6,1.81q0,3.09-6.53,14.26c-2.06,3.89-3.9,5.84-5.5,5.84A2.63,2.63,0,0,1,82.36,41a2.47,2.47,0,0,1-.86-1.72q0-1.55,2.41-4.81A74.87,74.87,0,0,0,89.06,27Q92,22.25,92,21.39A6.28,6.28,0,0,1,92.84,20,2.38,2.38,0,0,1,94.39,19.16Z" />
            <path class="cls-1"
                d="M165.86,5.76a8.58,8.58,0,0,1,2.58-2,1.2,1.2,0,0,1,1.2.34,2.15,2.15,0,0,1,.69,1.55A6.63,6.63,0,0,1,169,8.76a82.21,82.21,0,0,1-5.16,6.53Q159,21,143.44,36.43T126,52.58a9.4,9.4,0,0,1-1.89.34,4.82,4.82,0,0,1-2.32-.51A2,2,0,0,1,120.67,51a3.5,3.5,0,0,1,1-3.35A102.55,102.55,0,0,1,129.44,40a380.29,380.29,0,0,0,31.44-29.38Q164,7.56,165.86,5.76Zm-16,53.35a2.53,2.53,0,0,1,2.07.68c.22.58,0,3.38-.69,8.42L149.71,78,149,83.16A81,81,0,0,1,146.88,94c-.63,1.94-1.41,3-2.32,3.26l-1.38.34a2.83,2.83,0,0,1-1.72-.51,2.19,2.19,0,0,1-.85-1.38q0-1.36,3.69-18t4.38-18Q148.68,59.11,149.88,59.11ZM204,0a1.52,1.52,0,0,1,1.46.86,2.81,2.81,0,0,1,.08,2.06q-.69,4-11.51,16.5Q182.7,32,177.63,36.25t-7.13,3.27q-2.92-1.38-1.89-3.61,0-.85,5.5-5.33,5.16-4.29,14.61-14.08T200.4,3.61Q202.46.52,203.32.17ZM189.23,56.7a2,2,0,0,1,1.12.86,3.63,3.63,0,0,1,.25,1.55l-.34,3.78a124.32,124.32,0,0,1-3,15.55q-2.31,9.36-3.52,10.73a3.21,3.21,0,0,1-2.4.86,3.76,3.76,0,0,1-1.72-.86,2.36,2.36,0,0,1-.52-1.71c0-1.61.75-4.58,2.24-8.94a132.18,132.18,0,0,0,4.12-14.77q1.2-6,1.89-6.71C187.57,56.47,188.2,56.36,189.23,56.7Zm26.63-15.12c.57,0,1,.37,1.21,1.12a25.51,25.51,0,0,1,.34,5.41q0,5.67-1.12,17.44T214,83.68a21,21,0,0,0-.43,2.92q-.25,2.4-.6,4.47L209,115.12q-2.06,12.38-2.23,13.75-.69,5.67-1.38,9.7t-1,6.62q-2.06,12.54-3.35,20t-2.06,9.19a3.93,3.93,0,0,1-2.15,2.23,8.39,8.39,0,0,1-2.4.52,2.45,2.45,0,0,1-2.07-1.55,2.93,2.93,0,0,1-.68-1.89,9.28,9.28,0,0,1,.68-2.58,34,34,0,0,0,1.46-6.27q.94-5.24,1.29-7.13.17-1.72.86-5.5l3.44-21.48,1.37-8.93a56.94,56.94,0,0,1,1.38-7.9l.86-4.81.86-4.82L205.9,92.1q1.2-6,3.69-21.14t3.52-23.37a29.1,29.1,0,0,0,.69-3.35,11.1,11.1,0,0,1,.34-1.8A1.86,1.86,0,0,1,215.86,41.58Zm-.17-22.34q9.45,0,13.06,1a15.63,15.63,0,0,1,5.75,3q2.33,2,2.32,4a3.78,3.78,0,0,1-.85,2.06q-1.22,1.2-1.89,1.2c-.69,0-1.67-.8-2.93-2.4A12.45,12.45,0,0,0,225.06,25a44.64,44.64,0,0,0-9.88-1.29q-6.36-.51-6.36-2.4a1.66,1.66,0,0,1,1.2-1.55C210.59,19.42,212.48,19.24,215.69,19.24Z" />
        </g>
    </g>
</svg>